<svg xmlns="http://www.w3.org/2000/svg" viewBox="0 0 24 24" fill="currentColor" aria-hidden="true">
  <path stroke="#292D32" stroke-linecap="round" stroke-linejoin="round" stroke-miterlimit="10" stroke-width="1.5" d="M22 19v3H2v-3c0-.55.45-1 1-1h18c.55 0 1 .45 1 1z"/>
  <path d="M7 11H5v7h2v-7zM11 11H9v7h2v-7zM15 11h-2v7h2v-7zM19 11h-2v7h2v-7zM23 22.75H1c-.41 0-.75-.34-.75-.75s.34-.75.75-.75h22c.41 0 .75.34.75.75s-.34.75-.75.75zM21.37 5.75l-9-3.6c-.2-.08-.54-.08-.74 0l-9 3.6c-.35.14-.63.55-.63.93V10c0 .55.45 1 1 1h18c.55 0 1-.45 1-1V6.68c0-.38-.28-.79-.63-.93zM12 8.5c-.83 0-1.5-.67-1.5-1.5s.67-1.5 1.5-1.5 1.5.67 1.5 1.5-.67 1.5-1.5 1.5z"/>
</svg>
