<svg xmlns="http://www.w3.org/2000/svg" viewBox="0 0 24 24" fill="currentColor" aria-hidden="true">
  <path d="M16 1.969H8c-4 0-6 2-6 6v5c0 5 2 6 6 6h.5c.28 0 .64.18.8.4l1.5 2c.66.88 1.74.88 2.4 0l1.5-2c.19-.25.49-.4.8-.4h.5c4 0 6-2 6-6v-5c0-4-2-6-6-6zm-7.47 10.2c.29.29.29.77 0 1.06-.15.15-.34.22-.53.22s-.38-.07-.53-.22l-2-2a.754.754 0 010-1.06l2-2c.29-.29.77-.29 1.06 0 .29.29.29.77 0 1.06l-1.47 1.47 1.47 1.47zm5.16-3.51l-2 4.67c-.12.28-.4.45-.69.45a.745.745 0 01-.69-1.05l2-4.67c.16-.38.6-.56.99-.39.38.17.55.61.39.99zm4.84 2.57l-2 2c-.15.15-.34.22-.53.22s-.38-.07-.53-.22a.754.754 0 010-1.06l1.47-1.47-1.47-1.47a.754.754 0 010-1.06c.29-.29.77-.29 1.06 0l2 2c.29.29.29.77 0 1.06z"/>
</svg>
