<svg xmlns="http://www.w3.org/2000/svg" viewBox="0 0 24 24" fill="currentColor" aria-hidden="true">
  <path d="M12 2C6.48 2 2 6.48 2 12s4.48 10 10 10 10-4.48 10-10S17.52 2 12 2zm0 6.75c-.41 0-.75-.34-.75-.75s.34-.75.75-.75c2.62 0 4.75 2.13 4.75 4.75s-2.13 4.75-4.75 4.75c-.41 0-.75-.34-.75-.75s.34-.75.75-.75c1.79 0 3.25-1.46 3.25-3.25S13.79 8.75 12 8.75zm0 11c-4.27 0-7.75-3.48-7.75-7.75 0-.41.34-.75.75-.75s.75.34.75.75c0 3.45 2.8 6.25 6.25 6.25s6.25-2.8 6.25-6.25-2.8-6.25-6.25-6.25c-.41 0-.75-.34-.75-.75s.34-.75.75-.75c4.27 0 7.75 3.48 7.75 7.75s-3.48 7.75-7.75 7.75z"/>
</svg>
