<svg xmlns="http://www.w3.org/2000/svg" viewBox="0 0 24 24" fill="currentColor" aria-hidden="true">
  <path d="M18.75 22a3.25 3.25 0 100-6.5 3.25 3.25 0 000 6.5zM19 8a3 3 0 100-6 3 3 0 000 6zM5 8a3 3 0 100-6 3 3 0 000 6z"/>
  <path d="M4.83 8.02a6.929 6.929 0 006.54 4.65h.03l3.53-.01c1.52-.02 2.88 1.01 3.29 2.49V17c0 .42.34.76.77.76.42 0 .76-.34.76-.76V5.76a.76.76 0 00-.76-.76c-.42 0-.77.34-.77.76v6.62a4.941 4.941 0 00-3.28-1.26h-.02l-3.53.01h-.02c-2.29 0-4.34-1.45-5.09-3.62A.786.786 0 005.55 7c-.08 0-.17.02-.25.04a.77.77 0 00-.47.98z"/>
</svg>
