<svg xmlns="http://www.w3.org/2000/svg" viewBox="0 0 24 24" fill="currentColor" aria-hidden="true">
  <path d="M16.19 2H7.81C4.17 2 2 4.17 2 7.81v8.37C2 19.83 4.17 22 7.81 22h8.37c3.64 0 5.81-2.17 5.81-5.81V7.81C22 4.17 19.83 2 16.19 2zm-5.97 19H7.91C5.2 21 3 18.8 3 16.09v-2.31c0-.41.34-.75.75-.75s.75.34.75.75v2.31c0 1.88 1.53 3.41 3.41 3.41h2.31a.749.749 0 110 1.5zm0-16.5H7.91C6.03 4.5 4.5 6.03 4.5 7.91v2.31a.749.749 0 11-1.5 0V7.91C3 5.2 5.2 3 7.91 3h2.31a.749.749 0 110 1.5zM21 16.09C21 18.8 18.8 21 16.09 21H14.7c-.41 0-.75-.34-.75-.75s.34-.75.75-.75h1.39c1.88 0 3.41-1.53 3.41-3.41V14.7c0-.41.34-.75.75-.75s.75.34.75.75v1.39zm0-5.87c0 .41-.34.75-.75.75s-.75-.34-.75-.75V7.91c0-1.88-1.53-3.41-3.41-3.41h-2.31a.749.749 0 110-1.5h2.31C18.8 3 21 5.2 21 7.91v2.31z"/>
</svg>
