<svg xmlns="http://www.w3.org/2000/svg" viewBox="0 0 24 24" fill="currentColor" aria-hidden="true">
  <path d="M15 22.748a.752.752 0 01-.64-1.14l1.05-1.75a.751.751 0 111.29.77l-.27.45c2.76-.65 4.83-3.13 4.83-6.09 0-.41.34-.75.75-.75s.75.34.75.75c-.01 4.28-3.49 7.76-7.76 7.76zM2 9.75c-.41 0-.75-.34-.75-.75 0-4.27 3.48-7.75 7.75-7.75a.752.752 0 01.64 1.14L8.59 4.14c-.21.35-.67.47-1.03.25a.746.746 0 01-.25-1.03l.27-.45A6.261 6.261 0 002.75 9c0 .41-.34.75-.75.75zM14.8 12.63v2.94c0 2.45-.98 3.43-3.43 3.43H8.43C5.98 19 5 18.02 5 15.57v-2.94c0-2.45.98-3.43 3.43-3.43h2.94c2.45 0 3.43.98 3.43 3.43z"/>
  <path d="M15.57 5h-2.94c-2.41 0-3.39.96-3.42 3.32h2.16c2.94 0 4.3 1.37 4.3 4.3v2.16c2.37-.03 3.32-1.01 3.32-3.42V8.43C19 5.98 18.02 5 15.57 5z"/>
</svg>
