<svg xmlns="http://www.w3.org/2000/svg" viewBox="0 0 24 24" fill="currentColor" aria-hidden="true">
  <path d="M12 2C6.5 2 2 6.58 2 12.18v7.89c0 1.26.75 1.6 1.67.76l1-.91c.37-.34.97-.34 1.34 0l2 1.83c.37.34.97.34 1.34 0l2-1.83c.37-.34.97-.34 1.34 0l2 1.83c.37.34.97.34 1.34 0l2-1.83c.37-.34.97-.34 1.34 0l1 .91c.92.84 1.67.5 1.67-.76v-7.89C22 6.58 17.5 2 12 2zm0 4.62c1.31 0 2.38 1.07 2.38 2.38 0 1.31-1.07 2.38-2.38 2.38-1.31 0-2.38-1.07-2.38-2.38 0-1.31 1.07-2.38 2.38-2.38zm4.45 7.98A7.423 7.423 0 0112 16.07c-1.57 0-3.14-.49-4.45-1.47a.75.75 0 01.9-1.2 5.94 5.94 0 007.1 0 .75.75 0 01.9 1.2z"/>
</svg>
