<svg xmlns="http://www.w3.org/2000/svg" viewBox="0 0 24 24" fill="currentColor" aria-hidden="true">
  <path d="M15.9 8.07A6.986 6.986 0 008.97 2c-3.87 0-7 3.13-7 7 0 3.55 2.64 6.48 6.07 6.93.3.05.61.07.93.07.117 0 .232-.003.346-.009.22-.012.31-.275.155-.431a.754.754 0 010-1.06c.29-.3.77-.3 1.06 0l.78.78c.14.14.35.185.53.105.383-.17.745-.375 1.086-.61a.47.47 0 00.049-.726l-.505-.499a.745.745 0 010-1.06c.29-.29.76-.3 1.06-.01l.508.503c.21.207.555.19.723-.053.23-.333.431-.687.596-1.061a.476.476 0 00-.106-.527l-.781-.782a.754.754 0 010-1.06c.29-.3.77-.3 1.06 0 .156.156.419.066.43-.155.007-.114.01-.229.01-.345 0-.32-.02-.63-.07-.93z"/>
  <path d="M21.97 15c0 3.87-3.13 7-7 7-2.93 0-5.445-1.8-6.479-4.368-.125-.311.144-.633.479-.633.35 0 .68-.02 1.02-.07l.505-.067a.5.5 0 01.42.142l.525.525c.15.15.34.22.53.22.2 0 .39-.07.53-.22.3-.29.3-.77 0-1.06a.201.201 0 01.056-.32 7.993 7.993 0 001.175-.726.527.527 0 01.684.037l.485.48c.15.14.34.22.53.22s.39-.08.53-.23c.29-.29.29-.77-.01-1.06l-.478-.473a.52.52 0 01-.047-.677c.263-.361.51-.754.708-1.14a.193.193 0 01.307-.05c.15.15.34.22.53.22.2 0 .39-.07.53-.22.3-.29.3-.77 0-1.06l-.526-.526a.5.5 0 01-.142-.42l.068-.505c.05-.34.07-.67.07-1.02 0-.335.322-.603.632-.478A6.99 6.99 0 0121.97 15z"/>
</svg>
