<svg xmlns="http://www.w3.org/2000/svg" viewBox="0 0 24 24" fill="currentColor" aria-hidden="true">
  <path d="M16.19 2H7.81C4.17 2 2 4.17 2 7.81v8.37C2 19.83 4.17 22 7.81 22h8.37c3.64 0 5.81-2.17 5.81-5.81V7.81C22 4.17 19.83 2 16.19 2zM8.31 16.31C7.59 16.31 7 15.72 7 15c0-.72.59-1.31 1.31-1.31.72 0 1.31.59 1.31 1.31 0 .72-.59 1.31-1.31 1.31zm3.69-6c-.72 0-1.31-.59-1.31-1.31 0-.72.59-1.31 1.31-1.31.72 0 1.31.59 1.31 1.31 0 .72-.59 1.31-1.31 1.31zm3.69 6c-.72 0-1.31-.59-1.31-1.31 0-.72.59-1.31 1.31-1.31.72 0 1.31.59 1.31 1.31 0 .72-.59 1.31-1.31 1.31z" opacity=".97"/>
</svg>
