<svg xmlns="http://www.w3.org/2000/svg" viewBox="0 0 24 24" fill="currentColor" aria-hidden="true">
  <path d="M16.19 2H7.81C4.6 2 2 4.6 2 7.81v2.44c0 .55.45 1 1 1h18c.55 0 1-.45 1-1V7.81C22 4.6 19.4 2 16.19 2zM6.75 8.25c0 .41-.34.75-.75.75s-.75-.34-.75-.75v-2c0-.41.34-.75.75-.75s.75.34.75.75v2zm4 0c0 .41-.34.75-.75.75s-.75-.34-.75-.75v-2c0-.41.34-.75.75-.75s.75.34.75.75v2zM18 8h-4c-.41 0-.75-.34-.75-.75s.34-.75.75-.75h4c.41 0 .75.34.75.75S18.41 8 18 8zM2 16.19C2 19.4 4.6 22 7.81 22h8.37C19.4 22 22 19.4 22 16.19v-2.44c0-.55-.45-1-1-1H3c-.55 0-1 .45-1 1v2.44zm12 .06h4c.41 0 .75.34.75.75s-.34.75-.75.75h-4c-.41 0-.75-.34-.75-.75s.34-.75.75-.75zM9.25 16c0-.41.34-.75.75-.75s.75.34.75.75v2c0 .41-.34.75-.75.75s-.75-.34-.75-.75v-2zm-4 0c0-.41.34-.75.75-.75s.75.34.75.75v2c0 .41-.34.75-.75.75s-.75-.34-.75-.75v-2z"/>
</svg>
