<svg xmlns="http://www.w3.org/2000/svg" viewBox="0 0 24 24" fill="currentColor" aria-hidden="true">
  <path d="M17 3.5H7c-3 0-5 1.5-5 5v7c0 3.5 2 5 5 5h10c3 0 5-1.5 5-5v-7c0-3.5-2-5-5-5zM6.75 16c0 .41-.34.75-.75.75s-.75-.34-.75-.75V8c0-.41.34-.75.75-.75s.75.34.75.75v8zm3 0c0 .41-.34.75-.75.75s-.75-.34-.75-.75v-1c0-.41.34-.75.75-.75s.75.34.75.75v1zm0-4c0 .41-.34.75-.75.75s-.75-.34-.75-.75V8c0-.41.34-.75.75-.75s.75.34.75.75v4zm3 4c0 .41-.34.75-.75.75s-.75-.34-.75-.75V8c0-.41.34-.75.75-.75s.75.34.75.75v8zm3 0c0 .41-.34.75-.75.75s-.75-.34-.75-.75v-4c0-.41.34-.75.75-.75s.75.34.75.75v4zm0-7c0 .41-.34.75-.75.75s-.75-.34-.75-.75V8c0-.41.34-.75.75-.75s.75.34.75.75v1zm3 7c0 .41-.34.75-.75.75s-.75-.34-.75-.75V8c0-.41.34-.75.75-.75s.75.34.75.75v8z"/>
</svg>
