<svg xmlns="http://www.w3.org/2000/svg" viewBox="0 0 24 24" fill="currentColor" aria-hidden="true">
  <path d="M9.32 13.281h3.09v7.2c0 1.06 1.32 1.56 2.02.76l7.57-8.6c.66-.75.13-1.92-.87-1.92h-3.09v-7.2c0-1.06-1.32-1.56-2.02-.76l-7.57 8.6c-.65.75-.12 1.92.87 1.92zM8.5 4.75h-7c-.41 0-.75-.34-.75-.75s.34-.75.75-.75h7c.41 0 .75.34.75.75s-.34.75-.75.75zM7.5 20.75h-6c-.41 0-.75-.34-.75-.75s.34-.75.75-.75h6c.41 0 .75.34.75.75s-.34.75-.75.75zM4.5 12.75h-3c-.41 0-.75-.34-.75-.75s.34-.75.75-.75h3c.41 0 .75.34.75.75s-.34.75-.75.75z"/>
</svg>
