<svg xmlns="http://www.w3.org/2000/svg" viewBox="0 0 24 24" fill="currentColor" aria-hidden="true">
  <path d="M11.25 5.998v13.91c0 .71-.72 1.2-1.37.93-1.86-.78-4.17-1.46-5.81-1.68l-.31-.04c-.97-.12-1.76-1.01-1.76-1.98V5.248c0-1.2.97-2.17 2.17-2.17h.07c1.88.16 4.65 1.04 6.48 2.03a1 1 0 01.53.89zM19.83 3.078h-.06c-.24.02-.5.05-.77.1-1.23.2-2.69.62-4 1.14-.62.25-1.2.52-1.71.79-.33.18-.54.52-.54.89v13.91c0 .71.72 1.2 1.37.93 1.86-.78 4.17-1.46 5.81-1.68l.31-.04c.97-.12 1.76-1.01 1.76-1.98V5.248c0-1.2-.97-2.17-2.17-2.17zm-.56 10.65c0 .39-.28.56-.62.37l-1.06-.59a.49.49 0 00-.41 0l-1.06.59c-.34.19-.62.02-.62-.37v-3.07c0-.46.38-.84.84-.84h2.1c.46 0 .84.38.84.84v3.07h-.01z"/>
</svg>
