<svg xmlns="http://www.w3.org/2000/svg" viewBox="0 0 24 24" fill="currentColor" aria-hidden="true">
  <path d="M19.801 12.001h-15.6c-.22 0-.42-.15-.49-.36-2.75-9.09 11.13-12.58 12.74-2.82 1.66.21 2.97 1.15 3.78 2.41.21.33-.04.77-.43.77zM20 15.781H4c-.41 0-.75-.34-.75-.75s.34-.75.75-.75h16c.41 0 .75.34.75.75s-.34.75-.75.75zM18 18.781H6c-.41 0-.75-.34-.75-.75s.34-.75.75-.75h12c.41 0 .75.34.75.75s-.34.75-.75.75zM15 21.781H9c-.41 0-.75-.34-.75-.75s.34-.75.75-.75h6c.41 0 .75.34.75.75s-.34.75-.75.75z"/>
</svg>
