<svg xmlns="http://www.w3.org/2000/svg" viewBox="0 0 24 24" fill="currentColor" aria-hidden="true">
  <path d="M21.74 20.508l-.86-.86c.45-.68.71-1.49.71-2.36a4.3 4.3 0 00-4.3-4.3c-2.38 0-4.29 1.93-4.29 4.31a4.293 4.293 0 006.66 3.59l.86.86a.87.87 0 001.24 0c.33-.35.33-.9-.02-1.24z"/>
  <path d="M22 8.73c0 1.19-.19 2.29-.52 3.31-.06.21-.31.27-.49.14a6.346 6.346 0 00-3.79-1.24c-3.47 0-6.3 2.83-6.3 6.3 0 1.08.28 2.14.81 3.08.16.28-.03.64-.33.53-2.41-.82-7.28-3.81-8.86-8.81C2.19 11.02 2 9.92 2 8.73c0-3.09 2.49-5.59 5.56-5.59 1.81 0 3.43.88 4.44 2.23a5.549 5.549 0 014.44-2.23c3.07 0 5.56 2.5 5.56 5.59z"/>
</svg>
