<svg xmlns="http://www.w3.org/2000/svg" viewBox="0 0 24 24" fill="currentColor" aria-hidden="true">
  <path d="M12 19a7 7 0 100-14 7 7 0 000 14zM12 22.96c-.55 0-1-.41-1-.96v-.08c0-.55.45-1 1-1s1 .45 1 1-.45 1.04-1 1.04zm7.14-2.82c-.26 0-.51-.1-.71-.29l-.13-.13a.996.996 0 111.41-1.41l.13.13a.996.996 0 01-.7 1.7zm-14.28 0c-.26 0-.51-.1-.71-.29a.996.996 0 010-1.41l.13-.13a.996.996 0 111.41 1.41l-.13.13c-.19.19-.45.29-.7.29zM22 13h-.08c-.55 0-1-.45-1-1s.45-1 1-1 1.04.45 1.04 1-.41 1-.96 1zM2.08 13H2c-.55 0-1-.45-1-1s.45-1 1-1 1.04.45 1.04 1-.41 1-.96 1zm16.93-7.01c-.26 0-.51-.1-.71-.29a.996.996 0 010-1.41l.13-.13a.996.996 0 111.41 1.41l-.13.13c-.19.19-.44.29-.7.29zm-14.02 0c-.26 0-.51-.1-.71-.29l-.13-.14a.996.996 0 111.41-1.41l.13.13c.39.39.39 1.02 0 1.41-.19.2-.45.3-.7.3zM12 3.04c-.55 0-1-.41-1-.96V2c0-.55.45-1 1-1s1 .45 1 1-.45 1.04-1 1.04z"/>
</svg>
