<svg xmlns="http://www.w3.org/2000/svg" viewBox="0 0 24 24" fill="currentColor" aria-hidden="true">
  <path d="M19.328 16.75a.75.75 0 01-.6-1.2 5.94 5.94 0 000-7.1.75.75 0 011.2-.9 7.44 7.44 0 010 8.9c-.14.2-.37.3-.6.3zM15.348 3.782c-1.12-.62-2.55-.46-4.01.45l-2.92 1.83c-.2.12-.43.19-.66.19H6.328c-2.42 0-3.75 1.33-3.75 3.75v4c0 2.42 1.33 3.75 3.75 3.75H7.758c.23 0 .46.07.66.19l2.92 1.83c.88.55 1.74.82 2.54.82a3 3 0 001.47-.37c1.11-.62 1.73-1.91 1.73-3.63v-9.18c0-1.72-.62-3.01-1.73-3.63z"/>
</svg>
