<svg xmlns="http://www.w3.org/2000/svg" viewBox="0 0 24 24" fill="currentColor" aria-hidden="true">
  <path d="M12 2C6.48 2 2 6.48 2 12s4.48 10 10 10 10-4.48 10-10S17.52 2 12 2zm0 17.75c-4.27 0-7.75-3.48-7.75-7.75 0-1.36.36-2.69 1.03-3.86a.75.75 0 011.02-.28l6.07 3.49c.36.21.48.66.28 1.02-.21.36-.66.48-1.02.28L6.24 9.56c-.32.77-.49 1.6-.49 2.44 0 3.45 2.8 6.25 6.25 6.25s6.25-2.8 6.25-6.25a6.252 6.252 0 00-10-5 .75.75 0 01-.9-1.2A7.715 7.715 0 0112 4.25c4.27 0 7.75 3.48 7.75 7.75s-3.48 7.75-7.75 7.75z"/>
</svg>
