<svg xmlns="http://www.w3.org/2000/svg" viewBox="0 0 24 24" fill="currentColor" aria-hidden="true">
  <path d="M16.19 2H7.81C4.17 2 2 4.17 2 7.81v8.37C2 19.83 4.17 22 7.81 22h8.37c3.64 0 5.81-2.17 5.81-5.81V7.81C22 4.17 19.83 2 16.19 2zm.69 12.33c0 .09-.02.18-.05.27-.07.17-.21.31-.38.38-.09.04-.18.05-.27.05h-1.86c-.39 0-.7-.31-.7-.7 0-.39.31-.7.7-.7h.18l-2.11-2.11-1.02 1.52c-.12.17-.3.29-.51.31a.688.688 0 01-.56-.2l-2.98-2.98a.706.706 0 010-.99c.27-.28.71-.27.99 0l2.38 2.38 1.02-1.52c.12-.17.3-.29.51-.31.22-.02.41.05.56.2l2.72 2.72v-.18c0-.39.31-.7.7-.7.39 0 .7.31.7.7v1.86h-.02z"/>
</svg>
