<svg xmlns="http://www.w3.org/2000/svg" viewBox="0 0 24 24" fill="currentColor" aria-hidden="true">
  <path d="M16 3.75H8c-.41 0-.75-.34-.75-.75s.34-.75.75-.75h8c.41 0 .75.34.75.75s-.34.75-.75.75zM16 21.75H8c-.41 0-.75-.34-.75-.75s.34-.75.75-.75h8c.41 0 .75.34.75.75s-.34.75-.75.75zM15.5 5h-7C6.17 5 5 6.17 5 8.5v7C5 17.83 6.17 19 8.5 19h7c2.33 0 3.5-1.17 3.5-3.5v-7C19 6.17 17.83 5 15.5 5zm-5.75 9a.749.749 0 11-1.5 0v-1c0-.41.34-.75.75-.75s.75.34.75.75v1zm3 0c0 .41-.34.75-.75.75s-.75-.34-.75-.75v-4c0-.41.34-.75.75-.75s.75.34.75.75v4zm3 0c0 .41-.34.75-.75.75s-.75-.34-.75-.75v-2c0-.41.34-.75.75-.75s.75.34.75.75v2z"/>
</svg>
