<svg xmlns="http://www.w3.org/2000/svg" viewBox="0 0 24 24" fill="currentColor" aria-hidden="true">
  <path d="M5 8c-1.66 0-3 1.34-3 3v8c0 1.66 1.34 3 3 3h1.5c1.1 0 2-.9 2-2V10c0-1.1-.9-2-2-2H5zm1 9c0 .41-.34.75-.75.75s-.75-.34-.75-.75v-4c0-.41.34-.75.75-.75s.75.34.75.75v4zM19 2h-6c-1.66 0-3 1.34-3 3v14c0 1.66 1.34 3 3 3h.5c.28 0 .5-.22.5-.5V18c0-.55.45-1 1-1h2c.55 0 1 .45 1 1v3.5c0 .28.22.5.5.5h.5c1.66 0 3-1.34 3-3V5c0-1.66-1.34-3-3-3zm-4.25 11c0 .41-.34.75-.75.75s-.75-.34-.75-.75V8c0-.41.34-.75.75-.75s.75.34.75.75v5zm4 0c0 .41-.34.75-.75.75s-.75-.34-.75-.75V8c0-.41.34-.75.75-.75s.75.34.75.75v5z"/>
</svg>
