<svg xmlns="http://www.w3.org/2000/svg" viewBox="0 0 24 24" fill="currentColor" aria-hidden="true">
  <path d="M2 9.75c-.41 0-.75-.34-.75-.75V6.5c0-2.9 2.36-5.25 5.25-5.25H9c.41 0 .75.34.75.75s-.34.75-.75.75H6.5c-2.07 0-3.75 1.68-3.75 3.75V9c0 .41-.34.75-.75.75zM22 9.75c-.41 0-.75-.34-.75-.75V6.5c0-2.07-1.68-3.75-3.75-3.75H15c-.41 0-.75-.34-.75-.75s.34-.75.75-.75h2.5c2.89 0 5.25 2.35 5.25 5.25V9c0 .41-.34.75-.75.75zM17.5 22.75H16c-.41 0-.75-.34-.75-.75s.34-.75.75-.75h1.5c2.07 0 3.75-1.68 3.75-3.75V16c0-.41.34-.75.75-.75s.75.34.75.75v1.5c0 2.9-2.36 5.25-5.25 5.25zM9 22.75H6.5c-2.89 0-5.25-2.35-5.25-5.25V15c0-.41.34-.75.75-.75s.75.34.75.75v2.5c0 2.07 1.68 3.75 3.75 3.75H9c.41 0 .75.34.75.75s-.34.75-.75.75z"/>
  <path d="M9 5.25H7c-1.14 0-1.75.6-1.75 1.75v2c0 1.15.61 1.75 1.75 1.75h2c1.14 0 1.75-.6 1.75-1.75V7c0-1.15-.61-1.75-1.75-1.75zM17 5.25h-2c-1.14 0-1.75.6-1.75 1.75v2c0 1.15.61 1.75 1.75 1.75h2c1.14 0 1.75-.6 1.75-1.75V7c0-1.15-.61-1.75-1.75-1.75zM9 13.25H7c-1.14 0-1.75.6-1.75 1.75v2c0 1.15.61 1.75 1.75 1.75h2c1.14 0 1.75-.6 1.75-1.75v-2c0-1.15-.61-1.75-1.75-1.75zM17 13.25h-2c-1.14 0-1.75.6-1.75 1.75v2c0 1.15.61 1.75 1.75 1.75h2c1.14 0 1.75-.6 1.75-1.75v-2c0-1.15-.61-1.75-1.75-1.75z"/>
</svg>
