<svg xmlns="http://www.w3.org/2000/svg" viewBox="0 0 24 24" fill="currentColor" aria-hidden="true">
  <path d="M14.89 3.45H9.11c-.4 0-.72-.32-.72-.72 0-.4.32-.73.72-.73h5.78c.4 0 .72.32.72.72 0 .4-.32.73-.72.73zM19.97 15h-2.94c-1.27 0-2.03.76-2.03 2.03v2.94c0 1.27.76 2.03 2.03 2.03h2.94c1.27 0 2.03-.76 2.03-2.03v-2.94c0-1.27-.76-2.03-2.03-2.03zm-.28 4.46l-1.18.68c-.24.14-.48.21-.7.21-.17 0-.32-.04-.46-.12-.32-.19-.5-.56-.5-1.05v-1.36c0-.49.18-.86.5-1.05.32-.19.73-.15 1.16.09l1.18.68c.42.25.66.59.66.96s-.23.71-.66.96z"/>
  <path d="M14 19.968v-2.94c0-1.81 1.22-3.03 3.03-3.03h2.94c.23 0 .45.02.66.06.02-.24.04-.48.04-.73 0-4.79-3.89-8.68-8.67-8.68-4.78 0-8.67 3.89-8.67 8.68 0 4.78 3.89 8.67 8.67 8.67.85 0 1.66-.14 2.44-.36a3.22 3.22 0 01-.44-1.67zm-1.25-6.97c0 .41-.34.75-.75.75s-.75-.34-.75-.75v-5c0-.41.34-.75.75-.75s.75.34.75.75v5z"/>
</svg>
