<svg xmlns="http://www.w3.org/2000/svg" viewBox="0 0 24 24" fill="currentColor" aria-hidden="true">
  <path d="M20.36 12.732c-.37 0-.68-.28-.72-.65a7.614 7.614 0 00-3.24-5.44.723.723 0 01-.18-1.01c.23-.33.68-.41 1.01-.18a9.115 9.115 0 013.86 6.48c.04.4-.25.76-.65.8h-.08zM3.74 12.781h-.07a.73.73 0 01-.65-.8 9.083 9.083 0 013.8-6.49c.32-.23.78-.15 1.01.17.23.33.15.78-.17 1.01a7.632 7.632 0 00-3.19 5.45c-.04.38-.36.66-.73.66zM15.99 21.1c-1.23.59-2.55.89-3.93.89-1.44 0-2.81-.32-4.09-.97a.715.715 0 01-.32-.97c.17-.36.61-.5.97-.33.63.32 1.3.54 1.98.67.92.18 1.86.19 2.78.03.68-.12 1.35-.33 1.97-.63.37-.17.81-.03.97.34.18.36.04.8-.33.97zM12.05 2.012c-1.55 0-2.82 1.26-2.82 2.82 0 1.56 1.26 2.82 2.82 2.82 1.56 0 2.82-1.26 2.82-2.82 0-1.56-1.26-2.82-2.82-2.82zM5.05 13.871c-1.55 0-2.82 1.26-2.82 2.82 0 1.56 1.26 2.82 2.82 2.82 1.56 0 2.82-1.26 2.82-2.82 0-1.56-1.27-2.82-2.82-2.82zM18.95 13.871c-1.55 0-2.82 1.26-2.82 2.82 0 1.56 1.26 2.82 2.82 2.82 1.56 0 2.82-1.26 2.82-2.82 0-1.56-1.26-2.82-2.82-2.82z"/>
</svg>
