<svg xmlns="http://www.w3.org/2000/svg" viewBox="0 0 24 24" fill="currentColor" aria-hidden="true">
  <path d="M21.03 22h-7.04a.749.749 0 110-1.5h7.04a.749.749 0 110 1.5zM13.64 16.69c.39.39.39 1.02 0 1.42l-2.98 2.98a3.027 3.027 0 01-4.07.18c-.07-.06-.13-.12-.19-.18l-.87-.87-1.79-1.79-.86-.86c-.07-.07-.13-.14-.19-.21a3.01 3.01 0 01.19-4.04l2.98-2.98a.996.996 0 011.41 0l6.37 6.35zM21.12 10.641l-5 5a.996.996 0 01-1.41 0l-6.37-6.35c-.39-.39-.39-1.02 0-1.42l5-4.99a3.024 3.024 0 014.26 0l3.52 3.51a3.012 3.012 0 010 4.25z"/>
</svg>
