<svg xmlns="http://www.w3.org/2000/svg" viewBox="0 0 24 24" fill="currentColor" aria-hidden="true">
  <path d="M22 3.75H2c-.41 0-.75-.34-.75-.75s.34-.75.75-.75h20c.41 0 .75.34.75.75s-.34.75-.75.75zM11 9.75H2c-.41 0-.75-.34-.75-.75s.34-.75.75-.75h9c.41 0 .75.34.75.75s-.34.75-.75.75zM8 15.75H2c-.41 0-.75-.34-.75-.75s.34-.75.75-.75h6c.41 0 .75.34.75.75s-.34.75-.75.75zM6 21.75H2c-.41 0-.75-.34-.75-.75s.34-.75.75-.75h4c.41 0 .75.34.75.75s-.34.75-.75.75zM21.86 7.678c-.59-.45-1.4-.54-2.35-.28l-4.35 1.18c-1.17.32-1.89 1.27-1.89 2.47v6.23c-.42-.24-.91-.39-1.43-.39-1.61 0-2.93 1.31-2.93 2.93 0 1.61 1.31 2.93 2.93 2.93s2.93-1.31 2.93-2.93v-5.65l6.48-1.77v3.43c-.42-.24-.91-.39-1.43-.39-1.61 0-2.93 1.31-2.93 2.93 0 1.61 1.31 2.93 2.93 2.93s2.93-1.31 2.93-2.93v-8.5c0-1.01-.3-1.75-.89-2.19zm-10.02 13.57a1.43 1.43 0 110-2.86 1.43 1.43 0 010 2.86zm7.98-1.45a1.43 1.43 0 110-2.86 1.43 1.43 0 010 2.86z"/>
</svg>
