<svg xmlns="http://www.w3.org/2000/svg" viewBox="0 0 24 24" fill="currentColor" aria-hidden="true">
  <path d="M19.54 6.54l-3.07-3.07A5.003 5.003 0 0012.93 2H8C5 2 3 4 3 7v10c0 3 2 5 5 5h8c3 0 5-2 5-5v-6.93c0-1.33-.53-2.6-1.46-3.53zm-9.51 10.93c.29.29.29.77 0 1.06-.15.15-.34.22-.53.22s-.38-.07-.53-.22l-2-2a.754.754 0 010-1.06l2-2c.29-.29.77-.29 1.06 0 .29.29.29.77 0 1.06L8.56 16l1.47 1.47zm7-.94l-2 2c-.15.15-.34.22-.53.22s-.38-.07-.53-.22a.754.754 0 010-1.06L15.44 16l-1.47-1.47a.754.754 0 010-1.06c.29-.29.77-.29 1.06 0l2 2c.29.29.29.77 0 1.06z"/>
</svg>
