<svg xmlns="http://www.w3.org/2000/svg" fill="none" viewBox="0 0 24 24" stroke="currentColor" aria-hidden="true">
  <path stroke-linecap="round" stroke-linejoin="round" stroke-width="1.5" d="M22 13v2c0 5-2 7-7 7H9c-5 0-7-2-7-7v-1.52M11 2H9C4 2 2 4 2 9"/>
  <path stroke-linecap="round" stroke-linejoin="round" stroke-miterlimit="10" stroke-width="1.5" d="M19.93 9.01l1.05-1.05c1.36-1.36 2-2.94 0-4.94-2-2-3.58-1.36-4.94 0L8.16 10.9c-.3.3-.6.89-.66 1.32l-.43 3.01c-.16 1.09.61 1.85 1.7 1.7l3.01-.43c.42-.06 1.01-.36 1.32-.66l3.18-3.18.73-.73M14.91 4.15a7.144 7.144 0 004.94 4.94"/>
</svg>
