<svg xmlns="http://www.w3.org/2000/svg" fill="none" viewBox="0 0 24 24" stroke="currentColor" aria-hidden="true">
  <path stroke-linecap="round" stroke-linejoin="round" stroke-miterlimit="10" stroke-width="1.5" d="M8 2v3M16 2v3"/>
  <path stroke-linecap="round" stroke-linejoin="round" stroke-width="1.5" d="M18.2 21.4a3.2 3.2 0 100-6.4 3.2 3.2 0 000 6.4zM22 22l-1-1"/>
  <path stroke-linecap="round" stroke-linejoin="round" stroke-miterlimit="10" stroke-width="1.5" d="M3.5 9.09h17M3 13.01V8.5c0-3 1.5-5 5-5h8c3.5 0 5 2 5 5V13M13.37 22H8c-3.5 0-5-2-5-5"/>
  <path stroke-linecap="round" stroke-linejoin="round" stroke-width="2" d="M11.995 13.7h.009M8.295 13.7h.01M8.295 16.7h.01"/>
</svg>
