<svg xmlns="http://www.w3.org/2000/svg" fill="none" viewBox="0 0 24 24" stroke="currentColor" aria-hidden="true">
  <path stroke-linecap="round" stroke-linejoin="round" stroke-width="1.5" d="M12 20.9c-.22 0-.45-.03-.62-.09C8.48 19.82 2 15.69 2 8.69c0-1.4.51-2.68 1.36-3.66M21.49 12c.32-1.02.51-2.12.51-3.31 0-3.09-2.49-5.59-5.56-5.59-1.82 0-3.43.88-4.44 2.24A5.53 5.53 0 007.56 3.1"/>
  <path stroke-linecap="round" stroke-linejoin="round" stroke-miterlimit="10" stroke-width="1.5" d="M19.21 15.74l-3.54 3.54c-.14.14-.27.4-.3.59l-.19 1.35c-.07.49.27.83.76.76l1.35-.19c.19-.03.46-.16.59-.3l3.54-3.54c.61-.61.9-1.32 0-2.22-.89-.89-1.6-.6-2.21.01zM18.7 16.25c.3 1.08 1.14 1.92 2.22 2.22"/>
</svg>
