<svg xmlns="http://www.w3.org/2000/svg" fill="none" viewBox="0 0 24 24" stroke="currentColor" aria-hidden="true">
  <path stroke-linecap="round" stroke-linejoin="round" stroke-width="1.5" d="M20 6.95v10.1A2.5 2.5 0 0017.05 20H6.95A2.5 2.5 0 004 17.05V6.95A2.5 2.5 0 006.95 4h10.1A2.5 2.5 0 0020 6.95z"/>
  <path stroke-linecap="round" stroke-linejoin="round" stroke-width="1.5" d="M7 4.5a2.5 2.5 0 01-5 0A2.5 2.5 0 016.95 4c.03.16.05.33.05.5zM22 4.5A2.5 2.5 0 1119.5 2M7 19.5a2.5 2.5 0 11-5 0 2.5 2.5 0 015 0zM22 19.5a2.5 2.5 0 01-4.95.5 2.5 2.5 0 114.95-.5z"/>
</svg>
