<svg xmlns="http://www.w3.org/2000/svg" fill="none" viewBox="0 0 24 24" stroke="currentColor" aria-hidden="true">
  <path stroke-linecap="round" stroke-linejoin="round" stroke-width="1.5" d="M2.5 14.07v-2.56c0-2.07 1.69-3.76 3.76-3.76h11.48c2.07 0 3.76 1.69 3.76 3.76v1.44h-2.02c-.56 0-1.07.22-1.44.6-.42.41-.66 1-.6 1.63.09 1.08 1.08 1.87 2.16 1.87h1.9v1.19c0 2.07-1.69 3.76-3.76 3.76H6.26c-2.07 0-3.76-1.69-3.76-3.76M12.28 2.17a1.9 1.9 0 012.57 1.78v3.8"/>
  <path stroke-linecap="round" stroke-linejoin="round" stroke-width="1.5" d="M2.5 12.41V7.84c0-1.19.73-2.25 1.84-2.67l3.97-1.5M22.56 13.97v2.06c0 .55-.44 1-1 1.02H19.6c-1.08 0-2.07-.79-2.16-1.87-.06-.63.18-1.22.6-1.63.37-.38.88-.6 1.44-.6h2.08c.56.02 1 .47 1 1.02zM7 12h7"/>
</svg>
