<svg xmlns="http://www.w3.org/2000/svg" fill="none" viewBox="0 0 24 24" stroke="currentColor" aria-hidden="true">
  <path stroke-linecap="round" stroke-linejoin="round" stroke-width="1.5" d="M2 6.74c0-3.37.84-4.21 4.21-4.21h10.53c3.37 0 4.21.84 4.21 4.21M10 16.95H6.21c-3.37 0-4.21-.84-4.21-4.21v-1.89M10 21.47v-4.52M2 12.95h8M6.74 21.47H10M22 12.8c0-2.37-.59-2.96-2.96-2.96h-3.55c-2.37 0-2.96.59-2.96 2.96v5.71c0 2.37.59 2.96 2.96 2.96h3.55c2.37 0 2.96-.59 2.96-2.96v-1.57"/>
  <path stroke-linecap="round" stroke-linejoin="round" stroke-width="2" d="M17.244 18.25h.01"/>
</svg>
