<svg xmlns="http://www.w3.org/2000/svg" fill="none" viewBox="0 0 24 24" stroke="currentColor" aria-hidden="true">
  <path stroke-linecap="round" stroke-linejoin="round" stroke-width="1.5" d="M2 9V6.5C2 4.01 4.01 2 6.5 2H9M15 2h2.5C19.99 2 22 4.01 22 6.5V9M22 16v1.5c0 2.49-2.01 4.5-4.5 4.5H16M9 22H6.5C4.01 22 2 19.99 2 17.5V15M11 8.5a2.5 2.5 0 01-5 0A2.5 2.5 0 018.5 6M7.5 18a1.5 1.5 0 100-3 1.5 1.5 0 000 3zM16.5 9a1.5 1.5 0 100-3 1.5 1.5 0 000 3zM13 15.5c0-.69.28-1.32.73-1.77A2.5 2.5 0 1115.5 18"/>
</svg>
