<svg xmlns="http://www.w3.org/2000/svg" fill="none" viewBox="0 0 24 24" stroke="currentColor" aria-hidden="true">
  <path stroke-linecap="round" stroke-linejoin="round" stroke-miterlimit="10" stroke-width="1.5" d="M21.63 14.75c0 .89-.25 1.73-.69 2.45a4.709 4.709 0 01-4.06 2.3 4.73 4.73 0 01-4.06-2.3 4.66 4.66 0 01-.69-2.45c0-2.62 2.13-4.75 4.75-4.75s4.75 2.13 4.75 4.75zM18.149 15.99l-2.51-2.51M18.13 13.51l-2.51 2.51"/>
  <path stroke-linecap="round" stroke-linejoin="round" stroke-miterlimit="10" stroke-width="1.5" d="M5.33 2h13.34c1.11 0 2.02.91 2.02 2.02v2.22c0 .81-.51 1.82-1.01 2.33l-1.76 1.55a4.42 4.42 0 00-1.04-.12c-2.62 0-4.75 2.13-4.75 4.75 0 .89.25 1.73.69 2.45.37.62.88 1.15 1.5 1.53v.34c0 .61-.4 1.42-.91 1.72L12 21.7c-1.31.81-3.13-.1-3.13-1.72v-5.35c0-.71-.41-1.62-.81-2.12L4.22 8.47c-.5-.51-.91-1.42-.91-2.02"/>
</svg>
