<svg xmlns="http://www.w3.org/2000/svg" fill="none" viewBox="0 0 24 24" stroke="currentColor" aria-hidden="true">
  <path stroke-linecap="round" stroke-linejoin="round" stroke-width="1.5" d="M15.02 3.01A4.944 4.944 0 0012 2C9.24 2 7 4.24 7 7s2.24 5 5 5 5-2.24 5-5M3.41 22c0-3.87 3.85-7 8.59-7 .96 0 1.89.13 2.76.37"/>
  <path stroke-linecap="round" stroke-linejoin="round" stroke-miterlimit="10" stroke-width="1.5" d="M22 18c0 .32-.04.63-.12.93-.09.4-.25.79-.46 1.13A3.97 3.97 0 0118 22a3.92 3.92 0 01-2.66-1.03c-.3-.26-.56-.57-.76-.91A3.92 3.92 0 0114 18a3.995 3.995 0 014-4c1.18 0 2.25.51 2.97 1.33.64.71 1.03 1.65 1.03 2.67zM19.49 17.98h-2.98"/>
</svg>
