<svg xmlns="http://www.w3.org/2000/svg" fill="none" viewBox="0 0 24 24" stroke="currentColor" aria-hidden="true">
  <path stroke-linecap="round" stroke-linejoin="round" stroke-width="1.5" d="M18.02 4.86c-1.2-1.2-2.85-1.14-3.66.15l-1.77 2.8 5.67 5.67 2.8-1.77c1.21-.76 1.28-2.53.14-3.66M11.29 21.48l-4.27.5c-1.84.21-3.16-1.11-2.94-2.94l.98-8.28"/>
  <path stroke-linecap="round" stroke-linejoin="round" stroke-width="1.5" d="M18.25 13.47l.24 4.12c.23 2.3-.57 3.1-2.75 3.36M12.58 7.81l-1.75-.11M5.281 20.78l3.18-3.19"/>
  <path stroke-linecap="round" stroke-linejoin="round" stroke-miterlimit="10" stroke-width="1.5" d="M11 6.5c0 .41-.06.82-.17 1.2a4.455 4.455 0 01-1.37 2.18C8.67 10.58 7.64 11 6.5 11c-.51 0-.99-.08-1.44-.24a4.466 4.466 0 01-2.41-1.94A4.5 4.5 0 012 6.5c0-1.42.65-2.69 1.69-3.51A4.494 4.494 0 0111 6.5zM6.521 8.18V4.82M8.16 6.5H4.8"/>
</svg>
