<svg xmlns="http://www.w3.org/2000/svg" fill="none" viewBox="0 0 24 24" stroke="currentColor" aria-hidden="true">
  <path stroke-linecap="round" stroke-linejoin="round" stroke-width="1.5" d="M5.53 15.98c.17 1.79 1.11 2.52 3.16 2.52h2.73c2.28 0 3.19-.91 3.19-3.19v-2.73c0-2.27-.91-3.18-3.19-3.18H8.69c-2.07 0-3.01.75-3.16 2.6"/>
  <path stroke-linecap="round" stroke-linejoin="round" stroke-width="1.5" d="M18.5 8.68v2.73c0 2.28-.91 3.19-3.19 3.19h-.71v-2.02c0-2.27-.91-3.18-3.19-3.18H9.4v-.72c0-2.28.91-3.18 3.19-3.18h2.73c2.27 0 3.18.91 3.18 3.18zM22 15c0 3.87-3.13 7-7 7l1.05-1.75M2 9c0-3.87 3.13-7 7-7L7.95 3.75"/>
</svg>
