<svg xmlns="http://www.w3.org/2000/svg" fill="none" viewBox="0 0 24 24" stroke="currentColor" aria-hidden="true">
  <path stroke-linecap="round" stroke-linejoin="round" stroke-width="1.5" d="M15 4.33c-2.59-2.59-3.72-1.94-5.66 0L3.77 9.9c-2.39 2.39-2.59 3.06 0 5.66l3.46 3.46c2.43 2.43 3.26 2.39 5.66 0l5.57-5.57c1.94-1.94 2.43-3.23 0-5.66M19.2 16.79l-.66 1.09c-.93 1.55-.21 2.82 1.6 2.82s2.53-1.27 1.6-2.82l-.66-1.09c-.52-.86-1.37-.86-1.88 0z"/>
  <path stroke-linecap="round" stroke-linejoin="round" stroke-width="1.5" d="M2 12.24a33.319 33.319 0 0117-.13l.5.13"/>
</svg>
