<svg xmlns="http://www.w3.org/2000/svg" fill="none" viewBox="0 0 24 24" stroke="currentColor" aria-hidden="true">
  <path stroke-linecap="round" stroke-linejoin="round" stroke-width="1.5" d="M9.42 18.2c-.5 0-2.27-.83-2.8-2.48-.33-1.03.06-2.3 1.13-2.65.57-.18 1.27-.03 1.66.52.37-.57 1.1-.7 1.66-.52 1.08.35 1.46 1.62 1.14 2.65M2 9c0-5 2-7 7-7h5"/>
  <path stroke-linecap="round" stroke-linejoin="round" stroke-width="1.5" d="M22 10v5c0 5-2 7-7 7H9c-5 0-7-2-7-7v-2.02M18 10c-3 0-4-1-4-4V2l8 8"/>
</svg>
