<svg xmlns="http://www.w3.org/2000/svg" fill="none" viewBox="0 0 24 24" stroke="currentColor" aria-hidden="true">
  <path stroke-linecap="round" stroke-linejoin="round" stroke-width="1.5" d="M15.3 4.17a4.75 4.75 0 00-3.6-1.39l-5 .24c-2 .09-3.59 1.68-3.69 3.67l-.24 5c-.06 1.34.44 2.65 1.39 3.6l4.53 4.53a4.78 4.78 0 006.75 0l4.39-4.39a4.78 4.78 0 000-6.75L18.7 7.55"/>
  <path stroke-linecap="round" stroke-width="1.5" d="M8.51 11.8c.3.13.64.2.99.2a2.5 2.5 0 000-5A2.5 2.5 0 007 9.5"/>
  <path stroke-linecap="round" stroke-linejoin="round" stroke-miterlimit="10" stroke-width="1.5" d="M13 17l4-4"/>
</svg>
