<svg xmlns="http://www.w3.org/2000/svg" fill="none" viewBox="0 0 24 24" stroke="currentColor" aria-hidden="true">
  <path stroke-linecap="round" stroke-linejoin="round" stroke-miterlimit="10" stroke-width="1.5" d="M8.68 12.72h1.74v4.05c0 .6.74.88 1.14.43l4.26-4.84a.65.65 0 00-.49-1.08h-1.74V7.23c0-.6-.74-.88-1.14-.43l-4.26 4.84a.65.65 0 00.49 1.08z"/>
  <path stroke-linecap="round" stroke-linejoin="round" stroke-width="1.5" d="M4 6c-1.25 1.67-2 3.75-2 6 0 5.52 4.48 10 10 10s10-4.48 10-10S17.52 2 12 2c-1.43 0-2.8.3-4.03.85"/>
</svg>
