<svg xmlns="http://www.w3.org/2000/svg" fill="none" viewBox="0 0 24 24" stroke="currentColor" aria-hidden="true">
  <path stroke-linecap="round" stroke-linejoin="round" stroke-width="1.5" d="M3.17 7.44L12 12.55l8.77-5.08M12 21.61v-9.07"/>
  <path stroke-linecap="round" stroke-linejoin="round" stroke-width="1.5" d="M2.39 14.83V9.17c0-1.38.99-3.06 2.2-3.73l5.34-2.96c1.14-.64 3-.64 4.14 0l5.34 2.96c1.21.67 2.2 2.35 2.2 3.73v5.66c0 .05 0 .09-.01.14-.7-.61-1.6-.97-2.6-.97-.94 0-1.81.33-2.5.88A3.97 3.97 0 0015 18c0 .75.21 1.46.58 2.06.09.16.2.31.32.45l-1.83 1.01c-1.14.64-3 .64-4.14 0l-5.34-2.96"/>
  <path stroke-linecap="round" stroke-linejoin="round" stroke-miterlimit="10" stroke-width="1.5" d="M23 18c0 1.2-.53 2.27-1.36 3A4 4 0 0119 22c-2.21 0-4-1.79-4-4 0-1.26.58-2.39 1.5-3.12A3.999 3.999 0 0123 18z"/>
  <path stroke-linecap="round" stroke-linejoin="round" stroke-miterlimit="10" stroke-width="1.5" d="M19.25 16.75v1.5L18 19"/>
</svg>
