<svg xmlns="http://www.w3.org/2000/svg" fill="none" viewBox="0 0 24 24" stroke="currentColor" aria-hidden="true">
  <path stroke-linecap="round" stroke-linejoin="round" stroke-miterlimit="10" stroke-width="1.5" d="M2 8.5c0-3.5 2-5 5-5h10c3 0 5 1.5 5 5v7c0 3.5-2 5-5 5H7c-3 0-5-1.5-5-5v-2.97"/>
  <path stroke-linecap="round" stroke-linejoin="round" stroke-miterlimit="10" stroke-width="1.5" d="M15 12c0-1.66-1.34-3-3-3s-3 1.34-3 3 1.34 3 3 3M8.5 6H7a2.5 2.5 0 00-2.5 2.5V10M15.5 6H17a2.5 2.5 0 012.5 2.5V10M8.5 18H7a2.5 2.5 0 01-2.5-2.5V14M15.5 18H17a2.5 2.5 0 002.5-2.5V14"/>
</svg>
