<svg xmlns="http://www.w3.org/2000/svg" fill="none" viewBox="0 0 24 24" stroke="currentColor" aria-hidden="true">
  <path stroke-linecap="round" stroke-linejoin="round" stroke-width="1.5" d="M2.69 19.01C3.65 21.1 5.65 22 9 22h6c5 0 7-2 7-7V9c0-5-2-7-7-7H9C4 2 2 4 2 9v6"/>
  <path stroke-linecap="round" stroke-linejoin="round" stroke-width="1.5" d="M2 13h3.76a2 2 0 011.79 1.11l.89 1.79C9 17 10 17 10.24 17h3.53a2 2 0 001.79-1.11l.89-1.79a2 2 0 011.79-1.11h3.74M13.66 10h.84M9.5 10h1.58M10.34 7h3.33"/>
</svg>
