<svg xmlns="http://www.w3.org/2000/svg" fill="none" viewBox="0 0 24 24" stroke="currentColor" aria-hidden="true">
  <path stroke-linecap="round" stroke-linejoin="round" stroke-miterlimit="10" stroke-width="1.5" d="M21 8.95v6.93c0 1.64-1.34 2.97-3 2.97h-.76c-.8 0-1.56.31-2.12.87l-1.71 1.69c-.78.77-2.05.77-2.83 0l-1.71-1.69c-.56-.56-1.33-.87-2.12-.87H6c-1.66 0-3-1.33-3-2.97V4.97C3 3.33 4.34 2 6 2h12c1.66 0 3 1.33 3 2.97"/>
  <path stroke-linecap="round" stroke-linejoin="round" stroke-width="1.5" d="M12.07 8.95h-.15A1.945 1.945 0 0110.04 7c0-1.08.87-1.95 1.95-1.95s1.95.88 1.95 1.95c.01 1.06-.82 1.92-1.87 1.95zM9.25 15.19c1.51 1.01 3.99 1.01 5.5 0 1.33-.89 1.33-2.34 0-3.23-1.51-1.01-3.99-1.01-5.5 0"/>
</svg>
