<svg xmlns="http://www.w3.org/2000/svg" fill="none" viewBox="0 0 24 24" stroke="currentColor" aria-hidden="true">
  <path stroke-linecap="round" stroke-linejoin="round" stroke-width="1.5" d="M2.02 12.22C1.91 6.6 6.35 2.05 11.97 2.05c5.62 0 10.05 4.55 10.05 10.06v6.16c0 1.95-1.62 3.57-3.57 3.57-1.95 0-3.57-1.62-3.57-3.57v-2.81c0-.97.76-1.84 1.84-1.84.97 0 1.84.76 1.84 1.84v3.03"/>
  <path stroke-linecap="round" stroke-linejoin="round" stroke-width="1.5" d="M5.48 18.49v-2.92c0-.97.76-1.84 1.84-1.84.97 0 1.84.76 1.84 1.84v2.81c0 1.95-1.62 3.57-3.57 3.57-1.95 0-3.57-1.63-3.57-3.57v-2.37M11.54 8.19l-.46-.92c-.11-.21-.41-.22-.52-.01l-.84 1.55c-.1.19-.3.31-.52.31h-.73M15.53 9.12h-.81a.61.61 0 00-.53.32l-.75 1.5c-.11.22-.42.22-.53 0"/>
</svg>
