<svg xmlns="http://www.w3.org/2000/svg" fill="none" viewBox="0 0 24 24" stroke="currentColor" aria-hidden="true">
  <path stroke-linecap="round" stroke-linejoin="round" stroke-width="1.5" d="M23 15.97c0 3.87-3.13 7-7 7l1.05-1.75M1 7.97c0-3.87 3.13-7 7-7L6.95 2.72"/>
  <path stroke-linecap="round" stroke-linejoin="round" stroke-miterlimit="10" stroke-width="1.5" d="M6.62 13.07h2.81c.62 0 1.13.56 1.13 1.13 0 .62-.5 1.13-1.13 1.13H6.62v-2.26zM6.62 15.33h3.22c.71 0 1.29.5 1.29 1.13 0 .62-.58 1.13-1.29 1.13H6.62v-2.26zM8.42 17.58v1.12M8.42 11.95v1.12"/>
  <path stroke-linecap="round" stroke-linejoin="round" stroke-miterlimit="10" stroke-width="1.5" d="M2.5 15.33c0-3.41 2.76-6.17 6.17-6.17.16 0 .31.01.48.02 3.03.23 5.45 2.65 5.68 5.68.01.16.02.31.02.48 0 3.41-2.76 6.17-6.17 6.17-2.13 0-4.01-1.08-5.12-2.72"/>
  <path stroke-linecap="round" stroke-linejoin="round" stroke-miterlimit="10" stroke-width="1.5" d="M21.5 8.67c0 3.41-2.76 6.17-6.17 6.17h-.49a6.174 6.174 0 00-5.68-5.68v-.49c0-3.41 2.76-6.17 6.17-6.17 1.8 0 3.42.77 4.55 2"/>
</svg>
