<svg xmlns="http://www.w3.org/2000/svg" fill="none" viewBox="0 0 24 24" stroke="currentColor" aria-hidden="true">
  <path stroke-linecap="round" stroke-linejoin="round" stroke-miterlimit="10" stroke-width="1.5" d="M12 18.2a4 4 0 100-8 4 4 0 000 8z"/>
  <path stroke-linecap="round" stroke-linejoin="round" stroke-width="1.5" d="M10.44 14.3l.65.65c.19.19.5.19.69.01l1.78-1.64"/>
  <path stroke-linecap="round" stroke-linejoin="round" stroke-miterlimit="10" stroke-width="1.5" d="M21.37 14l.34-3.57C21.97 7.99 21.27 6 17 6H7c-4.27 0-4.97 1.99-4.7 4.43l.75 8C3.26 20.39 3.98 22 8 22h8c4.02 0 4.74-1.61 4.95-3.57M8 6v-.8C8 3.43 8 2 11.2 2h1.6C16 2 16 3.43 16 5.2V6M21.65 11a16.335 16.335 0 01-5.64 2.64M2.62 11.27c1.67 1.14 3.49 1.95 5.38 2.41"/>
</svg>
