<svg xmlns="http://www.w3.org/2000/svg" fill="none" viewBox="0 0 24 24" stroke="currentColor" aria-hidden="true">
  <path stroke-linecap="round" stroke-linejoin="round" stroke-width="1.5" d="M12.55 12.92a2.206 2.206 0 01-2.68-2.68 2.205 2.205 0 014.32.26M7.64 3.15a8.78 8.78 0 00-4.43 7.64c0 2.54 1.08 4.83 2.81 6.43M18.01 17.19a8.731 8.731 0 002.78-6.4A8.79 8.79 0 0012 2"/>
  <path stroke-linecap="round" stroke-linejoin="round" stroke-width="1.5" d="M8 14.55c-.92-.98-1.49-2.3-1.49-3.76C6.51 7.76 8.97 5.3 12 5.3c3.03 0 5.49 2.46 5.49 5.49 0 1.46-.57 2.77-1.49 3.76M10.3 16.66l-1.44 1.79c-1.14 1.43-.13 3.54 1.7 3.54h2.87c1.83 0 2.85-2.12 1.7-3.54l-1.44-1.79c-.86-1.09-2.52-1.09-3.39 0z"/>
</svg>
