<svg xmlns="http://www.w3.org/2000/svg" fill="none" viewBox="0 0 24 24" stroke="currentColor" aria-hidden="true">
  <path stroke-linecap="round" stroke-linejoin="round" stroke-width="1.5" d="M9 6c-1.1 0-2 .9-2 2s.9 2 2 2 2-.9 2-2M2 12.89V15c0 5 2 7 7 7h6c5 0 7-2 7-7v-5M13 2H9C4 2 2 4 2 9"/>
  <path stroke-linecap="round" stroke-linejoin="round" stroke-width="1.5" d="M2.67 18.95l4.93-3.31c.79-.53 1.93-.47 2.64.14l.33.29c.78.67 2.04.67 2.82 0l4.16-3.57c.78-.67 2.04-.67 2.82 0L22 13.9"/>
  <path stroke-linecap="round" stroke-width="1.5" d="M16.56 5.94l3.88-3.88M20.44 5.94l-3.88-3.88"/>
</svg>
