<svg xmlns="http://www.w3.org/2000/svg" fill="none" viewBox="0 0 24 24" stroke="currentColor" aria-hidden="true">
  <path stroke-linecap="round" stroke-linejoin="round" stroke-width="1.5" d="M10.37 18.14c0 1.42-1.05 2.58-2.58 2.58H4.57c-1.42 0-2.58-1.16-2.58-2.58v-5.8"/>
  <path stroke-linecap="round" stroke-linejoin="round" stroke-width="1.5" d="M2 12.35h5.8c.96 0 1.72.45 2.16 1.14M2 12.35C2 6.3 3.13 5.3 6.53 3.28M13.63 12.35h5.8c1.53 0 2.58 1.16 2.58 2.58v3.22c0 1.42-1.05 2.58-2.58 2.58h-3.22c-1.42 0-2.58-1.16-2.58-2.58v-5.8M13.63 12.35c0-6.05 1.13-7.05 4.53-9.07"/>
</svg>
