<svg xmlns="http://www.w3.org/2000/svg" fill="none" viewBox="0 0 24 24" stroke="currentColor" aria-hidden="true">
  <path stroke-linecap="round" stroke-linejoin="round" stroke-width="1.5" d="M2.62 10.97V8.25c0-.77.03-1.46.11-2.07C3.1 2.89 4.65 2 8.88 2h6.25c4.22 0 5.78.89 6.14 4.18.09.61.11 1.3.11 2.07v7.5c0 .77-.03 1.46-.11 2.08-.37 3.28-1.92 4.17-6.15 4.17H8.88c-4.22 0-5.78-.89-6.14-4.17-.09-.62-.12-1.31-.12-2.08v-.74M21.23 8.92h-4.1M6.87 8.92h-4.1"/>
  <path stroke-linecap="round" stroke-linejoin="round" stroke-width="1.5" d="M17.13 8.92c0 1.13-.92 2.05-2.05 2.05H8.92c-.56 0-1.08-.23-1.45-.61-.37-.36-.6-.87-.6-1.44 0-1.13.92-2.05 2.05-2.05h6.15c.56 0 1.08.23 1.45.61.38.37.61.88.61 1.44z"/>
</svg>
