<svg xmlns="http://www.w3.org/2000/svg" fill="none" viewBox="0 0 24 24" stroke="currentColor" aria-hidden="true">
  <path stroke-linecap="round" stroke-linejoin="round" stroke-width="1.5" d="M12 9V2l-2 2M12 2l2 2M1.98 13h4.41c.38 0 .72.21.89.55l1.17 2.34A2 2 0 0010.24 17h3.53a2 2 0 001.79-1.11l1.17-2.34a1 1 0 01.89-.55h4.36"/>
  <path stroke-linecap="round" stroke-linejoin="round" stroke-width="1.5" d="M2.69 19c.96 2.1 2.96 3 6.31 3h6c5 0 7-2 7-7v-3c0-4.27-1.46-6.35-5-6.87M7 5.13c-3.54.52-5 2.6-5 6.87v3"/>
</svg>
