<svg xmlns="http://www.w3.org/2000/svg" fill="none" viewBox="0 0 24 24" stroke="currentColor" aria-hidden="true">
  <path stroke-linecap="round" stroke-linejoin="round" stroke-width="1.5" d="M12.2 11.8l-1.41 1.41c-.78.78-.78 2.05 0 2.83.78.78 2.05.78 2.83 0l2.22-2.22a4.008 4.008 0 000-5.66 4.008 4.008 0 00-5.66 0l-2.42 2.42a3.428 3.428 0 000 4.85"/>
  <path stroke-linecap="round" stroke-linejoin="round" stroke-width="1.5" d="M4 6c-1.25 1.67-2 3.75-2 6 0 5.52 4.48 10 10 10s10-4.48 10-10S17.52 2 12 2c-1.43 0-2.8.3-4.03.85"/>
</svg>
