<svg xmlns="http://www.w3.org/2000/svg" fill="none" viewBox="0 0 24 24" stroke="currentColor" aria-hidden="true">
  <path stroke-linecap="round" stroke-linejoin="round" stroke-width="1.5" d="M22 15c0 3.87-3.13 7-7 7l1.05-1.75M2 9c0-3.87 3.13-7 7-7L7.95 3.75M13.7 4.45l3.98 2.3 3.94-2.29M17.68 10.82V6.74"/>
  <path stroke-linecap="round" stroke-linejoin="round" stroke-width="1.5" d="M16.74 2.21l-2.4 1.33c-.54.3-.99 1.06-.99 1.68v2.54c0 .62.44 1.38.99 1.68l2.4 1.33c.51.29 1.35.29 1.87 0l2.4-1.33c.54-.3.99-1.06.99-1.68V5.22c0-.62-.44-1.38-.99-1.68l-2.4-1.33c-.51-.28-1.35-.28-1.87 0zM2.35 15.45l3.97 2.3 3.95-2.29M6.32 21.82v-4.08"/>
  <path stroke-linecap="round" stroke-linejoin="round" stroke-width="1.5" d="M10.65 16.23c0-.62-.44-1.38-.99-1.68l-2.4-1.33c-.51-.29-1.35-.29-1.87 0l-2.4 1.33c-.54.3-.99 1.06-.99 1.68v2.54c0 .62.44 1.38.99 1.68l2.4 1.33c.51.29 1.35.29 1.87 0l2.4-1.33"/>
</svg>
