<svg xmlns="http://www.w3.org/2000/svg" fill="none" viewBox="0 0 24 24" stroke="currentColor" aria-hidden="true">
  <path stroke-linecap="round" stroke-width="1.5" d="M12 9.12c.91 0 1.65.74 1.65 1.65v2.47c0 .91-.74 1.65-1.65 1.65-.91 0-1.65-.74-1.65-1.65"/>
  <path stroke-linecap="round" stroke-width="1.5" d="M16.98 13.47c-.2 2.58-2.36 4.6-4.98 4.6-2.76 0-5-2.24-5-5v-2.14c0-2.76 2.24-5 5-5 2.59 0 4.72 1.97 4.97 4.49"/>
  <path stroke-linecap="round" stroke-linejoin="round" stroke-miterlimit="10" stroke-width="1.5" d="M15 2h2c3 0 5 2 5 5v2M2 9V7c0-3 2-5 5-5h2M15 22h2c3 0 5-2 5-5v-2M2 15v2c0 3 2 5 5 5h2"/>
</svg>
