<svg xmlns="http://www.w3.org/2000/svg" fill="none" viewBox="0 0 24 24" stroke="currentColor" aria-hidden="true">
  <path stroke-linecap="round" stroke-linejoin="round" stroke-width="1.5" d="M11.02 19.5H7.5c-.62 0-1.17-.02-1.66-.09-2.63-.29-3.34-1.53-3.34-4.91v-5c0-3.38.71-4.62 3.34-4.91.49-.07 1.04-.09 1.66-.09h3.46M21.5 13.34v1.16c0 3.38-.71 4.62-3.34 4.91-.49.07-1.04.09-1.66.09h-1.48M15.02 4.5h1.48c.62 0 1.17.02 1.66.09 2.63.29 3.34 1.53 3.34 4.91M15 2v20"/>
  <path stroke-linecap="round" stroke-linejoin="round" stroke-width="2" d="M11.495 12h.009M7.094 12h.01"/>
</svg>
