<svg xmlns="http://www.w3.org/2000/svg" fill="none" viewBox="0 0 24 24" stroke="currentColor" aria-hidden="true">
  <path stroke-linecap="round" stroke-linejoin="round" stroke-width="1.5" d="M9.84 7.16c0 1.19.97 2.16 2.16 2.16 1.19 0 2.16-.97 2.16-2.16C14.16 5.97 13.19 5 12 5M6.79 19c1.19 0 2.16-.97 2.16-2.16 0-1.19-.97-2.16-2.16-2.16-1.19 0-2.16.97-2.16 2.16 0 1.19.96 2.16 2.16 2.16zM17.21 19c1.19 0 2.16-.97 2.16-2.16 0-1.19-.97-2.16-2.16-2.16-1.19 0-2.16.97-2.16 2.16 0 1.19.97 2.16 2.16 2.16z"/>
</svg>
