<svg xmlns="http://www.w3.org/2000/svg" fill="none" viewBox="0 0 24 24" stroke="currentColor" aria-hidden="true">
  <path stroke-linecap="round" stroke-linejoin="round" stroke-width="1.5" d="M12.14 15.07v-1.96c0-2.52 2.04-4.57 4.57-4.57h1.96"/>
  <path stroke-linecap="round" stroke-linejoin="round" stroke-width="1.5" d="M5.62 8.55h1.96c2.52 0 4.57 2.04 4.57 4.57v4.13"/>
  <path stroke-linecap="round" stroke-linejoin="round" stroke-width="1.5" d="M7.14 6.75l-1.8 1.8 1.8 1.8M16.86 6.75l1.8 1.8-1.8 1.8"/>
  <path stroke-linecap="round" stroke-linejoin="round" stroke-width="1.5" d="M2 9c0-5 2-7 7-7h6c5 0 7 2 7 7v6c0 5-2 7-7 7H9c-5 0-7-2-7-7v-1.98"/>
</svg>
