<svg xmlns="http://www.w3.org/2000/svg" fill="none" viewBox="0 0 24 24" stroke="currentColor" aria-hidden="true">
  <path stroke-linecap="round" stroke-linejoin="round" stroke-miterlimit="10" stroke-width="1.5" d="M22 12v.97c0 4-2 6-6 6h-.5c-.31 0-.61.15-.8.4l-1.5 2c-.66.88-1.74.88-2.4 0l-1.5-2c-.17-.22-.53-.4-.8-.4H8c-4 0-6-1-6-6v-5c0-4 2-6 6-6h8c4 0 6 2 6 6"/>
  <path stroke-linecap="round" stroke-linejoin="round" stroke-miterlimit="10" stroke-width="1.5" d="M8 8.7l-2 2 2 2M16 8.7l2 2-2 2M13 8.37l-2 4.66"/>
</svg>
