<svg xmlns="http://www.w3.org/2000/svg" fill="none" viewBox="0 0 24 24" stroke="currentColor" aria-hidden="true">
  <path stroke-linecap="round" stroke-linejoin="round" stroke-width="1.5" d="M6.73 14.97c-.08-.4-.12-.85-.12-1.36v-3.23c0-2.69 1.08-3.77 3.77-3.77h3.23c2.69 0 3.77 1.08 3.77 3.77v3.23c0 2.69-1.08 3.77-3.77 3.77h-3.23"/>
  <path stroke-linecap="round" stroke-linejoin="round" stroke-width="1.5" d="M22 5.77V9c0 2.69-1.08 3.77-3.77 3.77h-.85v-2.38c0-2.69-1.08-3.77-3.77-3.77h-2.38v-.85C11.23 3.08 12.31 2 15 2h3.23C20.92 2 22 3.08 22 5.77zM12.77 17.38v.85C12.77 20.92 11.69 22 9 22H5.77C3.08 22 2 20.92 2 18.23V15c0-2.69 1.08-3.77 3.77-3.77h.85"/>
</svg>
