<svg xmlns="http://www.w3.org/2000/svg" fill="none" viewBox="0 0 24 24" stroke="currentColor" aria-hidden="true">
  <path stroke-linecap="round" stroke-linejoin="round" stroke-miterlimit="10" stroke-width="1.5" d="M22 13.14V15c0 3.5-2 5-5 5H8.5M2 15.3V9c0-3.5 2-5 5-5h10c3 0 5 1.5 5 5"/>
  <path stroke-linecap="round" stroke-linejoin="round" stroke-miterlimit="10" stroke-width="1.5" d="M14.5 12a2.5 2.5 0 00-5 0 2.5 2.5 0 002.5 2.5M18.5 9.5v5M9 18c0 .75-.21 1.46-.58 2.06A3.97 3.97 0 015 22a3.97 3.97 0 01-3.42-1.94A3.92 3.92 0 011 18c0-2.21 1.79-4 4-4s4 1.79 4 4zM6.49 17.98H3.51M5 16.52v2.99"/>
</svg>
