<svg xmlns="http://www.w3.org/2000/svg" fill="none" viewBox="0 0 24 24" stroke="currentColor" aria-hidden="true">
  <path stroke-linecap="round" stroke-linejoin="round" stroke-width="1.5" d="M2 13.02V15c0 5 2 7 7 7h6c5 0 7-2 7-7V9c0-5-2-7-7-7H9C4 2 2 4 2 9M7.8 13.8V9.6"/>
  <path stroke-linecap="round" stroke-linejoin="round" stroke-width="1.5" d="M7.95 18a1.95 1.95 0 100-3.9 1.95 1.95 0 000 3.9zM7.8 9.6a1.8 1.8 0 100-3.6 1.8 1.8 0 000 3.6zM16.2 9.6a1.8 1.8 0 100-3.6 1.8 1.8 0 000 3.6zM7.88 13.8a2.425 2.425 0 012.36-1.82l2.06.01c1.57.01 2.91-1 3.4-2.41"/>
</svg>
