<svg xmlns="http://www.w3.org/2000/svg" fill="none" viewBox="0 0 24 24" stroke="currentColor" aria-hidden="true">
  <path stroke-linecap="round" stroke-linejoin="round" stroke-width="1.5" d="M1.98 13h3.79a2 2 0 011.79 1.11l.89 1.79C9 17 10 17 10.24 17h3.53a2 2 0 001.79-1.11l.89-1.79a2 2 0 011.79-1.11h3.74M19 2c-1.66 0-3 1.34-3 3s1.34 3 3 3 3-1.34 3-3c0-.34-.06-.68-.16-.98"/>
  <path stroke-linecap="round" stroke-linejoin="round" stroke-width="1.5" d="M2.69 19c.96 2.1 2.96 3 6.31 3h6c5 0 7-2 7-7v-5M14 2H9C4 2 2 4 2 9v6"/>
</svg>
