<svg xmlns="http://www.w3.org/2000/svg" fill="none" viewBox="0 0 24 24" stroke="currentColor" aria-hidden="true">
  <path stroke-linecap="round" stroke-linejoin="round" stroke-miterlimit="10" stroke-width="1.5" d="M2 11.56v1.87c0 3 2 5 5 5h4l4.45 2.96a.997.997 0 001.55-.83v-2.13c3 0 5-2 5-5v-6c0-3-2-5-5-5H7c-3 0-5 2-5 5"/>
  <path stroke-linecap="round" stroke-linejoin="round" stroke-width="1.5" d="M12 11.36v-.21c0-.68.42-1.04.84-1.33.41-.28.82-.64.82-1.3 0-.92-.74-1.66-1.66-1.66-.92 0-1.66.74-1.66 1.66M11.995 13.75h.01"/>
</svg>
