<svg xmlns="http://www.w3.org/2000/svg" fill="none" viewBox="0 0 24 24" stroke="currentColor" aria-hidden="true">
  <path stroke-linecap="round" stroke-linejoin="round" stroke-width="1.5" d="M4 14.96V5.1C4 3.4 5.39 2 7.1 2h9.8C18.6 2 20 3.39 20 5.1v13.8c0 1.7-1.39 3.1-3.1 3.1H7.1C5.4 22 4 20.61 4 18.9"/>
  <path stroke-linecap="round" stroke-linejoin="round" stroke-width="1.5" d="M18.5 13c.83 0 1.5-.67 1.5-1.5v-2c0-.83-.67-1.5-1.5-1.5h-13C4.67 8 4 8.67 4 9.5v2c0 .83.67 1.5 1.5 1.5h8.53M9.5 5h5"/>
  <path stroke-linecap="round" stroke-linejoin="round" stroke-width="2.5" d="M8.495 17.7h.008M15.495 17.7h.009"/>
</svg>
