<svg xmlns="http://www.w3.org/2000/svg" viewBox="0 0 24 24" fill="currentColor" aria-hidden="true">
  <path d="M21.03 22h-7.04a.749.749 0 110-1.5h7.04a.749.749 0 110 1.5z"/>
  <path d="M15.41 16.34l-4.75 4.75a3.027 3.027 0 01-4.07.18c-.07-.06-.13-.12-.19-.18l-.87-.87-1.79-1.79-.86-.86c-.07-.07-.13-.14-.19-.21a3.01 3.01 0 01.19-4.04l3.69-3.68 1.06-1.06 7.78 7.76z" opacity=".4"/>
  <path d="M21.12 10.64l-5.71 5.7-7.78-7.76 5.71-5.7a3.024 3.024 0 014.26 0l3.52 3.51a3.012 3.012 0 010 4.25z"/>
</svg>
