<svg xmlns="http://www.w3.org/2000/svg" viewBox="0 0 24 24" fill="currentColor" aria-hidden="true">
  <path d="M12 22c5.523 0 10-4.477 10-10S17.523 2 12 2 2 6.477 2 12s4.477 10 10 10z" opacity=".4"/>
  <path d="M12 4.25c-1.69 0-3.3.54-4.65 1.55a.75.75 0 00.9 1.2A6.173 6.173 0 0112 5.75c3.45 0 6.25 2.8 6.25 6.25s-2.8 6.25-6.25 6.25-6.25-2.8-6.25-6.25c0-.84.17-1.67.49-2.44l1.14.65A4.95 4.95 0 007.04 12c0 2.73 2.22 4.95 4.95 4.95s4.95-2.22 4.95-4.95a4.955 4.955 0 00-7.06-4.48c-.37.18-.54.62-.36 1 .18.37.62.53 1 .36.46-.22.95-.33 1.47-.33 1.9 0 3.45 1.55 3.45 3.45 0 1.9-1.55 3.45-3.45 3.45-1.9 0-3.45-1.55-3.45-3.45 0-.35.07-.69.17-1.02l2.91 1.67c.36.21.82.08 1.02-.28.21-.36.08-.82-.28-1.02L6.29 7.86a.741.741 0 00-1.02.28A7.77 7.77 0 004.24 12c0 4.27 3.48 7.75 7.75 7.75s7.75-3.48 7.75-7.75S16.27 4.25 12 4.25z"/>
</svg>
