<svg xmlns="http://www.w3.org/2000/svg" viewBox="0 0 24 24" fill="currentColor" aria-hidden="true">
  <path d="M10.29 10.34v8.07A3.6 3.6 0 016.7 22c-1.98 0-3.59-1.61-3.59-3.59 0-1.97 1.61-3.58 3.59-3.58.83 0 1.58.29 2.19.76v-4.85l1.4-.4zM20.89 7.32v9.16c0 1.98-1.61 3.59-3.59 3.59a3.6 3.6 0 01-3.59-3.59c0-1.97 1.62-3.58 3.59-3.58.84 0 1.59.29 2.2.77V7.72l1.39-.4z"/>
  <path d="M20.89 5.18v2.14l-12 3.42V6.75c0-1.47.89-2.61 2.3-2.99l5.78-1.58c1.17-.32 2.16-.21 2.86.33.71.53 1.06 1.43 1.06 2.67z" opacity=".4"/>
</svg>
