<svg xmlns="http://www.w3.org/2000/svg" viewBox="0 0 24 24" fill="currentColor" aria-hidden="true">
  <path d="M16.19 2H7.82C4.18 2 2.01 4.17 2.01 7.81v8.37c0 3.64 2.17 5.81 5.81 5.81h8.37c3.64 0 5.81-2.17 5.81-5.81V7.81C22 4.17 19.83 2 16.19 2z" opacity=".4"/>
  <path d="M15.81 7.22h-1.49c-1.09 0-1.94.85-1.94 1.94v1.49c0 1.09.85 1.94 1.94 1.94h1.91c-.08 1.81-.5 2.08-1.71 2.79-.36.21-.47.67-.26 1.03.14.24.39.37.65.37.13 0 .26-.03.38-.1 1.79-1.06 2.46-1.75 2.46-4.83V9.18c0-1.09-.87-1.96-1.94-1.96zM9.68 7.22H8.19c-1.09 0-1.94.85-1.94 1.94v1.49c0 1.09.85 1.94 1.94 1.94h1.91c-.08 1.81-.5 2.08-1.71 2.79-.36.21-.47.67-.26 1.03.14.24.39.37.65.37.13 0 .26-.03.38-.1 1.79-1.06 2.46-1.75 2.46-4.83V9.18c-.01-1.09-.88-1.96-1.94-1.96z"/>
</svg>
