<svg xmlns="http://www.w3.org/2000/svg" viewBox="0 0 24 24" fill="currentColor" aria-hidden="true">
  <path d="M22 13.85a.67.67 0 01-.38-.11l-2.5-1.5c-1.3-.78-2.92-.78-4.23 0a5.587 5.587 0 01-5.77 0c-1.3-.78-2.92-.78-4.23 0l-2.5 1.5a.751.751 0 11-.77-1.29l2.5-1.5a5.587 5.587 0 015.77 0c1.3.78 2.92.78 4.23 0a5.587 5.587 0 015.77 0l2.5 1.5c.36.21.47.67.26 1.03a.77.77 0 01-.65.37z" opacity=".4"/>
  <path d="M7 6.85c-1 0-2-.27-2.89-.8l-2.5-1.5a.749.749 0 01-.26-1.03c.21-.36.67-.47 1.03-.26l2.5 1.5c1.3.78 2.92.78 4.23 0a5.587 5.587 0 015.77 0c1.3.78 2.92.78 4.23 0l2.5-1.5a.751.751 0 11.77 1.29l-2.5 1.5a5.587 5.587 0 01-5.77 0c-1.3-.78-2.92-.78-4.23 0-.88.53-1.88.8-2.88.8zM22 20.85a.67.67 0 01-.38-.11l-2.5-1.5c-1.3-.78-2.92-.78-4.23 0a5.587 5.587 0 01-5.77 0c-1.3-.78-2.92-.78-4.23 0l-2.5 1.5a.751.751 0 11-.77-1.29l2.5-1.5a5.587 5.587 0 015.77 0c1.3.78 2.92.78 4.23 0a5.587 5.587 0 015.77 0l2.5 1.5c.36.21.47.67.26 1.03a.77.77 0 01-.65.37z"/>
</svg>
