<svg xmlns="http://www.w3.org/2000/svg" viewBox="0 0 24 24" fill="currentColor" aria-hidden="true">
  <path d="M19.53 5.53l-14 14c-.02.02-.03.03-.05.04-.38-.32-.73-.67-1.05-1.05A9.903 9.903 0 012 12C2 6.48 6.48 2 12 2c2.49 0 4.77.91 6.52 2.43.38.32.73.67 1.05 1.05-.01.02-.02.03-.04.05zM22 12c0 5.52-4.48 10-10 10-1.99 0-3.84-.58-5.4-1.6L20.4 6.6A9.815 9.815 0 0122 12z" opacity=".4"/>
  <path d="M21.77 2.23c-.3-.3-.79-.3-1.09 0L2.23 20.69c-.3.3-.3.79 0 1.09a.758.758 0 001.08-.01L21.77 3.31c.31-.3.31-.78 0-1.08z"/>
</svg>
