<svg xmlns="http://www.w3.org/2000/svg" viewBox="0 0 24 24" fill="currentColor" aria-hidden="true">
  <path d="M13.3 8.11l1.32 2.64c.18.36.66.72 1.06.78l2.39.4c1.53.26 1.89 1.36.79 2.46L17 16.25c-.31.31-.49.92-.39 1.36l.53 2.31c.42 1.82-.55 2.53-2.16 1.58l-2.24-1.33c-.41-.24-1.07-.24-1.48 0L9.02 21.5c-1.61.95-2.58.24-2.16-1.58l.53-2.31c.1-.43-.08-1.04-.39-1.36l-1.86-1.86c-1.1-1.1-.74-2.21.79-2.46l2.39-.4c.4-.07.88-.42 1.06-.78l1.32-2.64c.71-1.43 1.89-1.43 2.6 0z"/>
  <path d="M6 9.75c-.41 0-.75-.34-.75-.75V2c0-.41.34-.75.75-.75s.75.34.75.75v7c0 .41-.34.75-.75.75zM18 9.75c-.41 0-.75-.34-.75-.75V2c0-.41.34-.75.75-.75s.75.34.75.75v7c0 .41-.34.75-.75.75zM12 4.75c-.41 0-.75-.34-.75-.75V2c0-.41.34-.75.75-.75s.75.34.75.75v2c0 .41-.34.75-.75.75z" opacity=".4"/>
</svg>
