<svg xmlns="http://www.w3.org/2000/svg" viewBox="0 0 24 24" fill="currentColor" aria-hidden="true">
  <path d="M19 8a3 3 0 100-6 3 3 0 000 6z"/>
  <path d="M19 9.5c-2.48 0-4.5-2.02-4.5-4.5 0-.72.19-1.39.49-2H7.52C4.07 3 2 5.06 2 8.52v7.95C2 19.94 4.07 22 7.52 22h7.95c3.46 0 5.52-2.06 5.52-5.52V9.01c-.6.3-1.27.49-1.99.49z" opacity=".4"/>
  <path d="M11.75 14h-5c-.41 0-.75-.34-.75-.75s.34-.75.75-.75h5c.41 0 .75.34.75.75s-.34.75-.75.75zM15.75 18h-9c-.41 0-.75-.34-.75-.75s.34-.75.75-.75h9c.41 0 .75.34.75.75s-.34.75-.75.75z"/>
</svg>
