<svg xmlns="http://www.w3.org/2000/svg" viewBox="0 0 24 24" fill="currentColor" aria-hidden="true">
  <path d="M11 19.9V4.1C11 2.6 10.36 2 8.77 2H4.73C3.14 2 2.5 2.6 2.5 4.1v15.8c0 1.5.64 2.1 2.23 2.1h4.04c1.59 0 2.23-.6 2.23-2.1z"/>
  <path d="M21.5 19.64v-4.28c0-1.3-1-2.36-2.23-2.36h-4.04C14 13 13 14.06 13 15.36v4.28c0 1.3 1 2.36 2.23 2.36h4.04c1.23 0 2.23-1.06 2.23-2.36zM21.5 8.64V4.36c0-1.3-1-2.36-2.23-2.36h-4.04C14 2 13 3.06 13 4.36v4.28c0 1.3 1 2.36 2.23 2.36h4.04c1.23 0 2.23-1.06 2.23-2.36z" opacity=".4"/>
</svg>
