<svg xmlns="http://www.w3.org/2000/svg" viewBox="0 0 24 24" fill="currentColor" aria-hidden="true">
  <path d="M18.5 10v2.17c0 .53.21 1.04.59 1.42l.82.82c.38.38.59.89.59 1.42V17c0 3-1.53 5-5 5h-7c-3.53 0-5-2-5-5V7c0-2.92 1.4-4.9 4.74-4.99C8.32 2 8.41 2 8.5 2h7c.08 0 .16 0 .24.01 3.3.08 4.76 2.06 4.76 4.99v1c0 .55-.45 1-1 1s-1 .45-1 1z" opacity=".4"/>
  <path d="M9.74 2l-.05 2.96c-.01.41-.34.74-.75.74h-.01a.751.751 0 01-.74-.77l.05-2.92C8.32 2 8.41 2 8.5 2h1.24zM12.74 2l-.05 2.95c-.01.4-.34.73-.75.73h-.01a.749.749 0 01-.74-.76L11.24 2h1.5zM15.74 2.01l-.05 2.88c-.01.41-.34.74-.75.74h-.01a.749.749 0 01-.74-.76L14.24 2h1.26c.08 0 .16 0 .24.01zM16.02 21.98c-.17.01-.34.02-.51.02h-7c-.18 0-.35 0-.51-.02L7.98 19a2 2 0 012-2h4.01c1.1 0 1.99.89 2 1.99l.03 2.99z"/>
</svg>
