<svg xmlns="http://www.w3.org/2000/svg" viewBox="0 0 24 24" fill="currentColor" aria-hidden="true">
  <path d="M16 15v4c0 1.66-1.34 3-3 3h-2c-1.66 0-3-1.34-3-3v-4h8zM7 7V5c0-1.66 1.34-3 3-3h4c1.66 0 3 1.34 3 3v2H7z"/>
  <path d="M18 7H6c-2 0-3 1-3 3v5c0 2 1 3 3 3h2v-3h8v3h2c2 0 3-1 3-3v-5c0-2-1-3-3-3zm-8 4.75H7c-.41 0-.75-.34-.75-.75s.34-.75.75-.75h3c.41 0 .75.34.75.75s-.34.75-.75.75z" opacity=".4"/>
  <path d="M10.75 11c0 .41-.34.75-.75.75H7c-.41 0-.75-.34-.75-.75s.34-.75.75-.75h3c.41 0 .75.34.75.75zM17 15.75H7c-.41 0-.75-.34-.75-.75s.34-.75.75-.75h10c.41 0 .75.34.75.75s-.34.75-.75.75z"/>
</svg>
