<svg xmlns="http://www.w3.org/2000/svg" viewBox="0 0 24 24" fill="currentColor" aria-hidden="true">
  <path d="M14.9 2H9.1c-.68 0-1.64.4-2.12.88l-4.1 4.1C2.4 7.46 2 8.42 2 9.1v5.8c0 .68.4 1.64.88 2.12l4.1 4.1c.48.48 1.44.88 2.12.88h5.8c.68 0 1.64-.4 2.12-.88l4.1-4.1c.48-.48.88-1.44.88-2.12V9.1c0-.68-.4-1.64-.88-2.12l-4.1-4.1C16.54 2.4 15.58 2 14.9 2z" opacity=".4"/>
  <path d="M13.06 12l2.97-2.97c.29-.29.29-.77 0-1.06a.754.754 0 00-1.06 0L12 10.94 9.03 7.97a.754.754 0 00-1.06 0c-.29.29-.29.77 0 1.06L10.94 12l-2.97 2.97c-.29.29-.29.77 0 1.06.15.15.34.22.53.22s.38-.07.53-.22L12 13.06l2.97 2.97c.15.15.34.22.53.22s.38-.07.53-.22c.29-.29.29-.77 0-1.06L13.06 12z"/>
</svg>
