<svg xmlns="http://www.w3.org/2000/svg" viewBox="0 0 24 24" fill="currentColor" aria-hidden="true">
  <path d="M19.5 7.5l-1.49 1.49-3-3L16.5 4.5c.42-.42.96-.62 1.5-.62s1.08.2 1.5.62c.83.83.83 2.17 0 3z"/>
  <path d="M18.01 8.99L6.5 20.5c-.83.83-2.17.83-3 0-.83-.83-.83-2.17 0-3L15.01 5.99l3 3z" opacity=".4"/>
  <path d="M9.95 3.5l.41-1.39c.04-.13 0-.27-.09-.37a.38.38 0 00-.38-.1l-1.39.41-1.39-.41c-.13-.04-.27 0-.37.09-.1.1-.13.24-.09.37l.4 1.4-.41 1.39c-.04.13 0 .27.09.37.1.1.24.13.37.09l1.4-.4 1.39.41c.04.01.07.02.11.02.1 0 .19-.04.27-.11.1-.1.13-.24.09-.37l-.41-1.4zM5.95 9.5l.41-1.39c.04-.13 0-.27-.09-.37-.1-.1-.24-.13-.37-.09l-1.4.4-1.39-.41c-.13-.04-.27 0-.37.09-.1.1-.13.24-.09.37l.4 1.4-.41 1.39c-.04.13 0 .27.09.37.1.1.24.13.37.09l1.39-.41 1.39.41c.03.01.07.01.11.01.1 0 .19-.04.27-.11.1-.1.13-.24.09-.37l-.4-1.38zM20.95 14.5l.41-1.39c.04-.13 0-.27-.09-.37-.1-.1-.24-.13-.37-.09l-1.39.41-1.39-.41c-.13-.04-.27 0-.37.09-.1.1-.13.24-.09.37l.41 1.39-.41 1.39c-.04.13 0 .27.09.37.1.1.24.13.37.09l1.39-.41 1.39.41c.03.01.07.01.11.01.1 0 .19-.04.27-.11.1-.1.13-.24.09-.37l-.42-1.38z"/>
</svg>
