<svg xmlns="http://www.w3.org/2000/svg" viewBox="0 0 24 24" fill="currentColor" aria-hidden="true">
  <path d="M21.25 5.15v2.7c0 1.84-.56 2.4-2.4 2.4h-2.7c-1.84 0-2.4-.56-2.4-2.4v-2.7c0-1.84.56-2.4 2.4-2.4h2.7c1.84 0 2.4.56 2.4 2.4zM10.25 16.15v2.7c0 1.84-.56 2.4-2.4 2.4h-2.7c-1.84 0-2.4-.56-2.4-2.4v-2.7c0-1.84.56-2.4 2.4-2.4h2.7c1.84 0 2.4.56 2.4 2.4z" opacity=".4"/>
  <path d="M16.63 11.75v1.87c0 2.28-.73 3.01-3.01 3.01h-1.87v-.48c0-2.66-1.24-3.9-3.9-3.9h-.48v-1.87c0-2.28.73-3.01 3.01-3.01h1.87v.48c0 2.66 1.24 3.9 3.9 3.9h.48z"/>
</svg>
