<svg xmlns="http://www.w3.org/2000/svg" viewBox="0 0 24 24" fill="currentColor" aria-hidden="true">
  <path d="M12 22c5.523 0 10-4.477 10-10S17.523 2 12 2 2 6.477 2 12s4.477 10 10 10z" opacity=".4"/>
  <path d="M6 14.89c-.41 0-.75-.34-.75-.75V9.85c0-.41.34-.75.75-.75s.75.34.75.75v4.29c0 .42-.34.75-.75.75zM9 16.32c-.41 0-.75-.34-.75-.75V8.43c0-.41.34-.75.75-.75s.75.34.75.75v7.14c0 .42-.34.75-.75.75zM12 17.75c-.41 0-.75-.34-.75-.75V7c0-.41.34-.75.75-.75s.75.34.75.75v10c0 .41-.34.75-.75.75zM15 16.32c-.41 0-.75-.34-.75-.75V8.43c0-.41.34-.75.75-.75s.75.34.75.75v7.14c0 .42-.34.75-.75.75zM18 14.89c-.41 0-.75-.34-.75-.75V9.85c0-.41.34-.75.75-.75s.75.34.75.75v4.29c0 .42-.34.75-.75.75z"/>
</svg>
