<svg xmlns="http://www.w3.org/2000/svg" viewBox="0 0 24 24" fill="currentColor" aria-hidden="true">
  <path d="M21.99 6.02c.02.24 0 .49-.06.74l-3.37 13.53A2.227 2.227 0 0116.38 22H3.24c-1.51 0-2.58-1.48-2.14-2.93L5.31 5.54c.29-.94 1.16-1.58 2.14-1.58h12.3c.96 0 1.74.57 2.07 1.37a2 2 0 01.17.69z" opacity=".4"/>
  <path d="M22.99 19.62A2.21 2.21 0 0120.78 22h-4.4c1.04 0 1.94-.7 2.18-1.71l3.37-13.53c.06-.25.08-.5.06-.74L22 6l.99 13.62zM9.68 7.13c-.06 0-.12-.01-.18-.02a.75.75 0 01-.55-.91l1.04-4.32c.1-.4.5-.64.91-.55.4.1.65.5.55.91l-1.04 4.32c-.08.34-.39.57-.73.57zM16.38 7.14c-.05 0-.11 0-.16-.02a.765.765 0 01-.58-.89l.94-4.34c.09-.41.49-.66.89-.58.4.09.66.49.58.89l-.94 4.34c-.07.36-.38.6-.73.6zM15.7 12.75h-8c-.41 0-.75-.34-.75-.75s.34-.75.75-.75h8c.41 0 .75.34.75.75s-.34.75-.75.75zM14.7 16.75h-8c-.41 0-.75-.34-.75-.75s.34-.75.75-.75h8c.41 0 .75.34.75.75s-.34.75-.75.75z"/>
</svg>
