<svg xmlns="http://www.w3.org/2000/svg" viewBox="0 0 24 24" fill="currentColor" aria-hidden="true">
  <path d="M16.19 2H7.82C4.18 2 2.01 4.17 2.01 7.81v8.37c0 3.64 2.17 5.81 5.81 5.81h8.37c3.64 0 5.81-2.17 5.81-5.81V7.81C22 4.17 19.83 2 16.19 2z" opacity=".4"/>
  <path d="M16.14 6.71c-.34-.26-.94-.51-1.9-.25l-2.99.82c-.93.25-1.54 1.04-1.54 2.01v3.78c-.21-.06-.42-.1-.65-.1-1.29 0-2.34 1.05-2.34 2.34 0 1.29 1.05 2.34 2.34 2.34a2.35 2.35 0 002.34-2.31c0-.01.01-.02.01-.03v-3.62l3.78-1.03v1.42c-.21-.06-.42-.1-.65-.1-1.29 0-2.34 1.05-2.34 2.34 0 1.29 1.05 2.34 2.34 2.34 1.29 0 2.34-1.05 2.34-2.34V8.49c0-1-.41-1.52-.74-1.78zm-7.08 9.25c-.36 0-.65-.29-.65-.65 0-.36.29-.65.65-.65.36 0 .65.29.65.65 0 .36-.29.65-.65.65zm5.48-1c-.36 0-.65-.29-.65-.65 0-.36.29-.65.65-.65.36 0 .65.29.65.65-.01.36-.3.65-.65.65z"/>
</svg>
