<svg xmlns="http://www.w3.org/2000/svg" viewBox="0 0 24 24" fill="currentColor" aria-hidden="true">
  <path d="M20.97 16h-2.94c-1.27 0-2.03.76-2.03 2.03v2.94c0 1.27.76 2.03 2.03 2.03h2.94c1.27 0 2.03-.76 2.03-2.03v-2.94c0-1.27-.76-2.03-2.03-2.03zm.66 2.45l-2.37 2.77a.49.49 0 01-.37.18h-.02c-.14 0-.27-.05-.37-.15l-1.09-1.08a.52.52 0 010-.73c.2-.2.53-.21.73 0l.7.69 2-2.34c.19-.22.51-.24.73-.06.22.18.24.51.06.72z"/>
  <path d="M16 20.97v-2.94c0-1.27.76-2.03 2.03-2.03h2.94c.4 0 .74.08 1.03.22V7.81C22 4.17 19.83 2 16.19 2H7.81C4.17 2 2 4.17 2 7.81v8.37C2 19.83 4.17 22 7.81 22H16.22c-.14-.29-.22-.63-.22-1.03z" opacity=".4"/>
  <path d="M7 14.25c-.41 0-.75-.34-.75-.75v-3c0-.41.34-.75.75-.75s.75.34.75.75v3c0 .41-.34.75-.75.75zM12 14.25c-.41 0-.75-.34-.75-.75v-3c0-.41.34-.75.75-.75s.75.34.75.75v3c0 .41-.34.75-.75.75zM17 14.25c-.41 0-.75-.34-.75-.75v-3c0-.41.34-.75.75-.75s.75.34.75.75v3c0 .41-.34.75-.75.75z"/>
</svg>
