<svg xmlns="http://www.w3.org/2000/svg" viewBox="0 0 24 24" fill="currentColor" aria-hidden="true">
  <path d="M11.15 5.19l-.78-.78c-.47-.47-.47-1.23 0-1.7l.78-.78c.47-.47 1.23-.47 1.7 0l.78.78c.47.47.47 1.23 0 1.7l-.78.78c-.47.47-1.23.47-1.7 0z"/>
  <path d="M12 5.91c-.4 0-.81-.15-1.11-.46l-.78-.78c-.61-.61-.61-1.61 0-2.23l.78-.78c.59-.6 1.63-.59 2.23 0l.78.78c.61.61.61 1.61 0 2.23l-.78.78c-.31.31-.72.46-1.12.46zm0-3.95c-.21 0-.42.08-.58.24l-.78.78c-.32.32-.32.85 0 1.17l.78.78c.32.32.84.32 1.17 0l.78-.78c.32-.32.32-.84 0-1.17l-.78-.78a.858.858 0 00-.59-.24zM19.45 9.81h1.1c.66 0 1.2.54 1.2 1.2v1.1c0 .66-.54 1.2-1.2 1.2h-1.1c-.66 0-1.2-.54-1.2-1.2v-1.1c0-.66.54-1.2 1.2-1.2z"/>
  <path d="M20.55 13.69h-1.1c-.87 0-1.58-.71-1.58-1.58v-1.1c0-.87.71-1.58 1.58-1.58h1.1c.87 0 1.58.71 1.58 1.58v1.1a1.59 1.59 0 01-1.58 1.58zm-1.1-3.5c-.46 0-.83.37-.83.83v1.1c0 .46.37.83.83.83h1.1c.46 0 .83-.37.83-.83v-1.1c0-.46-.37-.83-.83-.83h-1.1zM4.55 9.81h-1.1c-.66 0-1.2.54-1.2 1.2v1.1c0 .66.54 1.2 1.2 1.2h1.1c.66 0 1.2-.54 1.2-1.2v-1.1c0-.66-.54-1.2-1.2-1.2z"/>
  <path d="M4.55 13.69h-1.1c-.87 0-1.58-.71-1.58-1.58v-1.1c0-.87.71-1.58 1.58-1.58h1.1c.87 0 1.58.71 1.58 1.58v1.1a1.59 1.59 0 01-1.58 1.58zm-1.1-3.5c-.46 0-.83.37-.83.83v1.1c0 .46.37.83.83.83h1.1c.46 0 .83-.37.83-.83v-1.1c0-.46-.37-.83-.83-.83h-1.1z"/>
  <path fill-rule="evenodd" d="M12.71 4.27a.75.75 0 011.06 0l5.3 5.3a.75.75 0 11-1.06 1.06l-5.3-5.3a.75.75 0 010-1.06zM11.291 4.27a.75.75 0 010 1.06l-5.3 5.3a.75.75 0 11-1.06-1.06l5.3-5.3a.75.75 0 011.06 0z" clip-rule="evenodd"/>
  <path d="M13.26 22.01H10.7c-.92 0-1.6-.74-1.43-1.54l.42-1.85h4.59l.42 1.85c.19.85-.46 1.54-1.44 1.54z"/>
  <path d="M16.04 17.05l-1.77 1.57H9.68l-1.77-1.57c-1.03-.84-1.03-1.49-.25-2.48l3.12-3.94c.22-.27.47-.46.74-.55.29-.1.61-.1.9 0 .27.1.52.28.74.55l3.12 3.94c.79.99.75 1.61-.24 2.48z" opacity=".4"/>
</svg>
