<svg xmlns="http://www.w3.org/2000/svg" viewBox="0 0 24 24" fill="currentColor" aria-hidden="true">
  <path d="M21.23 7.62h-5.54c-.38 0-.69-.31-.69-.7 0-.38.31-.69.69-.69h5.54c.38 0 .69.31.69.69 0 .39-.31.7-.69.7zM6.46 7.62H2.77c-.38 0-.69-.31-.69-.69 0-.38.31-.69.69-.69h3.69c.38 0 .69.31.69.69 0 .38-.31.69-.69.69z" opacity=".4"/>
  <path d="M10.15 10.84a3.92 3.92 0 100-7.84 3.92 3.92 0 000 7.84z"/>
  <path d="M21.23 17.77h-3.69c-.38 0-.69-.31-.69-.69 0-.38.31-.69.69-.69h3.69c.38 0 .69.31.69.69 0 .38-.31.69-.69.69zM8.31 17.77H2.77c-.38 0-.69-.31-.69-.69 0-.38.31-.69.69-.69h5.54c.38 0 .69.31.69.69 0 .38-.31.69-.69.69z" opacity=".4"/>
  <path d="M13.85 21a3.92 3.92 0 100-7.84 3.92 3.92 0 000 7.84z"/>
</svg>
