<svg xmlns="http://www.w3.org/2000/svg" viewBox="0 0 24 24" fill="currentColor" aria-hidden="true">
  <path d="M18.48 12.25a.5.5 0 00.5-.52 6.998 6.998 0 00-13.96 0 .5.5 0 00.5.52h12.96zM22 13h-.08c-.55 0-1-.45-1-1s.45-1 1-1 1.04.45 1.04 1-.41 1-.96 1zM2.08 13H2c-.55 0-1-.45-1-1s.45-1 1-1 1.04.45 1.04 1-.41 1-.96 1zm16.93-7.01c-.26 0-.51-.1-.71-.29a.996.996 0 010-1.41l.13-.13a.996.996 0 111.41 1.41l-.13.13c-.19.19-.44.29-.7.29zm-14.02 0c-.26 0-.51-.1-.71-.29l-.13-.13a.996.996 0 111.41-1.41l.13.13a.996.996 0 01-.7 1.7zM12 3.04c-.55 0-1-.41-1-.96V2c0-.55.45-1 1-1s1 .45 1 1-.45 1.04-1 1.04z"/>
  <path d="M20 15.75H4c-.41 0-.75-.34-.75-.75s.34-.75.75-.75h16c.41 0 .75.34.75.75s-.34.75-.75.75zM18 18.75H6c-.41 0-.75-.34-.75-.75s.34-.75.75-.75h12c.41 0 .75.34.75.75s-.34.75-.75.75zM15 21.75H9c-.41 0-.75-.34-.75-.75s.34-.75.75-.75h6c.41 0 .75.34.75.75s-.34.75-.75.75z" opacity=".4"/>
</svg>
