<svg xmlns="http://www.w3.org/2000/svg" viewBox="0 0 24 24" fill="currentColor" aria-hidden="true">
  <path d="M21 5.25H3c-.41 0-.75-.34-.75-.75s.34-.75.75-.75h18c.41 0 .75.34.75.75s-.34.75-.75.75z"/>
  <path d="M21 10.25h-9.47c-.41 0-.75-.34-.75-.75s.34-.75.75-.75H21c.41 0 .75.34.75.75s-.34.75-.75.75z" opacity=".4"/>
  <path d="M21 15.25H3c-.41 0-.75-.34-.75-.75s.34-.75.75-.75h18c.41 0 .75.34.75.75s-.34.75-.75.75z"/>
  <path d="M21 20.25h-9.47c-.41 0-.75-.34-.75-.75s.34-.75.75-.75H21c.41 0 .75.34.75.75s-.34.75-.75.75z" opacity=".4"/>
</svg>
