<svg xmlns="http://www.w3.org/2000/svg" viewBox="0 0 24 24" fill="currentColor" aria-hidden="true">
  <path d="M18.5 22.75a4.26 4.26 0 01-4.25-4.25V18c0-.41.34-.75.75-.75s.75.34.75.75v.5c0 1.52 1.23 2.75 2.75 2.75s2.75-1.23 2.75-2.75-1.23-2.75-2.75-2.75H2c-.41 0-.75-.34-.75-.75s.34-.75.75-.75h16.5a4.26 4.26 0 014.25 4.25 4.26 4.26 0 01-4.25 4.25z"/>
  <path d="M18.5 12.75H2c-.41 0-.75-.34-.75-.75s.34-.75.75-.75h16.5c1.52 0 2.75-1.23 2.75-2.75s-1.23-2.75-2.75-2.75-2.75 1.23-2.75 2.75V9c0 .41-.34.75-.75.75s-.75-.34-.75-.75v-.5a4.26 4.26 0 014.25-4.25 4.26 4.26 0 014.25 4.25 4.26 4.26 0 01-4.25 4.25z" opacity=".4"/>
  <path d="M9.31 9.75H2c-.41 0-.75-.34-.75-.75s.34-.75.75-.75h7.31c1.07 0 1.94-.87 1.94-1.94 0-1.07-.87-1.94-1.94-1.94-1.07 0-1.94.87-1.94 1.94v.38a.749.749 0 11-1.5 0v-.38a3.44 3.44 0 113.44 3.44z"/>
</svg>
