<svg xmlns="http://www.w3.org/2000/svg" viewBox="0 0 24 24" fill="currentColor" aria-hidden="true">
  <path d="M16.8 2H6.21c-2.32 0-4.2 1.88-4.2 4.19v6.37c0 2.32 1.88 4.19 4.19 4.19h3.6c.55 0 1 .45 1 1v.82c0 .55-.45 1-1 1H7.55c-.39 0-.71.32-.71.71 0 .39.32.71.71.71h7.93c.39 0 .71-.32.71-.71 0-.39-.32-.71-.71-.71h-2.25c-.55 0-1-.45-1-1v-.82c0-.55.45-1 1-1h3.57c2.32 0 4.19-1.88 4.19-4.19V6.19C20.99 3.88 19.11 2 16.8 2z" opacity=".4"/>
  <path d="M19.64 9.5h-5.29c-1.73 0-2.36.63-2.36 2.38v7.73c0 1.76.62 2.38 2.36 2.38h5.29c1.73 0 2.36-.63 2.36-2.38v-7.73c0-1.76-.62-2.38-2.36-2.38zM17 20.32c-.61 0-1.1-.49-1.1-1.1 0-.61.49-1.1 1.1-1.1.61 0 1.1.49 1.1 1.1 0 .61-.49 1.1-1.1 1.1z"/>
  <path d="M18.1 19.22c0 .61-.49 1.1-1.1 1.1-.61 0-1.1-.49-1.1-1.1 0-.61.49-1.1 1.1-1.1.61 0 1.1.5 1.1 1.1z" opacity=".4"/>
</svg>
