<svg xmlns="http://www.w3.org/2000/svg" viewBox="0 0 24 24" fill="currentColor" aria-hidden="true">
  <path d="M21.25 22H2.75c-.41 0-.75-.34-.75-.75s.34-.75.75-.75h18.5c.41 0 .75.34.75.75s-.34.75-.75.75z"/>
  <path d="M20.59 13.7l-7.23 7.23a3.618 3.618 0 01-5.12.01l-4.61-4.61L15.99 3.97l4.61 4.61a3.618 3.618 0 01-.01 5.12z" opacity=".4"/>
  <path d="M15.99 3.97L3.62 16.33l-.91-.91a3.618 3.618 0 01.01-5.12l7.23-7.23a3.618 3.618 0 015.12-.01l.92.91zM12.89 17.6l-1.35 1.35c-.28.28-.73.28-1.01 0a.712.712 0 010-1.01l1.35-1.35c.28-.28.73-.28 1.01 0s.28.73 0 1.01zM17.27 13.22l-2.69 2.69c-.28.28-.73.28-1.01 0a.712.712 0 010-1.01l2.69-2.69c.28-.28.73-.28 1.01 0 .27.28.27.73 0 1.01z"/>
</svg>
