<svg xmlns="http://www.w3.org/2000/svg" viewBox="0 0 24 24" fill="currentColor" aria-hidden="true">
  <path d="M8 22h8c2.76 0 5-2.24 5-5V7c0-2.76-2.24-5-5-5H8C5.24 2 3 4.24 3 7v10c0 2.76 2.24 5 5 5z" opacity=".4"/>
  <path d="M15 5.71H9c-1.03 0-1.88.84-1.88 1.88v1c0 1.03.84 1.88 1.88 1.88h6c1.03 0 1.88-.84 1.88-1.88v-1c0-1.04-.84-1.88-1.88-1.88zM8.16 14.92c-.14 0-.27-.03-.39-.08a1 1 0 01-.62-.92c0-.13.03-.26.08-.38A.998.998 0 018.54 13c.06.02.12.05.17.09.06.03.11.08.15.12.09.1.17.2.22.33.05.12.07.25.07.38a.99.99 0 01-.99 1zM12.15 14.92c-.26 0-.51-.1-.7-.29a1 1 0 01-.3-.71c0-.26.11-.52.3-.71.37-.37 1.04-.37 1.41 0 .09.1.17.2.22.33.05.12.07.25.07.38a.99.99 0 01-1 1zM16.15 14.92c-.26 0-.51-.1-.7-.29a1 1 0 01-.3-.71c0-.26.11-.52.3-.71.37-.37 1.04-.37 1.41 0 .19.19.3.45.3.71 0 .13-.03.26-.08.38s-.12.23-.22.33a.99.99 0 01-.71.29zM8.16 18.92a.99.99 0 01-.71-.29 1 1 0 01-.3-.71c0-.26.11-.52.3-.71.09-.09.2-.16.32-.21.25-.1.52-.1.77 0 .06.02.12.05.17.09.06.03.11.08.15.12.19.19.3.45.3.71a1 1 0 01-.3.71c-.19.19-.44.29-.7.29zM12.15 18.92c-.26 0-.51-.1-.7-.29a1 1 0 01-.3-.71c0-.07.01-.13.02-.2l.06-.18.09-.18c.04-.05.08-.1.13-.15a1.017 1.017 0 011.41 0c.19.19.29.45.29.71 0 .27-.1.52-.29.71-.09.09-.2.16-.32.21-.12.05-.25.08-.39.08zM16.15 18.92c-.13 0-.26-.03-.38-.08a.988.988 0 01-.32-.21.99.99 0 01-.29-.71c0-.26.1-.52.29-.71.27-.28.72-.36 1.09-.21.12.05.23.12.32.21.19.19.29.45.29.71a.99.99 0 01-1 1z"/>
</svg>
