<svg xmlns="http://www.w3.org/2000/svg" viewBox="0 0 24 24" fill="currentColor" aria-hidden="true">
  <path d="M7.37 22h9.25a4.87 4.87 0 004.87-4.87V8.37a4.87 4.87 0 00-4.87-4.87H7.37A4.87 4.87 0 002.5 8.37v8.75c0 2.7 2.18 4.88 4.87 4.88z" opacity=".4"/>
  <path d="M8.29 6.29c-.42 0-.75-.34-.75-.75V2.75a.749.749 0 111.5 0v2.78c0 .42-.33.76-.75.76zM15.71 6.29c-.42 0-.75-.34-.75-.75V2.75a.749.749 0 111.5 0v2.78c0 .42-.33.76-.75.76zM12 14.75h-1.69V13c0-.41-.34-.75-.75-.75s-.75.34-.75.75v1.75H7c-.41 0-.75.34-.75.75s.34.75.75.75h1.81V18c0 .41.34.75.75.75s.75-.34.75-.75v-1.75H12c.41 0 .75-.34.75-.75s-.34-.75-.75-.75z"/>
</svg>
