<svg xmlns="http://www.w3.org/2000/svg" viewBox="0 0 24 24" fill="currentColor" aria-hidden="true">
  <path d="M16.19 2H7.82C4.18 2 2.01 4.17 2.01 7.81v8.37c0 3.64 2.17 5.81 5.81 5.81h8.37c3.64 0 5.81-2.17 5.81-5.81V7.81C22 4.17 19.83 2 16.19 2z" opacity=".4"/>
  <path d="M12.08 19c-.23 0-.41-.06-.51-.11-.23-.11-.77-.46-.77-1.44v-3.39l-2.9 2.65c-.3.28-.78.26-1.06-.05a.746.746 0 01.05-1.06l3.91-3.58v-.08L6.89 8.4a.746.746 0 01-.05-1.06c.28-.31.75-.33 1.06-.05l2.9 2.65V6.55c0-.98.54-1.34.77-1.44.23-.11.85-.29 1.6.34l2.41 2.01c.33.27.52.66.53 1.07.01.41-.16.81-.47 1.1L13.05 12l2.59 2.37c.31.29.49.69.48 1.1-.01.41-.2.8-.53 1.07l-2.41 2.01c-.43.35-.81.45-1.1.45zm.22-5.7v4.02l2.31-1.93-2.31-2.09zm0-6.62v3.96l2.31-2.12-2.31-1.84z"/>
  <path d="M6.62 13.38c-.76 0-1.38-.62-1.38-1.38 0-.76.62-1.38 1.38-1.38.76 0 1.38.62 1.38 1.38 0 .76-.62 1.38-1.38 1.38zm0-1.5c-.07 0-.12.06-.12.12 0 .14.25.14.25 0 0-.07-.06-.12-.13-.12zM17.38 13.38c-.76 0-1.38-.62-1.38-1.38 0-.76.62-1.38 1.38-1.38.76 0 1.38.62 1.38 1.38 0 .76-.63 1.38-1.38 1.38zm0-1.5c-.07 0-.12.06-.12.12 0 .14.25.14.25 0a.138.138 0 00-.13-.12z"/>
</svg>
