<svg xmlns="http://www.w3.org/2000/svg" viewBox="0 0 24 24" fill="currentColor" aria-hidden="true">
  <path d="M22 7.77V9H2V7.54C2 5.25 3.86 3.4 6.15 3.4H16v2.57C16 7.24 16.76 8 18.03 8h2.94c.4 0 .74-.07 1.03-.23z" opacity=".4"/>
  <path d="M2 9v7.46c0 2.29 1.86 4.14 4.15 4.14h11.7c2.29 0 4.15-1.85 4.15-4.14V9H2zm6 8.25H6c-.41 0-.75-.34-.75-.75s.34-.75.75-.75h2c.41 0 .75.34.75.75s-.34.75-.75.75zm6.5 0h-4c-.41 0-.75-.34-.75-.75s.34-.75.75-.75h4c.41 0 .75.34.75.75s-.34.75-.75.75zM20.97 1h-2.94C16.76 1 16 1.76 16 3.03v2.94C16 7.24 16.76 8 18.03 8h2.94C22.24 8 23 7.24 23 5.97V3.03C23 1.76 22.24 1 20.97 1zm.66 2.45l-2.37 2.77a.49.49 0 01-.37.18h-.02c-.14 0-.27-.05-.37-.15l-1.1-1.08a.52.52 0 010-.73c.2-.2.53-.21.73 0l.7.69 2-2.34c.19-.22.51-.24.73-.06.23.18.25.51.07.72z"/>
</svg>
