<svg xmlns="http://www.w3.org/2000/svg" viewBox="0 0 24 24" fill="currentColor" aria-hidden="true">
  <path d="M20 19.26h-9.07c-.45 0-.82-.37-.82-.82 0-.45.37-.82.82-.82H20c.45 0 .82.37.82.82 0 .46-.37.82-.82.82zM20 12.97h-9.07c-.45 0-.82-.37-.82-.82 0-.45.37-.82.82-.82H20c.45 0 .82.37.82.82 0 .45-.37.82-.82.82zM20 6.67h-9.07c-.45 0-.82-.37-.82-.82 0-.45.37-.82.82-.82H20c.45 0 .82.37.82.82 0 .45-.37.82-.82.82z"/>
  <path d="M4.91 8.03c-.22 0-.43-.09-.58-.24l-.91-.91a.82.82 0 011.16-1.16l.33.33 2.14-2.14a.82.82 0 011.16 1.16L5.49 7.79c-.16.15-.36.24-.58.24zM4.91 14.33c-.21 0-.42-.08-.58-.24l-.91-.91a.82.82 0 011.16-1.16l.33.33 2.14-2.14a.82.82 0 011.16 1.16l-2.72 2.72c-.16.16-.37.24-.58.24zM4.91 20.33c-.21 0-.42-.08-.58-.24l-.91-.91a.82.82 0 011.16-1.16l.33.33 2.14-2.14a.82.82 0 011.16 1.16l-2.72 2.72c-.16.16-.37.24-.58.24z" opacity=".4"/>
</svg>
