<svg xmlns="http://www.w3.org/2000/svg" viewBox="0 0 24 24" fill="currentColor" aria-hidden="true">
  <path d="M20.97 1h-2.94C16.76 1 16 1.76 16 3.03v2.94C16 7.24 16.76 8 18.03 8h2.94C22.24 8 23 7.24 23 5.97V3.03C23 1.76 22.24 1 20.97 1zm.22 3.31a.62.62 0 01-.44.18.62.62 0 01-.44-.18l-.18-.18v2.24c0 .35-.28.63-.63.63s-.63-.28-.63-.63V4.13l-.18.18c-.24.24-.64.24-.88 0a.628.628 0 010-.88l1.25-1.25c.05-.05.12-.09.19-.12.02-.01.04-.01.06-.02.05-.02.1-.03.16-.03h.06c.07 0 .13.01.2.04h.02c.07.03.13.07.18.12.01.01.01.01.02.01l1.25 1.25c.24.24.24.64-.01.88z"/>
  <path d="M22 7.77V9H2V7.54C2 5.25 3.86 3.4 6.15 3.4H16v2.57C16 7.24 16.76 8 18.03 8h2.94c.4 0 .74-.07 1.03-.23z" opacity=".4"/>
  <path d="M2 9v7.46c0 2.29 1.86 4.14 4.15 4.14h11.7c2.29 0 4.15-1.85 4.15-4.14V9H2zm6 8.25H6c-.41 0-.75-.34-.75-.75s.34-.75.75-.75h2c.41 0 .75.34.75.75s-.34.75-.75.75zm6.5 0h-4c-.41 0-.75-.34-.75-.75s.34-.75.75-.75h4c.41 0 .75.34.75.75s-.34.75-.75.75z"/>
</svg>
