<svg xmlns="http://www.w3.org/2000/svg" viewBox="0 0 24 24" fill="currentColor" aria-hidden="true">
  <path d="M21 22.75H3c-.41 0-.75-.34-.75-.75s.34-.75.75-.75h18c.41 0 .75.34.75.75s-.34.75-.75.75zM21 2.75H3c-.41 0-.75-.34-.75-.75s.34-.75.75-.75h18c.41 0 .75.34.75.75s-.34.75-.75.75z" opacity=".4"/>
  <path d="M14.3 15.36l-1.55 1.55V6.7l1.55 1.55c.15.15.34.22.53.22s.38-.07.53-.22c.29-.29.29-.77 0-1.06l-2.83-2.83a.774.774 0 00-1.06 0L8.64 7.19c-.29.29-.29.77 0 1.06.29.29.77.29 1.06 0l1.55-1.55v10.21L9.7 15.36a.754.754 0 00-1.06 0c-.29.29-.29.77 0 1.06l2.83 2.83a.75.75 0 001.06 0l2.83-2.83c.29-.29.29-.77 0-1.06a.754.754 0 00-1.06 0z"/>
</svg>
