<svg xmlns="http://www.w3.org/2000/svg" viewBox="0 0 24 24" fill="currentColor" aria-hidden="true">
  <path d="M19.32 10H4.69c-1.48 0-2.68-1.21-2.68-2.68V4.69c0-1.48 1.21-2.68 2.68-2.68h14.63C20.8 2.01 22 3.22 22 4.69v2.63C22 8.79 20.79 10 19.32 10zM19.32 22H4.69c-1.48 0-2.68-1.21-2.68-2.68v-2.63c0-1.48 1.21-2.68 2.68-2.68h14.63c1.48 0 2.68 1.21 2.68 2.68v2.63c0 1.47-1.21 2.68-2.68 2.68z" opacity=".4"/>
  <path d="M6 7.75c-.41 0-.75-.34-.75-.75V5c0-.41.34-.75.75-.75s.75.34.75.75v2c0 .41-.34.75-.75.75zM10 7.75c-.41 0-.75-.34-.75-.75V5c0-.41.34-.75.75-.75s.75.34.75.75v2c0 .41-.34.75-.75.75zM6 19.75c-.41 0-.75-.34-.75-.75v-2c0-.41.34-.75.75-.75s.75.34.75.75v2c0 .41-.34.75-.75.75zM10 19.75c-.41 0-.75-.34-.75-.75v-2c0-.41.34-.75.75-.75s.75.34.75.75v2c0 .41-.34.75-.75.75zM18 6.75h-4c-.41 0-.75-.34-.75-.75s.34-.75.75-.75h4c.41 0 .75.34.75.75s-.34.75-.75.75zM18 18.75h-4c-.41 0-.75-.34-.75-.75s.34-.75.75-.75h4c.41 0 .75.34.75.75s-.34.75-.75.75z"/>
</svg>
