<svg xmlns="http://www.w3.org/2000/svg" viewBox="0 0 24 24" fill="currentColor" aria-hidden="true">
  <path d="M12 20a8 8 0 100-16 8 8 0 000 16z" opacity=".4"/>
  <path d="M12 15.12a3.12 3.12 0 100-6.24 3.12 3.12 0 000 6.24zM12.75 2v2.04h-.01C12.5 4.01 12.25 4 12 4s-.5.01-.74.04h-.01V2c0-.41.34-.75.75-.75s.75.34.75.75zM4 12c0 .25.01.51.04.75H2c-.41 0-.75-.34-.75-.75s.34-.75.75-.75h2.04c-.03.24-.04.5-.04.75zM12.75 19.96V22c0 .41-.34.75-.75.75s-.75-.34-.75-.75v-2.04h.01c.24.03.49.04.74.04s.5-.01.74-.04h.01zM22.75 12c0 .41-.34.75-.75.75h-2.04c.03-.24.04-.5.04-.75s-.01-.51-.04-.75H22c.41 0 .75.34.75.75z"/>
</svg>
