<svg xmlns="http://www.w3.org/2000/svg" viewBox="0 0 24 24" fill="currentColor" aria-hidden="true">
  <path d="M10 3.75h1.25V8.5c0 .41.34.75.75.75s.75-.34.75-.75V3.75H14c.41 0 .75-.34.75-.75s-.34-.75-.75-.75h-4c-.41 0-.75.34-.75.75s.34.75.75.75zM14 20.25h-1.25V15.5c0-.41-.34-.75-.75-.75s-.75.34-.75.75v4.75H10c-.41 0-.75.34-.75.75s.34.75.75.75h4c.41 0 .75-.34.75-.75s-.34-.75-.75-.75zM2.83 9.88c.12.07.25.1.37.1.26 0 .51-.13.65-.38l.63-1.08L8.6 10.9c.11.07.24.1.37.1.26 0 .51-.13.65-.38.21-.36.08-.82-.27-1.02L5.24 7.22l.62-1.08c.21-.36.08-.82-.27-1.02a.738.738 0 00-1.02.27l-2 3.46c-.22.37-.1.82.26 1.03zM21.17 14.12a.738.738 0 00-1.02.27l-.63 1.08-4.12-2.37a.746.746 0 00-.75 1.29l4.11 2.38-.62 1.08a.746.746 0 00.64 1.12c.26 0 .51-.13.65-.38l2-3.46c.22-.35.1-.8-.26-1.01zM18.77 7.22L14.66 9.6c-.36.21-.48.67-.27 1.02.14.24.39.38.65.38.13 0 .26-.03.37-.1l4.11-2.38.63 1.08c.14.24.39.38.65.38.13 0 .26-.03.37-.1.36-.21.48-.67.27-1.02l-2-3.46a.742.742 0 00-1.02-.27c-.36.21-.48.67-.27 1.02l.62 1.07zM5.23 16.78l4.11-2.38c.36-.21.48-.67.27-1.02a.742.742 0 00-1.02-.27l-4.11 2.38-.63-1.08a.742.742 0 00-1.02-.27c-.36.21-.48.67-.27 1.02l2 3.46c.14.24.39.38.65.38.13 0 .26-.03.37-.1.36-.21.48-.67.27-1.02l-.62-1.1z" opacity=".4"/>
  <path d="M15.5 12a3.5 3.5 0 01-3.5 3.5 3.5 3.5 0 010-7 3.5 3.5 0 013.5 3.5z"/>
</svg>
