<svg xmlns="http://www.w3.org/2000/svg" viewBox="0 0 24 24" fill="currentColor" aria-hidden="true">
  <path d="M16.19 2H7.82C4.18 2 2.01 4.17 2.01 7.81v8.37c0 3.64 2.17 5.81 5.81 5.81h8.37c3.64 0 5.81-2.17 5.81-5.81V7.81C22 4.17 19.83 2 16.19 2z" opacity=".4"/>
  <path d="M8.82 16.02c-.19 0-.38-.07-.53-.22a.754.754 0 010-1.06l6.55-6.55c.29-.29.77-.29 1.06 0 .29.29.29.77 0 1.06L9.35 15.8c-.15.15-.34.22-.53.22zM9.23 7.66c-.81 0-1.48.66-1.48 1.48 0 .81.66 1.48 1.48 1.48.81 0 1.48-.66 1.48-1.48a1.49 1.49 0 00-1.48-1.48zM15.769 13.39c-.81 0-1.48.66-1.48 1.48 0 .81.66 1.48 1.48 1.48.81 0 1.48-.66 1.48-1.48s-.66-1.48-1.48-1.48z"/>
</svg>
