<svg xmlns="http://www.w3.org/2000/svg" viewBox="0 0 24 24" fill="currentColor" aria-hidden="true">
  <path d="M16.19 2H7.81C4.17 2 2 4.17 2 7.81v8.37C2 19.83 4.17 22 7.81 22h8.37c3.64 0 5.81-2.17 5.81-5.81V7.81C22 4.17 19.83 2 16.19 2z" opacity=".4"/>
  <path d="M15.58 19.25c-.41 0-.75-.34-.75-.75v-3.9c0-.41.34-.75.75-.75s.75.34.75.75v3.9c0 .41-.34.75-.75.75zM15.58 8.2c-.41 0-.75-.34-.75-.75V5.5c0-.41.34-.75.75-.75s.75.34.75.75v1.95c0 .41-.34.75-.75.75zM8.42 19.25c-.41 0-.75-.34-.75-.75v-1.95c0-.41.34-.75.75-.75s.75.34.75.75v1.95c0 .41-.33.75-.75.75zM8.42 10.15c-.41 0-.75-.34-.75-.75V5.5c0-.41.34-.75.75-.75s.75.34.75.75v3.9c0 .41-.33.75-.75.75z"/>
  <path d="M15.58 7.33c-1.5 0-2.73 1.22-2.73 2.72 0 1.5 1.22 2.73 2.73 2.73 1.5 0 2.72-1.22 2.72-2.73s-1.22-2.72-2.72-2.72zM8.42 11.23c-1.5 0-2.72 1.22-2.72 2.73s1.22 2.72 2.72 2.72c1.5 0 2.73-1.22 2.73-2.72 0-1.5-1.22-2.73-2.73-2.73z"/>
</svg>
