<svg xmlns="http://www.w3.org/2000/svg" viewBox="0 0 24 24" fill="currentColor" aria-hidden="true">
  <path d="M22 10v7c0 3-2 5-5 5H7c-3 0-5-2-5-5v-7c0-2.74 1.67-4.65 4.25-4.95.24-.04.49-.05.75-.05h10c3 0 5 2 5 5z" opacity=".4"/>
  <path d="M7.75 2v3H7c-.26 0-.51.01-.75.05V2c0-.41.34-.75.75-.75s.75.34.75.75zM7.88 16a2.5 2.5 0 100-5 2.5 2.5 0 000 5zM17.88 12.25h-4c-.41 0-.75-.34-.75-.75s.34-.75.75-.75h4c.41 0 .75.34.75.75s-.34.75-.75.75zM14.38 16.25h-.5c-.41 0-.75-.34-.75-.75s.34-.75.75-.75h.5c.41 0 .75.34.75.75s-.34.75-.75.75zM17.88 16.25h-.5c-.41 0-.75-.34-.75-.75s.34-.75.75-.75h.5c.41 0 .75.34.75.75s-.34.75-.75.75z"/>
</svg>
