<svg xmlns="http://www.w3.org/2000/svg" viewBox="0 0 24 24" fill="currentColor" aria-hidden="true">
  <path d="M21.69 2.71a.783.783 0 00-.41-.41.717.717 0 00-.29-.06h-9c-.41 0-.75.34-.75.75s.34.75.75.75h7.19L2.46 20.46c-.29.29-.29.77 0 1.06.15.15.34.22.53.22s.38-.07.53-.22L20.24 4.8V12c0 .41.34.75.75.75s.75-.34.75-.75V3c.01-.1-.01-.19-.05-.29z"/>
  <path d="M17.4 18.15c-.19 0-.381-.07-.53-.22L6.07 7.13a.754.754 0 010-1.06c.29-.29.77-.29 1.06 0l10.799 10.8c.29.29.29.77 0 1.06-.15.15-.34.22-.53.22z" opacity=".4"/>
</svg>
