<svg xmlns="http://www.w3.org/2000/svg" viewBox="0 0 25 24" fill="currentColor" aria-hidden="true">
  <path d="M19.942 12.605h1.966v-1.402a3.668 3.668 0 00-3.66-3.66H7.074a3.668 3.668 0 00-3.66 3.66v4.254a3.892 3.892 0 016.327 3.037c0 .73-.205 1.42-.565 2.005-.204.35-.467.662-.769.915h9.84a3.668 3.668 0 003.66-3.66v-1.158h-1.849c-1.05 0-2.014-.77-2.102-1.82a1.955 1.955 0 01.584-1.587 1.94 1.94 0 011.402-.584z" opacity=".4"/>
  <path d="M15.435 3.845v3.698H7.074a3.668 3.668 0 00-3.66 3.66V7.631c0-1.158.71-2.19 1.791-2.599l7.728-2.92c1.207-.448 2.502.438 2.502 1.733zM22.942 13.598v2.005a1 1 0 01-.974.993h-1.907c-1.052 0-2.015-.77-2.103-1.82a1.955 1.955 0 01.584-1.587 1.94 1.94 0 011.402-.584h2.024a1 1 0 01.974.993zM14.608 12.41H7.794c-.399 0-.73-.33-.73-.73 0-.399.331-.73.73-.73h6.814c.399 0 .73.331.73.73 0 .4-.331.73-.73.73zM8.6 15.74a3.896 3.896 0 00-2.326-1.114 3.865 3.865 0 00-3.18 1.115 3.816 3.816 0 00-1.018 1.817 3.864 3.864 0 001.019 3.689 3.8 3.8 0 002.498 1.122c.392.034.798 0 1.19-.103a3.817 3.817 0 001.818-1.02 3.892 3.892 0 000-5.505zm-3.468 1.295c0-.4.33-.73.73-.73.405.007.729.33.736.737l-.007.722.695-.007c.406.007.73.33.737.737a.746.746 0 01-.737.736l-.695-.007.007.723a.746.746 0 01-.737.737.754.754 0 01-.73-.73v-.73h-.756a.722.722 0 01-.516-.213.722.722 0 01-.214-.516c0-.4.33-.73.73-.73h.757v-.73z"/>
</svg>
