<svg xmlns="http://www.w3.org/2000/svg" viewBox="0 0 24 24" fill="currentColor" aria-hidden="true">
  <path d="M16.19 2H7.82C4.18 2 2.01 4.17 2.01 7.81v8.37c0 3.64 2.17 5.81 5.81 5.81h8.37c3.64 0 5.81-2.17 5.81-5.81V7.81C22 4.17 19.83 2 16.19 2z" opacity=".4"/>
  <path d="M13.58 14.69l-2.32 2.32c-.64.65-1.69.65-2.34 0l-1.93-1.93c-.65-.65-.65-1.7 0-2.34l2.32-2.32 4.27 4.27z"/>
  <path d="M17.01 11.26l-3.43 3.43-4.27-4.27 3.43-3.43c.64-.65 1.69-.65 2.34 0l1.93 1.93c.65.65.65 1.7 0 2.34z" opacity=".6"/>
</svg>
