<svg xmlns="http://www.w3.org/2000/svg" viewBox="0 0 24 24" fill="currentColor" aria-hidden="true">
  <path d="M21 7v10c0 3-1.5 5-5 5H8c-3.5 0-5-2-5-5V7c0-3 1.5-5 5-5h8c3.5 0 5 2 5 5z" opacity=".4"/>
  <path d="M15.5 2v7.86c0 .44-.52.66-.84.37l-2.32-2.14a.496.496 0 00-.68 0l-2.32 2.14a.5.5 0 01-.84-.37V2h7zM17.5 14.75h-4.25c-.41 0-.75-.34-.75-.75s.34-.75.75-.75h4.25c.41 0 .75.34.75.75s-.34.75-.75.75zM17.5 18.75H9c-.41 0-.75-.34-.75-.75s.34-.75.75-.75h8.5c.41 0 .75.34.75.75s-.34.75-.75.75z"/>
</svg>
