<svg xmlns="http://www.w3.org/2000/svg" viewBox="0 0 24 24" fill="currentColor" aria-hidden="true">
  <path d="M18.9 15.03c-2.21 0-4 1.79-4 4s1.79 4 4 4 4-1.79 4-4-1.79-4-4-4zm1.6 5.65c-.15.15-.34.22-.53.22s-.38-.07-.53-.22l-.53-.53-.55.55c-.15.15-.34.22-.53.22s-.38-.07-.53-.22a.754.754 0 010-1.06l.55-.55-.53-.53a.754.754 0 010-1.06c.29-.29.77-.29 1.06 0l.53.53.5-.5c.29-.29.77-.29 1.06 0 .29.29.29.77 0 1.06l-.5.5.53.53c.29.29.29.77 0 1.06zM22 7.54V9H2V7.54C2 5.25 3.86 3.4 6.15 3.4h11.7C20.14 3.4 22 5.25 22 7.54z"/>
  <path d="M2 9v7.46c0 2.29 1.85 4.14 4.14 4.14h6.26c.58 0 1.08-.49 1.03-1.07-.14-1.53.35-3.19 1.71-4.51.56-.55 1.25-.97 2-1.21 1.25-.4 2.46-.35 3.53.01a1 1 0 001.33-.94V9H2zm6 8.25H6c-.41 0-.75-.34-.75-.75s.34-.75.75-.75h2c.41 0 .75.34.75.75s-.34.75-.75.75z" opacity=".4"/>
  <path d="M8.75 16.5c0 .41-.34.75-.75.75H6c-.41 0-.75-.34-.75-.75s.34-.75.75-.75h2c.41 0 .75.34.75.75z"/>
</svg>
