<svg xmlns="http://www.w3.org/2000/svg" fill="none" viewBox="0 0 24 24" stroke="currentColor" aria-hidden="true">
  <path stroke-linecap="round" stroke-linejoin="round" stroke-miterlimit="10" stroke-width="1.5" d="M12 14.5a2.5 2.5 0 100-5 2.5 2.5 0 000 5zM18.5 9.5v5M9 18c0 .75-.21 1.46-.58 2.06A3.97 3.97 0 015 22a3.97 3.97 0 01-3.42-1.94A3.92 3.92 0 011 18c0-2.21 1.79-4 4-4s4 1.79 4 4z"/>
  <path stroke-linecap="round" stroke-linejoin="round" stroke-width="1.5" d="M3.441 18l.99.99 2.13-1.97"/>
  <path stroke-linecap="round" stroke-linejoin="round" stroke-miterlimit="10" stroke-width="1.5" d="M2 15.3V9c0-3.5 2-5 5-5h10c3 0 5 1.5 5 5v6c0 3.5-2 5-5 5H8.5"/>
</svg>
