<svg xmlns="http://www.w3.org/2000/svg" fill="none" viewBox="0 0 24 24" stroke="currentColor" aria-hidden="true">
  <path stroke-linecap="round" stroke-linejoin="round" stroke-width="1.5" d="M15 2v10c0 1.1-.9 2-2 2H2V7.62c.73.87 1.85 1.41 3.09 1.38 1.01-.02 1.92-.41 2.6-1.06.31-.26.57-.59.77-.95.36-.61.56-1.33.54-2.08-.03-1.17-.55-2.2-1.36-2.91H15z"/>
  <path stroke-linecap="round" stroke-linejoin="round" stroke-width="1.5" d="M22 14v3c0 1.66-1.34 3-3 3h-1c0-1.1-.9-2-2-2s-2 .9-2 2h-4c0-1.1-.9-2-2-2s-2 .9-2 2H5c-1.66 0-3-1.34-3-3v-3h11c1.1 0 2-.9 2-2V5h1.84c.72 0 1.38.39 1.74 1.01L20.29 9H19c-.55 0-1 .45-1 1v3c0 .55.45 1 1 1h3z"/>
  <path stroke-linecap="round" stroke-linejoin="round" stroke-width="1.5" d="M8 22a2 2 0 100-4 2 2 0 000 4zM16 22a2 2 0 100-4 2 2 0 000 4zM22 12v2h-3c-.55 0-1-.45-1-1v-3c0-.55.45-1 1-1h1.29L22 12z"/>
  <path stroke-linecap="round" stroke-linejoin="round" stroke-miterlimit="10" stroke-width="1.5" d="M9 4.91c.02.75-.18 1.47-.54 2.08-.2.36-.46.69-.77.95-.68.65-1.59 1.04-2.6 1.06-1.24.03-2.36-.51-3.09-1.38-.14-.15-.26-.32-.37-.49-.39-.59-.61-1.29-.63-2.04a3.99 3.99 0 011.43-3.16c.68-.56 1.54-.91 2.48-.93 1.05-.02 2.01.36 2.73 1 .81.71 1.33 1.74 1.36 2.91z"/>
  <path stroke-linecap="round" stroke-linejoin="round" stroke-width="1.5" d="M3.44 5.03l1.01.96 2.09-2.02"/>
</svg>
