<svg xmlns="http://www.w3.org/2000/svg" fill="none" viewBox="0 0 24 24" stroke="currentColor" aria-hidden="true">
  <path stroke-linecap="round" stroke-linejoin="round" stroke-width="1.5" d="M9 22h6c5 0 7-2 7-7V9c0-5-2-7-7-7H9C4 2 2 4 2 9v6c0 5 2 7 7 7z"/>
  <path stroke-linecap="round" stroke-linejoin="round" stroke-miterlimit="10" stroke-width="1.5" d="M15.5 9.75a1.5 1.5 0 100-3 1.5 1.5 0 000 3zM8.5 9.75a1.5 1.5 0 100-3 1.5 1.5 0 000 3zM8.4 13.3h7.2c.5 0 .9.4.9.9 0 2.49-2.01 4.5-4.5 4.5s-4.5-2.01-4.5-4.5c0-.5.4-.9.9-.9z"/>
</svg>
