<svg xmlns="http://www.w3.org/2000/svg" fill="none" viewBox="0 0 24 24" stroke="currentColor" aria-hidden="true">
  <path stroke-linecap="round" stroke-linejoin="round" stroke-miterlimit="10" stroke-width="1.5" d="M8.59 15.56l6.62-6.07a.57.57 0 00-.02-.89l-2.06-1.72c-.54-.45-.97-.24-.97.46v9.33c0 .7.44.9.97.46l2.06-1.72c.29-.24.3-.64.02-.89L8.59 8.45"/>
  <path stroke-linecap="round" stroke-linejoin="round" stroke-miterlimit="10" stroke-width="1.5" d="M15 22H9c-3 0-5-2-5-5V7c0-3 2-5 5-5h6c3 0 5 2 5 5v10c0 3-2 5-5 5z"/>
</svg>
