<svg xmlns="http://www.w3.org/2000/svg" fill="none" viewBox="0 0 24 24" stroke="currentColor" aria-hidden="true">
  <path stroke-linecap="round" stroke-linejoin="round" stroke-miterlimit="10" stroke-width="1.5" d="M2 22h20"/>
  <path stroke-linejoin="round" stroke-miterlimit="10" stroke-width="1.5" d="M2.95 22L3 9.97c0-.61.29-1.19.77-1.57l7-5.45a2.01 2.01 0 012.46 0l7 5.44c.49.38.77.96.77 1.58V22"/>
  <path stroke-linejoin="round" stroke-miterlimit="10" stroke-width="1.5" d="M13 17h-2c-.83 0-1.5.67-1.5 1.5V22h5v-3.5c0-.83-.67-1.5-1.5-1.5zM9.5 13.75h-2c-.55 0-1-.45-1-1v-1.5c0-.55.45-1 1-1h2c.55 0 1 .45 1 1v1.5c0 .55-.45 1-1 1zM16.5 13.75h-2c-.55 0-1-.45-1-1v-1.5c0-.55.45-1 1-1h2c.55 0 1 .45 1 1v1.5c0 .55-.45 1-1 1z"/>
  <path stroke-linecap="round" stroke-linejoin="round" stroke-miterlimit="10" stroke-width="1.5" d="M19 7l-.03-3h-4.4"/>
</svg>
