<svg xmlns="http://www.w3.org/2000/svg" fill="none" viewBox="0 0 24 24" stroke="currentColor" aria-hidden="true">
  <path stroke-linecap="round" stroke-linejoin="round" stroke-width="1.5" d="M17 11.84h-2.68c-.71 0-1.19-.54-1.19-1.19V9.16c0-.65.48-1.19 1.19-1.19h1.49c.65 0 1.19.54 1.19 1.19v2.68zM17 11.84c0 2.79-.52 3.26-2.09 4.19M10.86 11.84H8.18c-.71 0-1.19-.54-1.19-1.19V9.16c0-.65.48-1.19 1.19-1.19h1.49c.65 0 1.19.54 1.19 1.19v2.68zM10.86 11.84c0 2.79-.52 3.26-2.09 4.19"/>
  <path stroke-linecap="round" stroke-linejoin="round" stroke-width="1.5" d="M12 22c5.523 0 10-4.477 10-10S17.523 2 12 2 2 6.477 2 12s4.477 10 10 10z"/>
</svg>
