<svg xmlns="http://www.w3.org/2000/svg" fill="none" viewBox="0 0 24 24" stroke="currentColor" aria-hidden="true">
  <path stroke-linecap="round" stroke-linejoin="round" stroke-width="1.5" d="M7 12.16h2.68c.71 0 1.19.54 1.19 1.19v1.49c0 .65-.48 1.19-1.19 1.19H8.19A1.2 1.2 0 017 14.84v-2.68zM7 12.16c0-2.79.52-3.26 2.09-4.19M13.14 12.16h2.68c.71 0 1.19.54 1.19 1.19v1.49c0 .65-.48 1.19-1.19 1.19h-1.49a1.2 1.2 0 01-1.19-1.19v-2.68zM13.14 12.16c0-2.79.52-3.26 2.09-4.19"/>
  <path stroke-linecap="round" stroke-linejoin="round" stroke-width="1.5" d="M12 22c5.523 0 10-4.477 10-10S17.523 2 12 2 2 6.477 2 12s4.477 10 10 10z"/>
</svg>
