<svg xmlns="http://www.w3.org/2000/svg" fill="none" viewBox="0 0 24 24" stroke="currentColor" aria-hidden="true">
  <path stroke-linecap="round" stroke-linejoin="round" stroke-width="1.5" d="M2.29 7.78v9.73c0 1.9 1.35 2.68 2.99 1.74l2.35-1.34c.51-.29 1.36-.32 1.89-.05l5.25 2.63c.53.26 1.38.24 1.89-.05l4.33-2.48c.55-.32 1.01-1.1 1.01-1.74V6.49c0-1.9-1.35-2.68-2.99-1.74l-2.35 1.34c-.51.29-1.36.32-1.89.05L9.52 3.52c-.53-.26-1.38-.24-1.89.05L3.3 6.05c-.56.32-1.01 1.1-1.01 1.73zM8.56 4v13M15.73 6.62V20"/>
</svg>
