<svg xmlns="http://www.w3.org/2000/svg" fill="none" viewBox="0 0 24 24" stroke="currentColor" aria-hidden="true">
  <path stroke-linecap="round" stroke-linejoin="round" stroke-miterlimit="10" stroke-width="1.5" d="M22 7.43v6c0 1.5-.5 2.75-1.38 3.63-.87.87-2.12 1.37-3.62 1.37v2.13c0 .8-.89 1.28-1.55.84L11 18.43H8.88c.08-.3.12-.61.12-.93 0-1.02-.39-1.96-1.03-2.67A3.944 3.944 0 005 13.5c-1.12 0-2.14.46-2.87 1.21-.09-.4-.13-.83-.13-1.28v-6c0-3 2-5 5-5h10c3 0 5 2 5 5z"/>
  <path stroke-linecap="round" stroke-linejoin="round" stroke-miterlimit="10" stroke-width="1.5" d="M9 17.5c0 .32-.04.63-.12.93-.09.4-.25.79-.46 1.13A3.97 3.97 0 015 21.5a3.92 3.92 0 01-2.66-1.03c-.3-.26-.56-.57-.76-.91A3.92 3.92 0 011 17.5a3.995 3.995 0 014-4c1.18 0 2.25.51 2.97 1.33.64.71 1.03 1.65 1.03 2.67zM6.49 17.48H3.51M5 16.02v2.99M8.5 10.5h7"/>
</svg>
