<svg xmlns="http://www.w3.org/2000/svg" fill="none" viewBox="0 0 24 24" stroke="currentColor" aria-hidden="true">
  <path stroke-linecap="round" stroke-linejoin="round" stroke-width="1.5" d="M3.17 7.44L12 12.55l8.77-5.08M12 21.61v-9.07"/>
  <path stroke-linecap="round" stroke-linejoin="round" stroke-width="1.5" d="M9.93 2.48L4.59 5.45c-1.21.67-2.2 2.35-2.2 3.73v5.65c0 1.38.99 3.06 2.2 3.73l5.34 2.97c1.14.63 3.01.63 4.15 0l5.34-2.97c1.21-.67 2.2-2.35 2.2-3.73V9.18c0-1.38-.99-3.06-2.2-3.73l-5.34-2.97c-1.15-.64-3.01-.64-4.15 0z"/>
  <path stroke-linecap="round" stroke-linejoin="round" stroke-width="1.5" d="M17 13.24V9.58L7.51 4.1"/>
</svg>
