<svg xmlns="http://www.w3.org/2000/svg" fill="none" viewBox="0 0 24 24" stroke="currentColor" aria-hidden="true">
  <path stroke-linecap="round" stroke-linejoin="round" stroke-width="1.5" d="M9 10a2 2 0 100-4 2 2 0 000 4z"/>
  <path stroke-linecap="round" stroke-linejoin="round" stroke-width="1.5" d="M12 2H9C4 2 2 4 2 9v6c0 5 2 7 7 7h6c5 0 7-2 7-7v-4"/>
  <path stroke-linecap="round" stroke-linejoin="round" stroke-width="1.5" d="M16.12 5.11c-.33-1.04.06-2.33 1.14-2.68.57-.18 1.28-.03 1.68.52.38-.57 1.11-.71 1.68-.52 1.09.35 1.48 1.64 1.15 2.68-.52 1.64-2.32 2.5-2.82 2.5-.51 0-2.3-.84-2.83-2.5zM2.67 18.95l4.93-3.31c.79-.53 1.93-.47 2.64.14l.33.29c.78.67 2.04.67 2.82 0l4.16-3.57c.78-.67 2.04-.67 2.82 0L22 13.9"/>
</svg>
