<svg xmlns="http://www.w3.org/2000/svg" fill="none" viewBox="0 0 24 24" stroke="currentColor" aria-hidden="true">
  <path stroke-linecap="round" stroke-linejoin="round" stroke-width="1.5" d="M12 22C6.48 22 2 17.52 2 12S6.48 2 12 2s10 4.48 10 10-4.48 10-10 10z"/>
  <path stroke-linecap="round" stroke-linejoin="round" stroke-width="1.5" d="M10.88 14.15c-.51.44-1.17.72-1.89.72A2.87 2.87 0 016.12 12c0-1.59 1.28-2.87 2.87-2.87.73 0 1.39.27 1.89.72M17.88 14.15c-.51.44-1.17.72-1.89.72A2.87 2.87 0 0113.12 12c0-1.59 1.28-2.87 2.87-2.87.73 0 1.39.27 1.89.72"/>
</svg>
