<svg xmlns="http://www.w3.org/2000/svg" fill="none" viewBox="0 0 24 24" stroke="currentColor" aria-hidden="true">
  <path stroke-linecap="round" stroke-linejoin="round" stroke-miterlimit="10" stroke-width="1.5" d="M2 11V9c0-3.5 2-5 5-5h10c3 0 5 1.5 5 5v6c0 3.5-2 5-5 5h-5"/>
  <path stroke-linecap="round" stroke-linejoin="round" stroke-miterlimit="10" stroke-width="1.5" d="M12 14.5a2.5 2.5 0 100-5 2.5 2.5 0 000 5zM18.5 9.5v5M2 15.5h5.34c.64 0 1.16.52 1.16 1.16v1.28"/>
  <path stroke-linecap="round" stroke-linejoin="round" stroke-miterlimit="10" stroke-width="1.5" d="M3.22 14.28L2 15.5l1.22 1.22M8.5 20.78H3.16c-.64 0-1.16-.52-1.16-1.16v-1.28"/>
  <path stroke-linecap="round" stroke-linejoin="round" stroke-miterlimit="10" stroke-width="1.5" d="M7.281 22l1.22-1.22-1.22-1.22"/>
</svg>
