<svg xmlns="http://www.w3.org/2000/svg" fill="none" viewBox="0 0 24 24" stroke="currentColor" aria-hidden="true">
  <path stroke-linecap="round" stroke-linejoin="round" stroke-miterlimit="10" stroke-width="1.5" d="M17.2 22a4.8 4.8 0 100-9.6 4.8 4.8 0 000 9.6zM18.99 17.26h-3.58M17.2 15.51v3.59"/>
  <path stroke-linecap="round" stroke-linejoin="round" stroke-width="1.5" d="M22 8.69c0 1.97-.51 3.71-1.31 5.22a4.794 4.794 0 00-3.49-1.51c-2.65 0-4.8 2.15-4.8 4.8 0 1.23.47 2.35 1.23 3.2-.37.17-.71.31-1.01.41-.34.12-.9.12-1.24 0C8.48 19.82 2 15.69 2 8.69 2 5.6 4.49 3.1 7.56 3.1c1.81 0 3.43.88 4.44 2.23a5.549 5.549 0 014.44-2.23C19.51 3.1 22 5.6 22 8.69z"/>
</svg>
