<svg xmlns="http://www.w3.org/2000/svg" fill="none" viewBox="0 0 24 24" stroke="currentColor" aria-hidden="true">
  <path stroke-miterlimit="10" stroke-width="1.5" d="M21.67 14.3l-.4 5c-.15 1.53-.27 2.7-2.98 2.7H5.71C3 22 2.88 20.83 2.73 19.3l-.4-5c-.08-.83.18-1.6.65-2.19l.02-.02C3.55 11.42 4.38 11 5.31 11h13.38c.93 0 1.75.42 2.29 1.07.01.01.02.02.02.03.49.59.76 1.36.67 2.2z"/>
  <path stroke-linecap="round" stroke-linejoin="round" stroke-miterlimit="10" stroke-width="1.5" d="M3.5 11.43V6.28c0-3.4.85-4.25 4.25-4.25h1.27c1.27 0 1.56.38 2.04 1.02l1.27 1.7c.32.42.51.68 1.36.68h2.55c3.4 0 4.25.85 4.25 4.25v1.79M9.43 17h5.14"/>
</svg>
