<svg xmlns="http://www.w3.org/2000/svg" fill="none" viewBox="0 0 24 24" stroke="currentColor" aria-hidden="true">
  <path stroke-linecap="round" stroke-linejoin="round" stroke-width="1.5" d="M22 12v5c0 3-2 5-5 5H7.63c.31-.26.58-.58.79-.94.37-.6.58-1.31.58-2.06 0-2.21-1.79-4-4-4-1.2 0-2.27.53-3 1.36V12c0-2.72 1.64-4.62 4.19-4.94.26-.04.53-.06.81-.06h10c.26 0 .51.01.75.05C20.33 7.35 22 9.26 22 12z"/>
  <path stroke-linecap="round" stroke-linejoin="round" stroke-width="1.5" d="M17.751 7.05c-.24-.04-.49-.05-.75-.05h-10c-.28 0-.55.02-.81.06.14-.28.34-.54.58-.78l3.25-3.26a3.525 3.525 0 014.96 0l1.75 1.77c.64.63.98 1.43 1.02 2.26zM22 12.5h-3c-1.1 0-2 .9-2 2s.9 2 2 2h3"/>
  <path stroke-linecap="round" stroke-linejoin="round" stroke-miterlimit="10" stroke-width="1.5" d="M9 19c0 .75-.21 1.46-.58 2.06-.21.36-.48.68-.79.94-.7.63-1.62 1-2.63 1a3.97 3.97 0 01-3.42-1.94A3.92 3.92 0 011 19a4 4 0 011-2.64C2.73 15.53 3.8 15 5 15c2.21 0 4 1.79 4 4zM6.071 20.04l-2.11-2.11M6.04 17.96l-2.11 2.11"/>
</svg>
