<svg xmlns="http://www.w3.org/2000/svg" fill="none" viewBox="0 0 24 24" stroke="currentColor" aria-hidden="true">
  <path stroke-linecap="round" stroke-linejoin="round" stroke-miterlimit="10" stroke-width="1.5" d="M22 10v3c0 4-2 6-6 6h-.5c-.31 0-.61.15-.8.4l-1.5 2c-.66.88-1.74.88-2.4 0l-1.5-2c-.16-.22-.53-.4-.8-.4H8c-4 0-6-1-6-6V8c0-4 2-6 6-6h6"/>
  <path stroke-linecap="round" stroke-linejoin="round" stroke-width="1.5" d="M19.5 7a2.5 2.5 0 100-5 2.5 2.5 0 000 5z"/>
  <path stroke-linecap="round" stroke-linejoin="round" stroke-width="2" d="M15.996 11h.01M11.995 11h.01M7.995 11h.008"/>
</svg>
