<svg xmlns="http://www.w3.org/2000/svg" fill="none" viewBox="0 0 24 24" stroke="currentColor" aria-hidden="true">
  <path stroke-linecap="round" stroke-linejoin="round" stroke-width="1.5" d="M7.5 4h9c.62 0 1.17.02 1.66.09 2.63.29 3.34 1.53 3.34 4.91v6c0 3.38-.71 4.62-3.34 4.91-.49.07-1.04.09-1.66.09h-9c-.62 0-1.17-.02-1.66-.09C3.21 19.62 2.5 18.38 2.5 15V9c0-3.38.71-4.62 3.34-4.91C6.33 4.02 6.88 4 7.5 4zM13.5 10H17M7 15.5h10"/>
  <path stroke-linecap="round" stroke-linejoin="round" stroke-width="2" d="M10.095 10h.009M7.095 10h.009"/>
</svg>
