<svg xmlns="http://www.w3.org/2000/svg" fill="none" viewBox="0 0 24 24" stroke="currentColor" aria-hidden="true">
  <path stroke-linecap="round" stroke-linejoin="round" stroke-miterlimit="10" stroke-width="1.5" d="M20.27 18.68c-.99.91-2.29 1.41-3.64 1.4H5.54c-4.67-.34-4.68-7.14 0-7.48h.05C2.89 5.06 12.12 1.34 16 6.03v.01c.7.86 1.23 2 1.47 3.45 1.33.17 2.41.82 3.18 1.74 1.75 2.07 1.9 5.45-.38 7.45zM7.26 13.01c-.52-.26-1.09-.4-1.67-.41M15.85 9.92c.52-.26 1.09-.4 1.67-.41"/>
  <path stroke-linecap="round" stroke-linejoin="round" stroke-miterlimit="10" stroke-width="1.5" d="M21.97 8.5c0 1.1-.51 2.09-1.32 2.73a4.897 4.897 0 00-3.18-1.74C17.23 8.04 16.7 6.9 16 6.04v-.01A3.46 3.46 0 0118.47 5c1.93 0 3.5 1.57 3.5 3.5z"/>
</svg>
