<svg xmlns="http://www.w3.org/2000/svg" fill="none" viewBox="0 0 24 24" stroke="currentColor" aria-hidden="true">
  <path stroke-linecap="round" stroke-linejoin="round" stroke-width="1.5" d="M18.14 21.62c-.88.26-1.92.38-3.14.38H9c-1.22 0-2.26-.12-3.14-.38.22-2.6 2.89-4.65 6.14-4.65 3.25 0 5.92 2.05 6.14 4.65z"/>
  <path stroke-linecap="round" stroke-linejoin="round" stroke-width="1.5" d="M15 2H9C4 2 2 4 2 9v6c0 3.78 1.14 5.85 3.86 6.62.22-2.6 2.89-4.65 6.14-4.65 3.25 0 5.92 2.05 6.14 4.65C20.86 20.85 22 18.78 22 15V9c0-5-2-7-7-7zm-3 12.17c-1.98 0-3.58-1.61-3.58-3.59C8.42 8.6 10.02 7 12 7s3.58 1.6 3.58 3.58-1.6 3.59-3.58 3.59z"/>
  <path stroke-linecap="round" stroke-linejoin="round" stroke-width="1.5" d="M15.58 10.58c0 1.98-1.6 3.59-3.58 3.59s-3.58-1.61-3.58-3.59C8.42 8.6 10.02 7 12 7s3.58 1.6 3.58 3.58z"/>
</svg>
