<svg xmlns="http://www.w3.org/2000/svg" fill="none" viewBox="0 0 24 24" stroke="currentColor" aria-hidden="true">
  <path stroke-linecap="round" stroke-linejoin="round" stroke-width="1.5" d="M8.672 14.33c0 1.29.99 2.33 2.22 2.33h2.51c1.07 0 1.94-.91 1.94-2.03 0-1.22-.53-1.65-1.32-1.93l-4.03-1.4c-.79-.28-1.32-.71-1.32-1.93 0-1.12.87-2.03 1.94-2.03h2.51c1.23 0 2.22 1.04 2.22 2.33M12 6v12"/>
  <path stroke-linecap="round" stroke-linejoin="round" stroke-width="1.5" d="M15 22H9c-5 0-7-2-7-7V9c0-5 2-7 7-7h6c5 0 7 2 7 7v6c0 5-2 7-7 7z"/>
</svg>
