<svg xmlns="http://www.w3.org/2000/svg" fill="none" viewBox="0 0 24 24" stroke="currentColor" aria-hidden="true">
  <path stroke-linecap="round" stroke-linejoin="round" stroke-width="1.5" d="M9.54 15.92v-5.34l-1.5 1.67M10.02 4.47L12 2"/>
  <path stroke-linecap="round" stroke-linejoin="round" stroke-width="1.5" d="M4.91 7.8c-1.11 1.48-1.8 3.31-1.8 5.31A8.89 8.89 0 0012 22a8.89 8.89 0 008.89-8.89A8.89 8.89 0 0012 4.22c-.68 0-1.34.09-1.98.24"/>
  <path stroke-linecap="round" stroke-linejoin="round" stroke-width="1.5" d="M14 10.58c1.1 0 2 .9 2 2v1.35c0 1.1-.9 2-2 2s-2-.9-2-2v-1.35a2 2 0 012-2z"/>
</svg>
