<svg xmlns="http://www.w3.org/2000/svg" fill="none" viewBox="0 0 24 24" stroke="currentColor" aria-hidden="true">
  <path stroke-linecap="round" stroke-linejoin="round" stroke-width="1.5" d="M22 11.65h-5.8c-1.53 0-2.58-1.16-2.58-2.58V5.85c0-1.42 1.05-2.58 2.58-2.58h3.22c1.42 0 2.58 1.16 2.58 2.58v5.8zM22 11.65c0 6.05-1.13 7.05-4.53 9.07M10.37 11.65h-5.8c-1.53 0-2.58-1.16-2.58-2.58V5.85c0-1.42 1.05-2.58 2.58-2.58H7.8c1.42 0 2.58 1.16 2.58 2.58v5.8M10.37 11.65c0 6.05-1.13 7.05-4.53 9.07"/>
</svg>
