<svg xmlns="http://www.w3.org/2000/svg" viewBox="0 0 24 24" fill="currentColor" aria-hidden="true">
  <path d="M12 13.75c-.41 0-.75-.34-.75-.75V7.75c0-.41.34-.75.75-.75s.75.34.75.75V13c0 .41-.34.75-.75.75zM12 17.25a.99.99 0 01-.71-.29c-.09-.1-.16-.21-.22-.33a.986.986 0 01-.07-.38c0-.26.11-.52.29-.71.37-.37 1.05-.37 1.42 0 .18.19.29.45.29.71 0 .13-.03.26-.08.38s-.12.23-.21.33a.99.99 0 01-.71.29z"/>
  <path d="M12 22.75c-.67 0-1.35-.17-1.95-.52L4.11 18.8c-1.2-.7-1.95-1.99-1.95-3.38V8.58c0-1.39.75-2.68 1.95-3.38l5.94-3.43c1.2-.7 2.69-.7 3.9 0l5.94 3.43c1.2.7 1.95 1.99 1.95 3.38v6.84c0 1.39-.75 2.68-1.95 3.38l-5.94 3.43c-.6.35-1.28.52-1.95.52zm0-20c-.41 0-.83.11-1.2.32L4.86 6.5c-.74.43-1.2 1.22-1.2 2.08v6.84c0 .85.46 1.65 1.2 2.08l5.94 3.43c.74.43 1.66.43 2.39 0l5.94-3.43c.74-.43 1.2-1.22 1.2-2.08V8.58c0-.85-.46-1.65-1.2-2.08l-5.94-3.43c-.36-.21-.78-.32-1.19-.32z"/>
</svg>
