<svg xmlns="http://www.w3.org/2000/svg" viewBox="0 0 24 24" fill="currentColor" aria-hidden="true">
  <path d="M15 22.75H9c-5.43 0-7.75-2.32-7.75-7.75V9c0-5.43 2.32-7.75 7.75-7.75h6c5.43 0 7.75 2.32 7.75 7.75v6c0 5.43-2.32 7.75-7.75 7.75zm-6-20C4.39 2.75 2.75 4.39 2.75 9v6c0 4.61 1.64 6.25 6.25 6.25h6c4.61 0 6.25-1.64 6.25-6.25V9c0-4.61-1.64-6.25-6.25-6.25H9z"/>
  <path d="M6 18.75c-.19 0-.38-.07-.53-.22a.754.754 0 010-1.06l12-12c.29-.29.77-.29 1.06 0 .29.29.29.77 0 1.06l-12 12c-.15.15-.34.22-.53.22z"/>
  <path d="M18 10.75c-.41 0-.75-.34-.75-.75V6.75H14c-.41 0-.75-.34-.75-.75s.34-.75.75-.75h4c.41 0 .75.34.75.75v4c0 .41-.34.75-.75.75zM10 18.75H6c-.41 0-.75-.34-.75-.75v-4c0-.41.34-.75.75-.75s.75.34.75.75v3.25H10c.41 0 .75.34.75.75s-.34.75-.75.75z"/>
</svg>
