<svg xmlns="http://www.w3.org/2000/svg" viewBox="0 0 24 24" fill="currentColor" aria-hidden="true">
  <path d="M12 10.07a2.92 2.92 0 01-2.91-2.91c0-1.6 1.31-2.91 2.91-2.91s2.91 1.31 2.91 2.91-1.31 2.91-2.91 2.91zm0-4.32c-.78 0-1.41.63-1.41 1.41 0 .78.63 1.41 1.41 1.41.78 0 1.41-.63 1.41-1.41 0-.78-.63-1.41-1.41-1.41zM6.79 19.75a2.92 2.92 0 01-2.91-2.91c0-1.6 1.31-2.91 2.91-2.91s2.91 1.31 2.91 2.91-1.31 2.91-2.91 2.91zm0-4.32c-.78 0-1.41.63-1.41 1.41 0 .78.63 1.41 1.41 1.41.78 0 1.41-.63 1.41-1.41 0-.78-.64-1.41-1.41-1.41zM17.21 19.75a2.92 2.92 0 01-2.91-2.91c0-1.6 1.31-2.91 2.91-2.91s2.91 1.31 2.91 2.91-1.3 2.91-2.91 2.91zm0-4.32c-.78 0-1.41.63-1.41 1.41 0 .78.63 1.41 1.41 1.41.78 0 1.41-.63 1.41-1.41 0-.78-.63-1.41-1.41-1.41z"/>
</svg>
