<svg xmlns="http://www.w3.org/2000/svg" viewBox="0 0 24 24" fill="currentColor" aria-hidden="true">
  <path d="M12 21.75a3.93 3.93 0 01-3.49-2.11L2.41 8.05c-.82-1.55-.55-3.35.67-4.6C4.3 2.2 6.1 1.9 7.66 2.68L10.9 4.3c.68.34 1.5.34 2.19 0l3.24-1.62c1.57-.78 3.37-.48 4.59.77 1.22 1.25 1.49 3.05.67 4.6l-6.1 11.59A3.93 3.93 0 0112 21.75zm-6.12-18c-.71 0-1.33.34-1.73.75-.6.62-1.03 1.69-.42 2.85l6.1 11.59c.43.82 1.24 1.31 2.16 1.31.92 0 1.73-.49 2.16-1.31l6.1-11.59c.61-1.16.19-2.24-.42-2.85-.6-.61-1.66-1.06-2.84-.48l-3.24 1.62c-1.11.55-2.42.55-3.53 0L6.99 4.02c-.38-.19-.76-.27-1.11-.27z"/>
</svg>
