<svg xmlns="http://www.w3.org/2000/svg" viewBox="0 0 24 24" fill="currentColor" aria-hidden="true">
  <path d="M16.5 22.75h-9c-3.3 0-3.75-1.8-3.75-3.75v-8.78c0-.41.34-.75.75-.75s.75.34.75.75V19c0 1.74.3 2.25 2.25 2.25h9c1.95 0 2.25-.51 2.25-2.25v-8.78c0-.41.34-.75.75-.75s.75.34.75.75V19c0 1.95-.45 3.75-3.75 3.75z"/>
  <path d="M19 10.75H5c-2.42 0-3.75-1.33-3.75-3.75V5c0-2.42 1.33-3.75 3.75-3.75h14c2.42 0 3.75 1.33 3.75 3.75v2c0 2.42-1.33 3.75-3.75 3.75zm-14-8c-1.58 0-2.25.67-2.25 2.25v2c0 1.58.67 2.25 2.25 2.25h14c1.58 0 2.25-.67 2.25-2.25V5c0-1.58-.67-2.25-2.25-2.25H5zM13.82 14.75h-3.64c-.41 0-.75-.34-.75-.75s.34-.75.75-.75h3.64c.41 0 .75.34.75.75s-.34.75-.75.75z"/>
</svg>
