<svg xmlns="http://www.w3.org/2000/svg" viewBox="0 0 24 24" fill="currentColor" aria-hidden="true">
  <path d="M11.4 22.75H7.6c-4.39 0-6.35-1.96-6.35-6.35v-3.8c0-4.39 1.96-6.35 6.35-6.35h3c.41 0 .75.34.75.75s-.34.75-.75.75h-3c-3.58 0-4.85 1.27-4.85 4.85v3.8c0 3.58 1.27 4.85 4.85 4.85h3.8c3.58 0 4.85-1.27 4.85-4.85v-3c0-.41.34-.75.75-.75s.75.34.75.75v3c0 4.39-1.96 6.35-6.35 6.35z"/>
  <path d="M17 14.15h-3.2c-2.81 0-3.95-1.14-3.95-3.95V7c0-.3.18-.58.46-.69.28-.12.6-.05.82.16l6.4 6.4c.21.21.28.54.16.82a.74.74 0 01-.69.46zm-5.65-5.34v1.39c0 1.99.46 2.45 2.45 2.45h1.39l-3.84-3.84zM15.6 2.75h-4c-.41 0-.75-.34-.75-.75s.34-.75.75-.75h4c.41 0 .75.34.75.75s-.34.75-.75.75z"/>
  <path d="M7 5.75c-.41 0-.75-.34-.75-.75 0-2.07 1.68-3.75 3.75-3.75h2.62c.41 0 .75.34.75.75s-.34.75-.75.75H10C8.76 2.75 7.75 3.76 7.75 5c0 .41-.34.75-.75.75zM19.19 17.75c-.41 0-.75-.34-.75-.75s.34-.75.75-.75c1.14 0 2.06-.93 2.06-2.06V8c0-.41.34-.75.75-.75s.75.34.75.75v6.19c0 1.96-1.6 3.56-3.56 3.56z"/>
  <path d="M22 8.75h-3c-2.66 0-3.75-1.09-3.75-3.75V2c0-.3.18-.58.46-.69.28-.12.6-.05.82.16l6 6c.21.21.28.54.16.82a.74.74 0 01-.69.46zm-5.25-4.94V5c0 1.83.42 2.25 2.25 2.25h1.19l-3.44-3.44z"/>
</svg>
