<svg xmlns="http://www.w3.org/2000/svg" viewBox="0 0 24 24" fill="currentColor" aria-hidden="true">
  <path d="M17 22.75H7c-4.41 0-5.75-1.34-5.75-5.75v-2c0-4.41 1.34-5.75 5.75-5.75h10c4.41 0 5.75 1.34 5.75 5.75v2c0 4.41-1.34 5.75-5.75 5.75zm-10-12c-3.58 0-4.25.68-4.25 4.25v2c0 3.57.67 4.25 4.25 4.25h10c3.58 0 4.25-.68 4.25-4.25v-2c0-3.57-.67-4.25-4.25-4.25H7z"/>
  <path d="M6 10.75c-.41 0-.75-.34-.75-.75V8c0-2.9.7-6.75 6.75-6.75 4.48 0 6.75 1.93 6.75 5.75 0 .41-.34.75-.75.75s-.75-.34-.75-.75c0-1.98-.6-4.25-5.25-4.25-4.36 0-5.25 2.1-5.25 5.25v2c0 .41-.34.75-.75.75zM12 19.25c-1.79 0-3.25-1.46-3.25-3.25s1.46-3.25 3.25-3.25 3.25 1.46 3.25 3.25-1.46 3.25-3.25 3.25zm0-5c-.96 0-1.75.79-1.75 1.75s.79 1.75 1.75 1.75 1.75-.79 1.75-1.75-.79-1.75-1.75-1.75z"/>
</svg>
