<svg xmlns="http://www.w3.org/2000/svg" viewBox="0 0 24 24" fill="currentColor" aria-hidden="true">
  <path d="M13.5 9.25H2c-.41 0-.75-.34-.75-.75s.34-.75.75-.75h11.5c.41 0 .75.34.75.75s-.34.75-.75.75zM8 17.25H6c-.41 0-.75-.34-.75-.75s.34-.75.75-.75h2c.41 0 .75.34.75.75s-.34.75-.75.75zM14.5 17.25h-4c-.41 0-.75-.34-.75-.75s.34-.75.75-.75h4c.41 0 .75.34.75.75s-.34.75-.75.75z"/>
  <path d="M17.56 21.25H6.44c-3.98 0-5.19-1.2-5.19-5.14V7.89c0-3.94 1.21-5.14 5.19-5.14h7.06c.41 0 .75.34.75.75s-.34.75-.75.75H6.44c-3.14 0-3.69.54-3.69 3.64v8.21c0 3.1.55 3.64 3.69 3.64h11.11c3.14 0 3.69-.54 3.69-3.64v-4.08c0-.41.34-.75.75-.75s.75.34.75.75v4.08c.01 3.95-1.2 5.15-5.18 5.15z"/>
  <path d="M22 7h-5.5c-.41 0-.75-.34-.75-.75s.34-.75.75-.75H22c.41 0 .75.34.75.75S22.41 7 22 7z"/>
  <path d="M19.25 9.75c-.41 0-.75-.34-.75-.75V3.5c0-.41.34-.75.75-.75s.75.34.75.75V9c0 .41-.34.75-.75.75z"/>
</svg>
