<svg xmlns="http://www.w3.org/2000/svg" viewBox="0 0 24 24" fill="currentColor" aria-hidden="true">
  <path d="M8 21.75h-.08a.751.751 0 01-.66-.83l2-18c.05-.41.42-.7.83-.66.41.05.71.42.66.83l-2 18c-.05.38-.37.66-.75.66zM14 21.75h-.08a.751.751 0 01-.66-.83l2-18c.05-.41.41-.7.83-.66.41.05.71.42.66.83l-2 18c-.05.38-.37.66-.75.66z"/>
  <path d="M21.5 9.75h-18c-.41 0-.75-.34-.75-.75s.34-.75.75-.75h18c.41 0 .75.34.75.75s-.34.75-.75.75zM20.5 15.75h-18c-.41 0-.75-.34-.75-.75s.34-.75.75-.75h18c.41 0 .75.34.75.75s-.34.75-.75.75z"/>
</svg>
