<svg xmlns="http://www.w3.org/2000/svg" viewBox="0 0 24 24" fill="currentColor" aria-hidden="true">
  <path d="M17.18 18.75c-1.71 0-3.75-.65-3.75-3.75V9c0-3.1 2.04-3.75 3.75-3.75s3.75.65 3.75 3.75v6c0 3.1-2.04 3.75-3.75 3.75zm0-12c-1.62 0-2.25.63-2.25 2.25v6c0 1.62.63 2.25 2.25 2.25s2.25-.63 2.25-2.25V9c0-1.62-.63-2.25-2.25-2.25zM6.82 18.75c-1.71 0-3.75-.65-3.75-3.75V9c0-3.1 2.04-3.75 3.75-3.75s3.75.65 3.75 3.75v6c0 3.1-2.04 3.75-3.75 3.75zm0-12c-1.62 0-2.25.63-2.25 2.25v6c0 1.62.63 2.25 2.25 2.25s2.25-.63 2.25-2.25V9c0-1.62-.63-2.25-2.25-2.25z"/>
  <path d="M14.18 12.75H9.82c-.41 0-.75-.34-.75-.75s.34-.75.75-.75h4.36a.749.749 0 110 1.5zM22.5 15.25c-.41 0-.75-.34-.75-.75v-5c0-.41.34-.75.75-.75s.75.34.75.75v5c0 .41-.34.75-.75.75zM1.5 15.25c-.41 0-.75-.34-.75-.75v-5c0-.41.34-.75.75-.75s.75.34.75.75v5c0 .41-.34.75-.75.75z"/>
</svg>
