<svg xmlns="http://www.w3.org/2000/svg" viewBox="0 0 24 24" fill="currentColor" aria-hidden="true">
  <path d="M11.97 22.75C6.05 22.75 1.22 17.93 1.22 12S6.05 1.25 11.97 1.25 22.72 6.07 22.72 12 17.9 22.75 11.97 22.75zm0-20c-5.1 0-9.25 4.15-9.25 9.25s4.15 9.25 9.25 9.25 9.25-4.15 9.25-9.25-4.15-9.25-9.25-9.25z"/>
  <path d="M13.27 16.98h-2.54c-2.53 0-3.71-1.18-3.71-3.71v-2.54c0-2.53 1.18-3.71 3.71-3.71h2.54c2.53 0 3.71 1.18 3.71 3.71v2.54c0 2.53-1.18 3.71-3.71 3.71zm-2.54-8.46c-1.69 0-2.21.52-2.21 2.21v2.54c0 1.69.52 2.21 2.21 2.21h2.54c1.69 0 2.21-.52 2.21-2.21v-2.54c0-1.69-.52-2.21-2.21-2.21h-2.54z"/>
</svg>
