<svg xmlns="http://www.w3.org/2000/svg" viewBox="0 0 24 24" fill="currentColor" aria-hidden="true">
  <path d="M12 12.75c-3.17 0-5.75-2.58-5.75-5.75S8.83 1.25 12 1.25 17.75 3.83 17.75 7s-2.58 5.75-5.75 5.75zm0-10A4.26 4.26 0 007.75 7 4.26 4.26 0 0012 11.25 4.26 4.26 0 0016.25 7 4.26 4.26 0 0012 2.75zM3.41 22.75c-.41 0-.75-.34-.75-.75 0-4.27 4.19-7.75 9.34-7.75.41 0 .75.34.75.75s-.34.75-.75.75c-4.32 0-7.84 2.8-7.84 6.25 0 .41-.34.75-.75.75zM18.2 22.15c-2.18 0-3.95-1.77-3.95-3.95s1.77-3.95 3.95-3.95 3.95 1.77 3.95 3.95-1.77 3.95-3.95 3.95zm0-6.4c-1.35 0-2.45 1.1-2.45 2.45s1.1 2.45 2.45 2.45 2.45-1.1 2.45-2.45-1.1-2.45-2.45-2.45z"/>
  <path d="M22 22.75c-.19 0-.38-.07-.53-.22l-1-1a.755.755 0 010-1.06c.29-.29.77-.29 1.06 0l1 1c.29.29.29.77 0 1.06-.15.15-.34.22-.53.22z"/>
</svg>
