<svg xmlns="http://www.w3.org/2000/svg" viewBox="0 0 24 24" fill="currentColor" aria-hidden="true">
  <path d="M13.58 22.75H6.21c-2.74 0-4.96-2.23-4.96-4.96v-7.32c0-2.74 2.23-4.96 4.96-4.96h7.37c2.74 0 4.96 2.23 4.96 4.96v7.32c0 2.73-2.23 4.96-4.96 4.96zM6.21 7.01c-1.91 0-3.46 1.55-3.46 3.46v7.32c0 1.91 1.55 3.46 3.46 3.46h7.37c1.91 0 3.46-1.55 3.46-3.46v-7.32c0-1.91-1.55-3.46-3.46-3.46H6.21zM5.5 4.75c-.41 0-.75-.34-.75-.75V2.25c0-.41.34-.75.75-.75s.75.34.75.75V4c0 .41-.34.75-.75.75zM9.5 4.75c-.41 0-.75-.34-.75-.75V2.25c0-.41.34-.75.75-.75s.75.34.75.75V4c0 .41-.34.75-.75.75zM13.5 4.75c-.41 0-.75-.34-.75-.75V2.25c0-.41.34-.75.75-.75s.75.34.75.75V4c0 .41-.34.75-.75.75z"/>
  <path d="M17.79 18.12c-.41 0-.75-.34-.75-.75V8.95c0-.41.34-.75.75-.75 2.74 0 4.96 2.23 4.96 4.96s-2.23 4.96-4.96 4.96zm.75-8.34v6.76a3.464 3.464 0 000-6.76z"/>
  <path d="M17.51 12.75H2c-.41 0-.75-.34-.75-.75s.34-.75.75-.75h15.51c.41 0 .75.34.75.75s-.34.75-.75.75z"/>
</svg>
