<svg xmlns="http://www.w3.org/2000/svg" viewBox="0 0 24 24" fill="currentColor" aria-hidden="true">
  <path d="M21 5.25h-7c-.41 0-.75-.34-.75-.75s.34-.75.75-.75h7c.41 0 .75.34.75.75s-.34.75-.75.75zM21 10.25h-7c-.41 0-.75-.34-.75-.75s.34-.75.75-.75h7c.41 0 .75.34.75.75s-.34.75-.75.75zM21 15.25H3c-.41 0-.75-.34-.75-.75s.34-.75.75-.75h18c.41 0 .75.34.75.75s-.34.75-.75.75zM21 20.25H3c-.41 0-.75-.34-.75-.75s.34-.75.75-.75h18c.41 0 .75.34.75.75s-.34.75-.75.75zM7.92 10.75H5.08c-1.54 0-2.33-.78-2.33-2.33V5.58c0-1.54.78-2.33 2.33-2.33h2.85c1.54 0 2.33.78 2.33 2.33v2.85c-.01 1.54-.79 2.32-2.34 2.32zm-2.84-6c-.71 0-.83.12-.83.83v2.85c0 .71.12.83.83.83h2.85c.71 0 .83-.12.83-.83V5.58c0-.71-.12-.83-.83-.83H5.08z"/>
</svg>
