<svg xmlns="http://www.w3.org/2000/svg" viewBox="0 0 24 24" fill="currentColor" aria-hidden="true">
  <path d="M21.9 10.78h-20c-.41 0-.75-.34-.75-.75s.34-.75.75-.75h20a.749.749 0 110 1.5z"/>
  <path d="M11.46 21.28H6.35c-3.98 0-5.2-1.2-5.2-5.14V7.92c0-3.15.67-4.9 4.24-5.11.31-.01.62-.02.96-.02h11.11c3.98 0 5.2 1.2 5.2 5.14v4.41c0 .41-.34.75-.75.75s-.75-.34-.75-.75V7.93c0-3.09-.55-3.64-3.7-3.64H6.35c-.32 0-.61.01-.89.02-2.17.13-2.81.62-2.81 3.62v8.22c0 3.09.55 3.64 3.7 3.64h5.11c.41 0 .75.34.75.75s-.34.74-.75.74z"/>
  <path d="M17.9 22.78c-2.62 0-4.75-2.13-4.75-4.75s2.13-4.75 4.75-4.75 4.75 2.13 4.75 4.75-2.13 4.75-4.75 4.75zm0-8c-1.79 0-3.25 1.46-3.25 3.25s1.46 3.25 3.25 3.25 3.25-1.46 3.25-3.25-1.46-3.25-3.25-3.25z"/>
  <path d="M18.97 19.9c-.19 0-.38-.07-.53-.22l-2.11-2.11a.754.754 0 010-1.06c.29-.29.77-.29 1.06 0l2.11 2.11c.29.29.29.77 0 1.06-.14.14-.34.22-.53.22z"/>
  <path d="M16.83 19.92c-.19 0-.38-.07-.53-.22a.754.754 0 010-1.06l2.11-2.11c.29-.29.77-.29 1.06 0 .29.29.29.77 0 1.06l-2.11 2.11a.71.71 0 01-.53.22zM9.9 16.78h-4c-.41 0-.75-.34-.75-.75s.34-.75.75-.75h4a.749.749 0 110 1.5z"/>
</svg>
