<svg xmlns="http://www.w3.org/2000/svg" viewBox="0 0 24 24" fill="currentColor" aria-hidden="true">
  <path d="M17.54 9.06c-1.77 0-3.21-1.44-3.21-3.21s1.44-3.21 3.21-3.21 3.21 1.44 3.21 3.21-1.44 3.21-3.21 3.21zm0-4.93c-.94 0-1.71.77-1.71 1.71s.77 1.71 1.71 1.71 1.71-.77 1.71-1.71-.77-1.71-1.71-1.71zM6.46 9.06c-1.77 0-3.21-1.44-3.21-3.21s1.44-3.21 3.21-3.21 3.21 1.44 3.21 3.21-1.44 3.21-3.21 3.21zm0-4.93c-.94 0-1.71.77-1.71 1.71s.77 1.71 1.71 1.71 1.71-.77 1.71-1.71-.76-1.71-1.71-1.71zM17.54 21.37c-1.77 0-3.21-1.44-3.21-3.21s1.44-3.21 3.21-3.21 3.21 1.44 3.21 3.21-1.44 3.21-3.21 3.21zm0-4.93c-.94 0-1.71.77-1.71 1.71s.77 1.71 1.71 1.71 1.71-.77 1.71-1.71-.77-1.71-1.71-1.71zM6.46 21.37c-1.77 0-3.21-1.44-3.21-3.21s1.44-3.21 3.21-3.21 3.21 1.44 3.21 3.21-1.44 3.21-3.21 3.21zm0-4.93c-.94 0-1.71.77-1.71 1.71s.77 1.71 1.71 1.71 1.71-.77 1.71-1.71-.76-1.71-1.71-1.71z"/>
</svg>
