<svg xmlns="http://www.w3.org/2000/svg" viewBox="0 0 24 24" fill="currentColor" aria-hidden="true">
  <path d="M12 14.75c-1.52 0-2.75-1.23-2.75-2.75S10.48 9.25 12 9.25s2.75 1.23 2.75 2.75-1.23 2.75-2.75 2.75zm0-4a1.25 1.25 0 100 2.5 1.25 1.25 0 000-2.5zM20 18.75a.75.75 0 01-.6-1.2A9.17 9.17 0 0021.25 12c0-2.02-.64-3.94-1.85-5.55a.75.75 0 011.2-.9c1.41 1.87 2.15 4.1 2.15 6.45 0 2.35-.74 4.58-2.15 6.45-.15.2-.37.3-.6.3zM4 18.75c-.23 0-.45-.1-.6-.3-1.41-1.87-2.15-4.1-2.15-6.45 0-2.35.74-4.58 2.15-6.45a.75.75 0 011.2.9A9.17 9.17 0 002.75 12c0 2.02.64 3.94 1.85 5.55a.75.75 0 01-.6 1.2zM16.801 16.35a.75.75 0 01-.6-1.2c.69-.91 1.05-2 1.05-3.15s-.36-2.24-1.05-3.15a.75.75 0 011.2-.9 6.73 6.73 0 011.35 4.05c0 1.47-.47 2.88-1.35 4.05-.15.2-.37.3-.6.3zM7.2 16.35c-.23 0-.45-.1-.6-.3A6.73 6.73 0 015.25 12c0-1.47.47-2.88 1.35-4.05a.75.75 0 011.2.9c-.69.91-1.05 2-1.05 3.15s.36 2.24 1.05 3.15a.75.75 0 01-.6 1.2z"/>
</svg>
