<svg xmlns="http://www.w3.org/2000/svg" viewBox="0 0 24 24" fill="currentColor" aria-hidden="true">
  <path d="M5 14.75c-1.52 0-2.75-1.23-2.75-2.75S3.48 9.25 5 9.25 7.75 10.48 7.75 12 6.52 14.75 5 14.75zm0-4a1.25 1.25 0 100 2.5 1.25 1.25 0 000-2.5zM19 14.75c-1.52 0-2.75-1.23-2.75-2.75S17.48 9.25 19 9.25s2.75 1.23 2.75 2.75-1.23 2.75-2.75 2.75zm0-4a1.25 1.25 0 100 2.5 1.25 1.25 0 000-2.5zM12 14.75c-1.52 0-2.75-1.23-2.75-2.75S10.48 9.25 12 9.25s2.75 1.23 2.75 2.75-1.23 2.75-2.75 2.75zm0-4a1.25 1.25 0 100 2.5 1.25 1.25 0 000-2.5z"/>
</svg>
