<svg xmlns="http://www.w3.org/2000/svg" viewBox="0 0 24 24" fill="currentColor" aria-hidden="true">
  <path d="M16.5 15.25c-.19 0-.38-.07-.53-.22l-3.55-3.55-1.09 1.64c-.12.19-.33.31-.55.33a.73.73 0 01-.6-.22l-3.2-3.2a.754.754 0 010-1.06c.29-.29.77-.29 1.06 0l2.55 2.55 1.09-1.64c.12-.18.32-.3.55-.33.23-.02.45.06.6.22l4.2 4.2c.29.29.29.77 0 1.06-.15.15-.34.22-.53.22z"/>
  <path d="M16.5 15.25h-2c-.41 0-.75-.34-.75-.75s.34-.75.75-.75h1.25V12.5c0-.41.34-.75.75-.75s.75.34.75.75v2c0 .41-.34.75-.75.75z"/>
  <path d="M15 22.75H9c-5.43 0-7.75-2.32-7.75-7.75V9c0-5.43 2.32-7.75 7.75-7.75h6c5.43 0 7.75 2.32 7.75 7.75v6c0 5.43-2.32 7.75-7.75 7.75zm-6-20C4.39 2.75 2.75 4.39 2.75 9v6c0 4.61 1.64 6.25 6.25 6.25h6c4.61 0 6.25-1.64 6.25-6.25V9c0-4.61-1.64-6.25-6.25-6.25H9z"/>
</svg>
