<svg xmlns="http://www.w3.org/2000/svg" viewBox="0 0 24 24" fill="currentColor" aria-hidden="true">
  <path d="M22 7.25h-6c-.41 0-.75-.34-.75-.75s.34-.75.75-.75h6c.41 0 .75.34.75.75s-.34.75-.75.75zM6 7.25H2c-.41 0-.75-.34-.75-.75s.34-.75.75-.75h4c.41 0 .75.34.75.75s-.34.75-.75.75z"/>
  <path d="M10 10.75A4.26 4.26 0 015.75 6.5 4.26 4.26 0 0110 2.25a4.26 4.26 0 014.25 4.25A4.26 4.26 0 0110 10.75zm0-7c-1.52 0-2.75 1.23-2.75 2.75S8.48 9.25 10 9.25s2.75-1.23 2.75-2.75S11.52 3.75 10 3.75zM22 18.25h-4c-.41 0-.75-.34-.75-.75s.34-.75.75-.75h4c.41 0 .75.34.75.75s-.34.75-.75.75zM8 18.25H2c-.41 0-.75-.34-.75-.75s.34-.75.75-.75h6c.41 0 .75.34.75.75s-.34.75-.75.75z"/>
  <path d="M14 21.75a4.26 4.26 0 01-4.25-4.25A4.26 4.26 0 0114 13.25a4.26 4.26 0 014.25 4.25A4.26 4.26 0 0114 21.75zm0-7c-1.52 0-2.75 1.23-2.75 2.75s1.23 2.75 2.75 2.75 2.75-1.23 2.75-2.75-1.23-2.75-2.75-2.75z"/>
</svg>
