<svg xmlns="http://www.w3.org/2000/svg" viewBox="0 0 24 24" fill="currentColor" aria-hidden="true">
  <path d="M14.75 11.75h-5.5c-.41 0-.75-.34-.75-.75s.34-.75.75-.75h5.5c.41 0 .75.34.75.75s-.34.75-.75.75z"/>
  <path d="M12 22.76a5.97 5.97 0 01-4.13-1.67c-2.95-2.84-6.21-7.37-4.98-12.76C4 3.44 8.27 1.25 12 1.25h.01c3.73 0 8 2.19 9.11 7.09 1.22 5.39-2.04 9.91-4.99 12.75A5.97 5.97 0 0112 22.76zm0-20.01c-2.91 0-6.65 1.55-7.64 5.91C3.28 13.37 6.24 17.43 8.92 20a4.426 4.426 0 006.17 0c2.67-2.57 5.63-6.63 4.57-11.34-1-4.36-4.75-5.91-7.66-5.91z"/>
</svg>
