<svg xmlns="http://www.w3.org/2000/svg" viewBox="0 0 24 24" fill="currentColor" aria-hidden="true">
  <path d="M23 22.75H1c-.41 0-.75-.34-.75-.75s.34-.75.75-.75h22c.41 0 .75.34.75.75s-.34.75-.75.75z"/>
  <path d="M19.78 22.76c-.41 0-.75-.34-.75-.75v-4.46c0-.41.34-.75.75-.75s.75.34.75.75v4.46c0 .41-.33.75-.75.75z"/>
  <path d="M19.8 18.3c-1.63 0-2.95-1.32-2.95-2.95v-2.27a2.949 2.949 0 115.9 0v2.27c0 1.63-1.32 2.95-2.95 2.95zm0-6.66c-.8 0-1.45.65-1.45 1.45v2.27a1.451 1.451 0 002.9 0v-2.27c0-.8-.65-1.45-1.45-1.45zM14.3 22.75c-.41 0-.75-.34-.75-.75V6.03c0-1.59-.67-2.27-2.23-2.27H5.09c-1.57 0-2.25.68-2.25 2.27V22c0 .41-.34.75-.75.75s-.75-.34-.75-.75V6.03c0-2.43 1.33-3.77 3.75-3.77h6.23c2.41 0 3.73 1.34 3.73 3.77V22c0 .41-.34.75-.75.75z"/>
  <path d="M10.75 9H5.8c-.41 0-.75-.34-.75-.75s.34-.75.75-.75h4.95c.41 0 .75.34.75.75s-.34.75-.75.75zM10.75 12.75H5.8c-.41 0-.75-.34-.75-.75s.34-.75.75-.75h4.95c.41 0 .75.34.75.75s-.34.75-.75.75zM8.25 22.75c-.41 0-.75-.34-.75-.75v-3.75c0-.41.34-.75.75-.75s.75.34.75.75V22c0 .41-.34.75-.75.75z"/>
</svg>
