<svg xmlns="http://www.w3.org/2000/svg" viewBox="0 0 24 24" fill="currentColor" aria-hidden="true">
  <path d="M12 22.75C6.07 22.75 1.25 17.93 1.25 12S6.07 1.25 12 1.25 22.75 6.07 22.75 12 17.93 22.75 12 22.75zm0-20C6.9 2.75 2.75 6.9 2.75 12S6.9 21.25 12 21.25s9.25-4.15 9.25-9.25S17.1 2.75 12 2.75z"/>
  <path d="M10.5 16.75c-1.79 0-3.25-1.46-3.25-3.25 0-3.45 2.8-6.25 6.25-6.25 1.79 0 3.25 1.46 3.25 3.25 0 3.45-2.8 6.25-6.25 6.25zm3-8c-2.62 0-4.75 2.13-4.75 4.75 0 .96.79 1.75 1.75 1.75 2.62 0 4.75-2.13 4.75-4.75 0-.96-.79-1.75-1.75-1.75z"/>
</svg>
