<svg xmlns="http://www.w3.org/2000/svg" viewBox="0 0 24 24" fill="currentColor" aria-hidden="true">
  <path d="M2 9.75c-.41 0-.75-.34-.75-.75V6.5c0-2.89 2.36-5.25 5.25-5.25H9c.41 0 .75.34.75.75s-.34.75-.75.75H6.5c-2.07 0-3.75 1.68-3.75 3.75V9c0 .41-.34.75-.75.75zM22 9.75c-.41 0-.75-.34-.75-.75V6.5c0-2.07-1.68-3.75-3.75-3.75H15c-.41 0-.75-.34-.75-.75s.34-.75.75-.75h2.5c2.89 0 5.25 2.36 5.25 5.25V9c0 .41-.34.75-.75.75zM17.5 22.75H16c-.41 0-.75-.34-.75-.75s.34-.75.75-.75h1.5c2.07 0 3.75-1.68 3.75-3.75V16c0-.41.34-.75.75-.75s.75.34.75.75v1.5c0 2.89-2.36 5.25-5.25 5.25zM9 22.75H6.5c-2.89 0-5.25-2.36-5.25-5.25V15c0-.41.34-.75.75-.75s.75.34.75.75v2.5c0 2.07 1.68 3.75 3.75 3.75H9c.41 0 .75.34.75.75s-.34.75-.75.75zM18 14.75c-.41 0-.75-.34-.75-.75v-1.25H6.75V14c0 .41-.34.75-.75.75s-.75-.34-.75-.75v-4c0-.41.34-.75.75-.75s.75.34.75.75v1.25h10.5V10c0-.41.34-.75.75-.75s.75.34.75.75v4c0 .41-.34.75-.75.75z"/>
  <path d="M14 18.75h-4c-.41 0-.75-.34-.75-.75s.34-.75.75-.75h1.25V6.75H10c-.41 0-.75-.34-.75-.75s.34-.75.75-.75h4c.41 0 .75.34.75.75s-.34.75-.75.75h-1.25v10.5H14c.41 0 .75.34.75.75s-.34.75-.75.75z"/>
</svg>
