<svg xmlns="http://www.w3.org/2000/svg" viewBox="0 0 24 24" fill="currentColor" aria-hidden="true">
  <path d="M16.5 18.25h-1.51c-.41 0-.75-.34-.75-.75s.34-.75.75-.75h1.51c2.62 0 4.75-2.13 4.75-4.75s-2.13-4.75-4.75-4.75H15a.749.749 0 110-1.5h1.5c3.45 0 6.25 2.8 6.25 6.25s-2.8 6.25-6.25 6.25zM9 18.25H7.5c-3.45 0-6.25-2.8-6.25-6.25s2.8-6.25 6.25-6.25H9c.41 0 .75.34.75.75s-.34.75-.75.75H7.5c-2.62 0-4.75 2.13-4.75 4.75s2.13 4.75 4.75 4.75H9c.41 0 .75.34.75.75s-.34.75-.75.75z"/>
  <path d="M16 12.75H8c-.41 0-.75-.34-.75-.75s.34-.75.75-.75h8c.41 0 .75.34.75.75s-.34.75-.75.75z"/>
</svg>
