<svg xmlns="http://www.w3.org/2000/svg" viewBox="0 0 24 24" fill="currentColor" aria-hidden="true">
  <path d="M17.01 13.48c-1 0-1.82-.82-1.82-1.82s.82-1.82 1.82-1.82 1.82.82 1.82 1.82-.82 1.82-1.82 1.82zm0-2.14c-.18 0-.32.14-.32.32s.14.32.32.32.32-.14.32-.32-.14-.32-.32-.32z"/>
  <path d="M12.02 16.45H6c-3.6 0-4.75-1.15-4.75-4.75V6C1.25 2.4 2.4 1.25 6 1.25h10c3.6 0 4.75 1.15 4.75 4.75v1.79c0 .21-.09.42-.25.56-.16.14-.37.21-.59.18-.22-.03-.48-.04-.76-.04h-4.28c-1.73 0-2.1.37-2.1 2.1v5.11c0 .41-.34.75-.75.75zM6 2.75c-2.79 0-3.25.46-3.25 3.25v5.7c0 2.79.46 3.25 3.25 3.25h5.27v-4.36c0-2.56 1.04-3.6 3.6-3.6h4.38V6c0-2.79-.46-3.25-3.25-3.25H6z"/>
  <path d="M9 20.75c-.41 0-.75-.34-.75-.75v-4.3c0-.41.34-.75.75-.75s.75.34.75.75V20c0 .41-.34.75-.75.75zM12 12.65H2c-.41 0-.75-.34-.75-.75s.34-.75.75-.75h10c.41 0 .75.34.75.75s-.34.75-.75.75z"/>
  <path d="M12 20.75H5.95c-.41 0-.75-.34-.75-.75s.34-.75.75-.75H12c.41 0 .75.34.75.75s-.34.75-.75.75zM17.01 13.48c-1 0-1.82-.82-1.82-1.82s.82-1.82 1.82-1.82 1.82.82 1.82 1.82-.82 1.82-1.82 1.82zm0-2.14c-.18 0-.32.14-.32.32s.14.32.32.32.32-.14.32-.32-.14-.32-.32-.32z"/>
  <path stroke="#292D32" stroke-linecap="round" stroke-linejoin="round" stroke-miterlimit="10" stroke-width="1.5" d="M20 7.79c-.25-.03-.54-.05-.85-.05h-4.28c-2.14 0-2.85.71-2.85 2.85v8.56c0 2.14.71 2.85 2.85 2.85h4.28c2.14 0 2.85-.71 2.85-2.85v-8.56c0-1.83-.52-2.61-2-2.8zm-2.99 2.8a1.071 1.071 0 010 2.14c-.59 0-1.07-.48-1.07-1.07 0-.59.48-1.07 1.07-1.07zm0 8.56c-1.18 0-2.14-.96-2.14-2.14a2.142 2.142 0 013.54-1.62c.45.4.74.98.74 1.62 0 1.18-.96 2.14-2.14 2.14z"/>
  <path d="M17.01 19.9c-1.59 0-2.89-1.3-2.89-2.89 0-.64.22-1.27.61-1.77a2.88 2.88 0 012.28-1.12c.69 0 1.37.25 1.89.7.64.57 1 1.36 1 2.19 0 1.59-1.3 2.89-2.89 2.89zm0-4.28c-.43 0-.83.2-1.1.54-.19.24-.29.54-.29.85 0 .77.62 1.39 1.39 1.39.77 0 1.39-.62 1.39-1.39 0-.4-.18-.78-.49-1.06-.24-.21-.57-.33-.9-.33zM17.01 13.48c-1 0-1.82-.82-1.82-1.82s.82-1.82 1.82-1.82 1.82.82 1.82 1.82-.82 1.82-1.82 1.82zm0-2.14c-.18 0-.32.14-.32.32s.14.32.32.32.32-.14.32-.32-.14-.32-.32-.32z"/>
</svg>
