<svg xmlns="http://www.w3.org/2000/svg" viewBox="0 0 24 24" fill="currentColor" aria-hidden="true">
  <path d="M12 22.75C6.07 22.75 1.25 17.93 1.25 12S6.07 1.25 12 1.25 22.75 6.07 22.75 12c0 .41-.34.75-.75.75s-.75-.34-.75-.75c0-5.1-4.15-9.25-9.25-9.25S2.75 6.9 2.75 12 6.9 21.25 12 21.25c.41 0 .75.34.75.75s-.34.75-.75.75z"/>
  <path d="M9 21.75H8c-.41 0-.75-.34-.75-.75s.32-.74.73-.75a29.49 29.49 0 010-16.5.752.752 0 01-.73-.75c0-.41.34-.75.75-.75h1c.24 0 .47.12.61.31.14.2.18.45.1.68a27.948 27.948 0 000 17.53c.08.23.04.48-.1.68-.14.2-.37.3-.61.3zM16.46 12.75c-.41 0-.75-.34-.75-.75 0-2.98-.48-5.93-1.42-8.76-.13-.39.08-.82.47-.95.39-.13.82.08.95.47.99 2.98 1.5 6.09 1.5 9.24 0 .41-.34.75-.75.75z"/>
  <path d="M12 17.21c-2.8 0-5.57-.4-8.25-1.19-.01.4-.34.73-.75.73s-.75-.34-.75-.75v-1c0-.24.12-.47.31-.61.2-.14.45-.18.68-.1 2.83.94 5.78 1.42 8.76 1.42.41 0 .75.34.75.75s-.34.75-.75.75zM21 9.75c-.08 0-.16-.01-.24-.04a27.948 27.948 0 00-17.53 0 .753.753 0 01-.95-.47c-.13-.39.08-.82.47-.95a29.318 29.318 0 0118.47 0c.39.13.6.56.47.95-.08.31-.38.51-.69.51zM18.2 22.15c-2.18 0-3.95-1.77-3.95-3.95s1.77-3.95 3.95-3.95 3.95 1.77 3.95 3.95-1.77 3.95-3.95 3.95zm0-6.4c-1.35 0-2.45 1.1-2.45 2.45s1.1 2.45 2.45 2.45 2.45-1.1 2.45-2.45-1.1-2.45-2.45-2.45z"/>
  <path d="M22 22.75c-.19 0-.38-.07-.53-.22l-1-1a.755.755 0 010-1.06c.29-.29.77-.29 1.06 0l1 1c.29.29.29.77 0 1.06-.15.15-.34.22-.53.22z"/>
</svg>
