<svg xmlns="http://www.w3.org/2000/svg" viewBox="0 0 24 24" fill="currentColor" aria-hidden="true">
  <path d="M22 3.75H2c-.41 0-.75-.34-.75-.75s.34-.75.75-.75h20c.41 0 .75.34.75.75s-.34.75-.75.75zM11 9.75H2c-.41 0-.75-.34-.75-.75s.34-.75.75-.75h9c.41 0 .75.34.75.75s-.34.75-.75.75zM8 15.75H2c-.41 0-.75-.34-.75-.75s.34-.75.75-.75h6c.41 0 .75.34.75.75s-.34.75-.75.75zM6 21.75H2c-.41 0-.75-.34-.75-.75s.34-.75.75-.75h4c.41 0 .75.34.75.75s-.34.75-.75.75zM11.84 22.75c-1.61 0-2.93-1.31-2.93-2.93 0-1.61 1.31-2.93 2.93-2.93s2.93 1.31 2.93 2.93-1.31 2.93-2.93 2.93zm0-4.35a1.43 1.43 0 100 2.86 1.43 1.43 0 000-2.86z"/>
  <path d="M14.02 20.57c-.41 0-.75-.34-.75-.75v-8.77c0-1.21.72-2.16 1.89-2.47l4.35-1.19c.95-.26 1.77-.16 2.35.29.58.45.88 1.18.88 2.19v8.51c0 .41-.34.75-.75.75s-.75-.34-.75-.75V9.87c0-.5-.1-.85-.29-.99-.19-.15-.58-.16-1.05-.03l-4.35 1.19c-.29.08-.78.32-.78 1.03v8.77c0 .4-.34.73-.75.73z"/>
  <path d="M19.82 21.3c-1.61 0-2.93-1.31-2.93-2.93 0-1.61 1.31-2.93 2.93-2.93s2.93 1.31 2.93 2.93-1.31 2.93-2.93 2.93zm0-4.35a1.43 1.43 0 100 2.86 1.43 1.43 0 000-2.86zM14.02 14.35a.747.747 0 01-.19-1.47l7.98-2.18a.75.75 0 11.39 1.45l-7.98 2.18c-.07.01-.14.02-.2.02z"/>
</svg>
