<svg xmlns="http://www.w3.org/2000/svg" viewBox="0 0 24 24" fill="currentColor" aria-hidden="true">
  <path d="M15.59 13.01a5.89 5.89 0 01-5.88-5.88 5.89 5.89 0 015.88-5.88 5.89 5.89 0 015.88 5.88 5.89 5.89 0 01-5.88 5.88zm0-10.26c-2.41 0-4.38 1.96-4.38 4.38s1.96 4.38 4.38 4.38 4.38-1.96 4.38-4.38S18 2.75 15.59 2.75zM6.361 20.19c-2.11 0-3.83-1.72-3.83-3.83 0-2.11 1.72-3.83 3.83-3.83 2.11 0 3.83 1.72 3.83 3.83 0 2.11-1.72 3.83-3.83 3.83zm0-6.16c-1.28 0-2.33 1.04-2.33 2.33 0 1.28 1.04 2.33 2.33 2.33 1.28 0 2.33-1.04 2.33-2.33 0-1.28-1.05-2.33-2.33-2.33zM16.62 22.75c-1.83 0-3.31-1.49-3.31-3.31 0-1.83 1.49-3.31 3.31-3.31a3.32 3.32 0 013.31 3.31 3.32 3.32 0 01-3.31 3.31zm0-5.13a1.81 1.81 0 100 3.619 1.81 1.81 0 000-3.62z"/>
</svg>
