<svg xmlns="http://www.w3.org/2000/svg" viewBox="0 0 24 24" fill="currentColor" aria-hidden="true">
  <path d="M15 22.75H9c-5.43 0-7.75-2.32-7.75-7.75V9c0-5.43 2.32-7.75 7.75-7.75h6c5.43 0 7.75 2.32 7.75 7.75v6c0 5.43-2.32 7.75-7.75 7.75zm-6-20C4.39 2.75 2.75 4.39 2.75 9v6c0 4.61 1.64 6.25 6.25 6.25h6c4.61 0 6.25-1.64 6.25-6.25V9c0-4.61-1.64-6.25-6.25-6.25H9z"/>
  <path d="M21.48 17.86H2.52c-.41 0-.75-.34-.75-.75s.34-.75.75-.75h18.96a.749.749 0 110 1.5zM21.48 7.86H2.52a.749.749 0 110-1.5h18.96a.749.749 0 110 1.5z"/>
  <path d="M6.97 22.21c-.41 0-.75-.34-.75-.75v-4.35c0-.41.34-.75.75-.75s.75.34.75.75v4.35c0 .42-.34.75-.75.75zM12 22.72c-.41 0-.75-.34-.75-.75v-4.86c0-.41.34-.75.75-.75s.75.34.75.75v4.86c0 .41-.34.75-.75.75zM16.97 22.27c-.41 0-.75-.34-.75-.75v-4.41c0-.41.34-.75.75-.75s.75.34.75.75v4.41c0 .42-.34.75-.75.75zM6.97 7.21c-.41 0-.75-.34-.75-.75V2.11c0-.41.34-.75.75-.75s.75.34.75.75v4.35c0 .42-.34.75-.75.75zM12 7.72c-.41 0-.75-.34-.75-.75V2.11c0-.41.34-.75.75-.75s.75.34.75.75v4.86c0 .41-.34.75-.75.75z"/>
  <path d="M12 18.78c-.41 0-.75-.34-.75-.75v-11c0-.41.34-.75.75-.75s.75.34.75.75v11c0 .41-.34.75-.75.75zM16.97 7.27c-.41 0-.75-.34-.75-.75V2.11c0-.41.34-.75.75-.75s.75.34.75.75v4.41c0 .42-.34.75-.75.75z"/>
</svg>
