<svg xmlns="http://www.w3.org/2000/svg" viewBox="0 0 24 24" fill="currentColor" aria-hidden="true">
  <path d="M21 12.75c-.41 0-.75-.34-.75-.75V3.75H12c-.41 0-.75-.34-.75-.75s.34-.75.75-.75h9c.41 0 .75.34.75.75v9c0 .41-.34.75-.75.75z"/>
  <path d="M3 21.75c-.19 0-.38-.07-.53-.22a.755.755 0 010-1.06l18-18c.29-.29.77-.29 1.06 0 .29.29.29.77 0 1.06l-18 18c-.15.15-.34.22-.53.22z"/>
  <path d="M17.4 18.15c-.19 0-.38-.07-.53-.22L6.07 7.13a.754.754 0 010-1.06c.29-.29.77-.29 1.06 0l10.8 10.8c.29.29.29.77 0 1.06-.15.15-.34.22-.53.22z"/>
</svg>
