<svg xmlns="http://www.w3.org/2000/svg" viewBox="0 0 24 24" fill="currentColor" aria-hidden="true">
  <path d="M8.27 22.75H4.23c-2.01 0-2.98-.93-2.98-2.85V4.1c0-1.92.98-2.85 2.98-2.85h4.04c2.01 0 2.98.93 2.98 2.85v15.8c0 1.92-.98 2.85-2.98 2.85zm-4.04-20c-1.27 0-1.48.34-1.48 1.35v15.8c0 1.01.21 1.35 1.48 1.35h4.04c1.27 0 1.48-.34 1.48-1.35V4.1c0-1.01-.21-1.35-1.48-1.35H4.23zM19.77 11.25h-4.04c-2.01 0-2.98-.89-2.98-2.73V3.98c0-1.84.98-2.73 2.98-2.73h4.04c2.01 0 2.98.89 2.98 2.73v4.53c0 1.85-.98 2.74-2.98 2.74zm-4.04-8.5c-1.34 0-1.48.38-1.48 1.23v4.53c0 .86.14 1.23 1.48 1.23h4.04c1.34 0 1.48-.38 1.48-1.23V3.98c0-.86-.14-1.23-1.48-1.23h-4.04zM19.77 22.75h-4.04c-2.01 0-2.98-.98-2.98-2.98v-4.04c0-2.01.98-2.98 2.98-2.98h4.04c2.01 0 2.98.98 2.98 2.98v4.04c0 2-.98 2.98-2.98 2.98zm-4.04-8.5c-1.18 0-1.48.3-1.48 1.48v4.04c0 1.18.3 1.48 1.48 1.48h4.04c1.18 0 1.48-.3 1.48-1.48v-4.04c0-1.18-.3-1.48-1.48-1.48h-4.04z"/>
</svg>
