<svg xmlns="http://www.w3.org/2000/svg" viewBox="0 0 24 24" fill="currentColor" aria-hidden="true">
  <path d="M19 22.75c-.41 0-.75-.34-.75-.75V11c0-.41.34-.75.75-.75s.75.34.75.75v11c0 .41-.34.75-.75.75zM19 7.75c-.41 0-.75-.34-.75-.75V2c0-.41.34-.75.75-.75s.75.34.75.75v5c0 .41-.34.75-.75.75zM12 22.75c-.41 0-.75-.34-.75-.75v-5c0-.41.34-.75.75-.75s.75.34.75.75v5c0 .41-.34.75-.75.75zM12 13.75c-.41 0-.75-.34-.75-.75V2c0-.41.34-.75.75-.75s.75.34.75.75v11c0 .41-.34.75-.75.75zM5 22.75c-.41 0-.75-.34-.75-.75V11c0-.41.34-.75.75-.75s.75.34.75.75v11c0 .41-.34.75-.75.75zM5 7.75c-.41 0-.75-.34-.75-.75V2c0-.41.34-.75.75-.75s.75.34.75.75v5c0 .41-.34.75-.75.75z"/>
  <path d="M7 11.75H3c-.41 0-.75-.34-.75-.75s.34-.75.75-.75h4c.41 0 .75.34.75.75s-.34.75-.75.75zM21 11.75h-4c-.41 0-.75-.34-.75-.75s.34-.75.75-.75h4c.41 0 .75.34.75.75s-.34.75-.75.75zM14 13.75h-4c-.41 0-.75-.34-.75-.75s.34-.75.75-.75h4c.41 0 .75.34.75.75s-.34.75-.75.75z"/>
</svg>
