<svg xmlns="http://www.w3.org/2000/svg" viewBox="0 0 24 24" fill="currentColor" aria-hidden="true">
  <path d="M21 11.75H3c-.96 0-1.75-.79-1.75-1.75V6.68c0-.68.47-1.37 1.1-1.62l9-3.6c.38-.15.92-.15 1.3 0l9 3.6c.63.25 1.1.95 1.1 1.62V10c0 .96-.79 1.75-1.75 1.75zm-9-8.91c-.04 0-.08 0-.1.01l-8.99 3.6c-.06.03-.16.16-.16.23V10c0 .14.11.25.25.25h18c.14 0 .25-.11.25-.25V6.68c0-.07-.09-.2-.16-.23l-9-3.6c-.02-.01-.05-.01-.09-.01zM22 22.75H2c-.41 0-.75-.34-.75-.75v-3c0-.96.79-1.75 1.75-1.75h18c.96 0 1.75.79 1.75 1.75v3c0 .41-.34.75-.75.75zm-19.25-1.5h18.5V19c0-.14-.11-.25-.25-.25H3c-.14 0-.25.11-.25.25v2.25z"/>
  <path d="M4 18.75c-.41 0-.75-.34-.75-.75v-7c0-.41.34-.75.75-.75s.75.34.75.75v7c0 .41-.34.75-.75.75zM8 18.75c-.41 0-.75-.34-.75-.75v-7c0-.41.34-.75.75-.75s.75.34.75.75v7c0 .41-.34.75-.75.75zM12 18.75c-.41 0-.75-.34-.75-.75v-7c0-.41.34-.75.75-.75s.75.34.75.75v7c0 .41-.34.75-.75.75zM16 18.75c-.41 0-.75-.34-.75-.75v-7c0-.41.34-.75.75-.75s.75.34.75.75v7c0 .41-.34.75-.75.75zM20 18.75c-.41 0-.75-.34-.75-.75v-7c0-.41.34-.75.75-.75s.75.34.75.75v7c0 .41-.34.75-.75.75zM23 22.75H1c-.41 0-.75-.34-.75-.75s.34-.75.75-.75h22c.41 0 .75.34.75.75s-.34.75-.75.75zM12 9.25c-1.24 0-2.25-1.01-2.25-2.25S10.76 4.75 12 4.75 14.25 5.76 14.25 7 13.24 9.25 12 9.25zm0-3c-.41 0-.75.34-.75.75s.34.75.75.75.75-.34.75-.75-.34-.75-.75-.75z"/>
</svg>
