<svg xmlns="http://www.w3.org/2000/svg" viewBox="0 0 24 24" fill="currentColor" aria-hidden="true">
  <path d="M13.5 16.75h-3c-2.75 0-4.75-2-4.75-4.75V6.92c0-1.47 1.2-2.67 2.67-2.67h7.17c1.47 0 2.67 1.2 2.67 2.67V12c-.01 2.75-2.01 4.75-4.76 4.75zm-5.08-11c-.64 0-1.17.52-1.17 1.17V12c0 1.62 1 3.25 3.25 3.25h3c2.25 0 3.25-1.63 3.25-3.25V6.92c0-.64-.52-1.17-1.17-1.17H8.42z"/>
  <path d="M9.5 5.75c-.41 0-.75-.34-.75-.75V2c0-.41.34-.75.75-.75s.75.34.75.75v3c0 .41-.34.75-.75.75zM14.5 5.75c-.41 0-.75-.34-.75-.75V2c0-.41.34-.75.75-.75s.75.34.75.75v3c0 .41-.34.75-.75.75zM12 22.75c-.41 0-.75-.34-.75-.75v-6c0-.41.34-.75.75-.75s.75.34.75.75v6c0 .41-.34.75-.75.75z"/>
</svg>
