<svg xmlns="http://www.w3.org/2000/svg" viewBox="0 0 24 24" fill="currentColor" aria-hidden="true">
  <path d="M2 22.75c-.19 0-.38-.07-.53-.22a.754.754 0 010-1.06l20-20c.29-.29.77-.29 1.06 0 .29.29.29.77 0 1.06l-20 20c-.15.15-.34.22-.53.22zM18.88 22.75c-.56 0-1.16-.17-1.76-.5l-6.52-4.07a.747.747 0 11.79-1.27l6.49 4.05c.56.31 1.12.38 1.48.17.36-.21.57-.73.57-1.42v-11c0-.41.34-.75.75-.75s.75.34.75.75v11c0 1.23-.48 2.22-1.31 2.71-.37.22-.79.33-1.24.33z"/>
  <path d="M3.32 20.7c-.41 0-.75-.34-.75-.75V5.86c0-2.54 2.07-4.61 4.61-4.61h9.65c1.39 0 2.7.62 3.58 1.71.26.32.21.79-.11 1.06-.32.26-.79.21-1.05-.11a3.1 3.1 0 00-2.42-1.16H7.18a3.12 3.12 0 00-3.11 3.11v14.09c0 .41-.34.75-.75.75z"/>
</svg>
