<svg xmlns="http://www.w3.org/2000/svg" viewBox="0 0 24 24" fill="currentColor" aria-hidden="true">
  <path d="M17.5 22.75h-14c-.41 0-.75-.34-.75-.75V5c0-2.24 1.51-3.75 3.75-3.75h8c2.24 0 3.75 1.51 3.75 3.75v17c0 .41-.34.75-.75.75zm-13.25-1.5h12.5V5c0-1.41-.84-2.25-2.25-2.25h-8c-1.41 0-2.25.84-2.25 2.25v16.25z"/>
  <path d="M19 22.75H2c-.41 0-.75-.34-.75-.75s.34-.75.75-.75h17c.41 0 .75.34.75.75s-.34.75-.75.75zM12.61 10.75H8.38c-1.63 0-2.64-1.01-2.64-2.64V6.88c0-1.63 1.01-2.64 2.64-2.64h4.23c1.63 0 2.64 1.01 2.64 2.64v1.23c0 1.63-1.01 2.64-2.64 2.64zm-4.22-5c-.81 0-1.14.33-1.14 1.14v1.23c0 .81.33 1.14 1.14 1.14h4.23c.81 0 1.14-.33 1.14-1.14V6.89c0-.81-.33-1.14-1.14-1.14H8.39zM9.5 13.75h-3c-.41 0-.75-.34-.75-.75s.34-.75.75-.75h3c.41 0 .75.34.75.75s-.34.75-.75.75zM17.5 16.76a.749.749 0 110-1.5l3.75-.01v-4.79l-1.59-.79a.763.763 0 01-.34-1.01c.19-.37.64-.52 1.01-.34l2 1c.25.13.41.39.41.67v6c0 .41-.33.75-.75.75l-4.49.02z"/>
</svg>
