<svg xmlns="http://www.w3.org/2000/svg" viewBox="0 0 24 24" fill="currentColor" aria-hidden="true">
  <path d="M12 22.76c-1.09 0-2.17-.32-3.02-.95l-4.3-3.21c-1.14-.85-2.03-2.62-2.03-4.04V7.12c0-1.54 1.13-3.18 2.58-3.72l4.99-1.87c.99-.37 2.55-.37 3.54 0l5 1.87c1.45.54 2.58 2.18 2.58 3.72v7.43c0 1.42-.89 3.19-2.03 4.04l-4.3 3.21c-.84.64-1.92.96-3.01.96zM10.75 2.94L5.76 4.81c-.86.32-1.61 1.4-1.61 2.32v7.43c0 .95.67 2.28 1.42 2.84l4.3 3.21c1.15.86 3.1.86 4.25 0l4.3-3.21c.76-.57 1.42-1.9 1.42-2.84V7.12c0-.91-.75-1.99-1.61-2.32l-4.99-1.87c-.66-.24-1.82-.24-2.49.01z"/>
  <path d="M12 13.25c-1.52 0-2.75-1.23-2.75-2.75S10.48 7.75 12 7.75s2.75 1.23 2.75 2.75-1.23 2.75-2.75 2.75zm0-4a1.25 1.25 0 100 2.5 1.25 1.25 0 000-2.5z"/>
  <path d="M12 16.25c-.41 0-.75-.34-.75-.75v-3c0-.41.34-.75.75-.75s.75.34.75.75v3c0 .41-.34.75-.75.75z"/>
</svg>
