<svg xmlns="http://www.w3.org/2000/svg" viewBox="0 0 24 24" fill="currentColor" aria-hidden="true">
  <path d="M11.97 22.75C6.05 22.75 1.22 17.93 1.22 12S6.05 1.25 11.97 1.25 22.72 6.07 22.72 12 17.9 22.75 11.97 22.75zm0-20c-5.1 0-9.25 4.15-9.25 9.25s4.15 9.25 9.25 9.25 9.25-4.15 9.25-9.25-4.15-9.25-9.25-9.25z"/>
  <path d="M12 17.25c-2.9 0-5.25-2.36-5.25-5.25S9.1 6.75 12 6.75s5.25 2.36 5.25 5.25-2.35 5.25-5.25 5.25zm0-9c-2.07 0-3.75 1.68-3.75 3.75 0 2.07 1.68 3.75 3.75 3.75 2.07 0 3.75-1.68 3.75-3.75 0-2.07-1.68-3.75-3.75-3.75z"/>
  <path d="M8.44 9.21c-.19 0-.39-.07-.53-.21L4.37 5.46a.754.754 0 010-1.06c.29-.29.77-.29 1.06 0l3.54 3.54c.29.29.29.76 0 1.06-.15.14-.34.21-.53.21zM4.9 19.82c-.19 0-.38-.07-.53-.22a.754.754 0 010-1.06L7.91 15c.29-.29.77-.29 1.06 0 .29.29.29.77 0 1.06L5.43 19.6c-.14.15-.34.22-.53.22zM19.04 19.82c-.19 0-.38-.07-.53-.22l-3.54-3.54a.754.754 0 010-1.06c.29-.29.77-.29 1.06 0l3.54 3.54c.29.29.29.77 0 1.06a.71.71 0 01-.53.22zM15.51 9.21c-.19 0-.38-.07-.53-.22a.754.754 0 010-1.06l3.54-3.54c.29-.29.77-.29 1.06 0 .29.29.29.77 0 1.06L16.04 9c-.15.14-.34.21-.53.21z"/>
</svg>
