<svg xmlns="http://www.w3.org/2000/svg" viewBox="0 0 24 24" fill="currentColor" aria-hidden="true">
  <path d="M10.35 18.39c-.68 0-1.33-.31-1.95-.93l-2.83-2.83c-1.24-1.24-1.24-2.66 0-3.89l4.72-4.72c.29-.29.77-.29 1.06 0l5.19 5.19c.27.27.41.62.41 1s-.15.74-.41 1l-4.25 4.25c-.6.62-1.26.93-1.94.93zm.48-10.79l-4.19 4.19c-.32.32-.49.62-.49.89 0 .26.16.56.49.89l2.83 2.83c.65.65 1.12.65 1.77 0l4.19-4.19-4.6-4.61z"/>
  <path d="M10.83 7.29c-.19 0-.38-.07-.53-.22l-.94-.94a.754.754 0 010-1.06c.29-.29.77-.29 1.06 0l.94.94c.29.29.29.77 0 1.06-.15.15-.34.22-.53.22zM5.44 13.39a.75.75 0 01-.03-1.5l10.68-.47c.41-.04.76.3.78.72.02.41-.3.76-.72.78l-10.68.47h-.03zM17.3 19.15c-1.13 0-2.06-.92-2.06-2.06 0-1.08 1.15-2.41 1.5-2.79.28-.31.82-.31 1.1 0 .35.38 1.5 1.72 1.5 2.79a2.04 2.04 0 01-2.04 2.06zm0-3.15c-.31.44-.56.88-.56 1.09a.56.56 0 101.12 0c-.01-.21-.25-.65-.56-1.09z"/>
  <path d="M15 22.75H9c-5.43 0-7.75-2.32-7.75-7.75V9c0-5.43 2.32-7.75 7.75-7.75h6c5.43 0 7.75 2.32 7.75 7.75v6c0 5.43-2.32 7.75-7.75 7.75zm-6-20C4.39 2.75 2.75 4.39 2.75 9v6c0 4.61 1.64 6.25 6.25 6.25h6c4.61 0 6.25-1.64 6.25-6.25V9c0-4.61-1.64-6.25-6.25-6.25H9z"/>
</svg>
