<svg xmlns="http://www.w3.org/2000/svg" viewBox="0 0 24 24" fill="currentColor" aria-hidden="true">
  <path d="M6.5 22.75c-.41 0-.75-.34-.75-.75v-7c0-.41.34-.75.75-.75s.75.34.75.75v7c0 .41-.34.75-.75.75zM6.5 5.75c-.41 0-.75-.34-.75-.75V2c0-.41.34-.75.75-.75s.75.34.75.75v3c0 .41-.34.75-.75.75zM17.5 22.75c-.41 0-.75-.34-.75-.75v-3c0-.41.34-.75.75-.75s.75.34.75.75v3c0 .41-.34.75-.75.75zM17.5 9.75c-.41 0-.75-.34-.75-.75V2c0-.41.34-.75.75-.75s.75.34.75.75v7c0 .41-.34.75-.75.75z"/>
  <path d="M7.5 15.75h-2c-1.72 0-2.75-1.03-2.75-2.75V7c0-1.72 1.03-2.75 2.75-2.75h2c1.72 0 2.75 1.03 2.75 2.75v6c0 1.72-1.03 2.75-2.75 2.75zm-2-10c-.89 0-1.25.36-1.25 1.25v6c0 .89.36 1.25 1.25 1.25h2c.89 0 1.25-.36 1.25-1.25V7c0-.89-.36-1.25-1.25-1.25h-2zM18.5 19.75h-2c-1.72 0-2.75-1.03-2.75-2.75v-6c0-1.72 1.03-2.75 2.75-2.75h2c1.72 0 2.75 1.03 2.75 2.75v6c0 1.72-1.03 2.75-2.75 2.75zm-2-10c-.89 0-1.25.36-1.25 1.25v6c0 .89.36 1.25 1.25 1.25h2c.89 0 1.25-.36 1.25-1.25v-6c0-.89-.36-1.25-1.25-1.25h-2z"/>
</svg>
