<svg xmlns="http://www.w3.org/2000/svg" viewBox="0 0 24 24" fill="currentColor" aria-hidden="true">
  <path d="M17.03 19.75h-1.04c-2.01 0-2.98-.93-2.98-2.85V5.1c0-.41.34-.75.75-.75s.75.34.75.75v11.8c0 1.01.21 1.35 1.48 1.35h1.04c1.27 0 1.48-.34 1.48-1.35V5.1c0-.41.34-.75.75-.75s.75.34.75.75v11.8c0 1.92-.97 2.85-2.98 2.85zM8.53 14.75H7.49c-2.01 0-2.98-.93-2.98-2.85V5.1c0-.41.34-.75.75-.75s.75.34.75.75v6.8c0 1.01.21 1.35 1.48 1.35h1.04c1.27 0 1.48-.34 1.48-1.35V5.1c0-.41.34-.75.75-.75s.75.34.75.75v6.8c0 1.92-.97 2.85-2.98 2.85z"/>
  <path d="M22 5.75H2a.749.749 0 110-1.5h20a.749.749 0 110 1.5z"/>
</svg>
