<svg xmlns="http://www.w3.org/2000/svg" viewBox="0 0 24 24" fill="currentColor" aria-hidden="true">
  <path d="M9.17 15.58c-.19 0-.38-.07-.53-.22a.754.754 0 010-1.06l5.66-5.66c.29-.29.77-.29 1.06 0 .29.29.29.77 0 1.06L9.7 15.36c-.14.15-.34.22-.53.22z"/>
  <path d="M14.83 15.58c-.19 0-.38-.07-.53-.22L8.64 9.7a.754.754 0 010-1.06c.29-.29.77-.29 1.06 0l5.66 5.66c.29.29.29.77 0 1.06-.15.15-.34.22-.53.22z"/>
  <path d="M15 22.75H9c-5.43 0-7.75-2.32-7.75-7.75V9c0-5.43 2.32-7.75 7.75-7.75h6c5.43 0 7.75 2.32 7.75 7.75v6c0 5.43-2.32 7.75-7.75 7.75zm-6-20C4.39 2.75 2.75 4.39 2.75 9v6c0 4.61 1.64 6.25 6.25 6.25h6c4.61 0 6.25-1.64 6.25-6.25V9c0-4.61-1.64-6.25-6.25-6.25H9z"/>
</svg>
