<svg xmlns="http://www.w3.org/2000/svg" viewBox="0 0 24 24" fill="currentColor" aria-hidden="true">
  <path d="M15.24 9.25H2c-.41 0-.75-.34-.75-.75s.34-.75.75-.75h13.24c.41 0 .75.34.75.75s-.34.75-.75.75zM7.29 17.25H6c-.41 0-.75-.34-.75-.75s.34-.75.75-.75h1.29a.749.749 0 110 1.5zM14.5 17.25H11c-.41 0-.75-.34-.75-.75s.34-.75.75-.75h3.5c.41 0 .75.34.75.75s-.34.75-.75.75z"/>
  <path d="M17.56 21.25H7.98c-.41 0-.75-.34-.75-.75s.34-.75.75-.75h9.58c3.14 0 3.69-.54 3.69-3.64V6.89c0-.41.34-.75.75-.75s.75.34.75.75v9.21c0 3.95-1.21 5.15-5.19 5.15zM3.71 20.89c-.09 0-.19-.02-.28-.05-1.81-.72-2.18-2.41-2.18-4.73V7.89c0-3.94 1.21-5.14 5.19-5.14h11.11c1.14 0 1.98.09 2.64.29.4.12.62.53.51.93-.12.4-.54.62-.93.51-.52-.15-1.22-.22-2.22-.22H6.44c-3.14 0-3.69.54-3.69 3.64v8.21c0 2.39.43 3.02 1.24 3.34a.745.745 0 01-.28 1.44z"/>
  <path d="M2 22.75c-.19 0-.38-.07-.53-.22a.754.754 0 010-1.06l20-20c.29-.29.77-.29 1.06 0 .29.29.29.77 0 1.06l-20 20c-.15.15-.34.22-.53.22z"/>
</svg>
