<svg xmlns="http://www.w3.org/2000/svg" viewBox="0 0 24 24" fill="currentColor" aria-hidden="true">
  <path d="M3.91 17.18c-.19 0-.38-.07-.53-.22a7.244 7.244 0 01-2.13-5.13c0-4.01 3.25-7.27 7.25-7.27l6.07.02-1.09-1.04a.746.746 0 01-.02-1.06c.29-.3.76-.31 1.06-.02l2.44 2.34c.22.21.29.54.18.82-.11.28-.39.47-.7.47l-7.95-.02c-3.17 0-5.75 2.59-5.75 5.77 0 1.53.6 2.98 1.69 4.07.29.29.29.77 0 1.06-.14.14-.33.21-.52.21zM10 21.75c-.19 0-.37-.07-.52-.21L7.04 19.2a.76.76 0 01-.18-.82c.11-.28.39-.47.7-.47l7.95.02c3.17 0 5.75-2.59 5.75-5.77 0-1.53-.6-2.98-1.69-4.07a.754.754 0 010-1.06c.29-.29.77-.29 1.06 0a7.244 7.244 0 012.13 5.13c0 4.01-3.25 7.27-7.25 7.27l-6.07-.02 1.09 1.04c.3.29.31.76.02 1.06-.16.16-.35.24-.55.24z"/>
  <path d="M15 12.75H9c-.41 0-.75-.34-.75-.75s.34-.75.75-.75h6c.41 0 .75.34.75.75s-.34.75-.75.75z"/>
</svg>
