<svg xmlns="http://www.w3.org/2000/svg" viewBox="0 0 24 24" fill="currentColor" aria-hidden="true">
  <path d="M16.75 7.75h-9.5c-.41 0-.75-.34-.75-.75V5c0-2.56 1.19-3.75 3.75-3.75h3.5c2.56 0 3.75 1.19 3.75 3.75v2c0 .41-.34.75-.75.75zM8 6.25h8V5c0-1.7-.55-2.25-2.25-2.25h-3.5C8.55 2.75 8 3.3 8 5v1.25zM13 22.75h-2c-2.42 0-3.75-1.33-3.75-3.75v-4c0-.41.34-.75.75-.75h8c.41 0 .75.34.75.75v4c0 2.42-1.33 3.75-3.75 3.75zm-4.25-7V19c0 1.58.67 2.25 2.25 2.25h2c1.58 0 2.25-.67 2.25-2.25v-3.25h-6.5z"/>
  <path d="M18 18.75h-2c-.41 0-.75-.34-.75-.75v-2.25h-6.5V18c0 .41-.34.75-.75.75H6c-2.42 0-3.75-1.33-3.75-3.75v-5c0-2.42 1.33-3.75 3.75-3.75h12c2.42 0 3.75 1.33 3.75 3.75v5c0 2.42-1.33 3.75-3.75 3.75zm-1.25-1.5H18c1.58 0 2.25-.67 2.25-2.25v-5c0-1.58-.67-2.25-2.25-2.25H6c-1.58 0-2.25.67-2.25 2.25v5c0 1.58.67 2.25 2.25 2.25h1.25V15c0-.41.34-.75.75-.75h8c.41 0 .75.34.75.75v2.25z"/>
  <path d="M17 15.75H7c-.41 0-.75-.34-.75-.75s.34-.75.75-.75h10c.41 0 .75.34.75.75s-.34.75-.75.75zM10 11.75H7c-.41 0-.75-.34-.75-.75s.34-.75.75-.75h3c.41 0 .75.34.75.75s-.34.75-.75.75z"/>
</svg>
