<svg xmlns="http://www.w3.org/2000/svg" viewBox="0 0 24 24" fill="currentColor" aria-hidden="true">
  <path d="M17.62 9.62h-5.25c-.41 0-.75-.34-.75-.75s.34-.75.75-.75h5.25a.749.749 0 110 1.5zM7.12 10.38c-.19 0-.38-.07-.53-.22l-.75-.75a.754.754 0 010-1.06c.29-.29.77-.29 1.06 0l.22.22 1.72-1.72c.29-.29.77-.29 1.06 0 .29.29.29.77 0 1.06l-2.25 2.25a.75.75 0 01-.53.22zM17.62 16.62h-5.25c-.41 0-.75-.34-.75-.75s.34-.75.75-.75h5.25a.749.749 0 110 1.5zM7.12 17.38c-.19 0-.38-.07-.53-.22l-.75-.75a.754.754 0 010-1.06c.29-.29.77-.29 1.06 0l.22.22 1.72-1.72c.29-.29.77-.29 1.06 0 .29.29.29.77 0 1.06l-2.25 2.25a.75.75 0 01-.53.22z"/>
  <path d="M15 22.75H9c-5.43 0-7.75-2.32-7.75-7.75V9c0-5.43 2.32-7.75 7.75-7.75h6c5.43 0 7.75 2.32 7.75 7.75v6c0 5.43-2.32 7.75-7.75 7.75zm-6-20C4.39 2.75 2.75 4.39 2.75 9v6c0 4.61 1.64 6.25 6.25 6.25h6c4.61 0 6.25-1.64 6.25-6.25V9c0-4.61-1.64-6.25-6.25-6.25H9z"/>
</svg>
