<svg xmlns="http://www.w3.org/2000/svg" viewBox="0 0 24 24" fill="currentColor" aria-hidden="true">
  <path d="M20 14.75c-1.52 0-2.75-1.23-2.75-2.75S18.48 9.25 20 9.25s2.75 1.23 2.75 2.75-1.23 2.75-2.75 2.75zm0-4a1.25 1.25 0 100 2.5 1.25 1.25 0 000-2.5zM20 6.75c-1.52 0-2.75-1.23-2.75-2.75S18.48 1.25 20 1.25 22.75 2.48 22.75 4 21.52 6.75 20 6.75zm0-4a1.25 1.25 0 100 2.5 1.25 1.25 0 000-2.5zM20 22.75c-1.52 0-2.75-1.23-2.75-2.75s1.23-2.75 2.75-2.75 2.75 1.23 2.75 2.75-1.23 2.75-2.75 2.75zm0-4a1.25 1.25 0 100 2.5 1.25 1.25 0 000-2.5zM4 14.75c-1.52 0-2.75-1.23-2.75-2.75S2.48 9.25 4 9.25 6.75 10.48 6.75 12 5.52 14.75 4 14.75zm0-4a1.25 1.25 0 100 2.5 1.25 1.25 0 000-2.5z"/>
  <path d="M18 12.75H6c-.41 0-.75-.34-.75-.75s.34-.75.75-.75h12c.41 0 .75.34.75.75s-.34.75-.75.75z"/>
  <path d="M18 20.75h-4c-2.42 0-3.75-1.33-3.75-3.75V7c0-2.42 1.33-3.75 3.75-3.75h4c.41 0 .75.34.75.75s-.34.75-.75.75h-4c-1.58 0-2.25.67-2.25 2.25v10c0 1.58.67 2.25 2.25 2.25h4c.41 0 .75.34.75.75s-.34.75-.75.75z"/>
</svg>
