<svg xmlns="http://www.w3.org/2000/svg" viewBox="0 0 24 24" fill="currentColor" aria-hidden="true">
  <path d="M14.4 20.75H9.6c-4.39 0-6.35-1.96-6.35-6.35V9.6c0-4.39 1.96-6.35 6.35-6.35h4.8c4.39 0 6.35 1.96 6.35 6.35v4.8c0 4.39-1.96 6.35-6.35 6.35zm-4.8-16c-3.58 0-4.85 1.27-4.85 4.85v4.8c0 3.58 1.27 4.85 4.85 4.85h4.8c3.58 0 4.85-1.27 4.85-4.85V9.6c0-3.58-1.27-4.85-4.85-4.85H9.6z"/>
  <path d="M13.5 17.75h-3c-2.9 0-4.25-1.35-4.25-4.25v-3c0-2.9 1.35-4.25 4.25-4.25h3c2.9 0 4.25 1.35 4.25 4.25v3c0 2.9-1.35 4.25-4.25 4.25zm-3-10c-2.08 0-2.75.67-2.75 2.75v3c0 2.08.67 2.75 2.75 2.75h3c2.08 0 2.75-.67 2.75-2.75v-3c0-2.08-.67-2.75-2.75-2.75h-3zM8.01 4.75c-.42 0-.75-.34-.75-.75V2c0-.41.34-.75.75-.75s.75.34.75.75v2c0 .41-.34.75-.75.75zM12 4.75c-.41 0-.75-.34-.75-.75V2c0-.41.34-.75.75-.75s.75.34.75.75v2c0 .41-.34.75-.75.75zM16 4.75c-.41 0-.75-.34-.75-.75V2c0-.41.34-.75.75-.75s.75.34.75.75v2c0 .41-.34.75-.75.75zM22 8.75h-2c-.41 0-.75-.34-.75-.75s.34-.75.75-.75h2a.749.749 0 110 1.5zM22 12.75h-2c-.41 0-.75-.34-.75-.75s.34-.75.75-.75h2a.749.749 0 110 1.5zM22 16.75h-2c-.41 0-.75-.34-.75-.75s.34-.75.75-.75h2a.749.749 0 110 1.5zM16 22.75c-.41 0-.75-.34-.75-.75v-2c0-.41.34-.75.75-.75s.75.34.75.75v2c0 .41-.34.75-.75.75zM12.01 22.75c-.41 0-.75-.34-.75-.75v-2c0-.41.34-.75.75-.75s.75.34.75.75v2c0 .41-.34.75-.75.75zM8.01 22.75c-.41 0-.75-.34-.75-.75v-2c0-.41.34-.75.75-.75s.75.34.75.75v2c0 .41-.34.75-.75.75zM4 8.75H2a.749.749 0 110-1.5h2a.749.749 0 110 1.5zM4 12.75H2c-.41 0-.75-.34-.75-.75s.34-.75.75-.75h2a.749.749 0 110 1.5zM4 16.75H2c-.41 0-.75-.34-.75-.75s.34-.75.75-.75h2a.749.749 0 110 1.5z"/>
</svg>
