<svg xmlns="http://www.w3.org/2000/svg" viewBox="0 0 24 24" fill="currentColor" aria-hidden="true">
  <path d="M13.98 5.22c-.22 0-.44-.1-.58-.28l-1.98-2.47c-.26-.32-.21-.8.12-1.05.33-.25.79-.21 1.05.12l1.98 2.47c.26.32.21.8-.12 1.05-.14.1-.31.16-.47.16z"/>
  <path d="M12 22.75c-5.31 0-9.64-4.32-9.64-9.64S6.68 3.47 12 3.47c.69 0 1.39.08 2.15.26.4.09.66.5.56.9-.09.4-.49.66-.9.56-.64-.15-1.24-.22-1.81-.22-4.49 0-8.14 3.65-8.14 8.14s3.65 8.14 8.14 8.14 8.14-3.65 8.14-8.14c0-1.74-.57-3.42-1.65-4.86a.75.75 0 011.2-.9c1.28 1.7 1.95 3.69 1.95 5.76 0 5.32-4.33 9.64-9.64 9.64z"/>
  <path d="M12.38 16.92h-2.29c-.41 0-.75-.34-.75-.75s.34-.75.75-.75h2.29a.781.781 0 000-1.56h-2.29c-.24 0-.47-.12-.61-.31a.746.746 0 01-.1-.68l.76-2.29c.1-.31.39-.51.71-.51h3.06c.41 0 .75.34.75.75s-.34.75-.75.75h-2.52l-.26.79h1.25a2.279 2.279 0 110 4.56z"/>
</svg>
