<svg xmlns="http://www.w3.org/2000/svg" fill="none" viewBox="0 0 24 24" stroke="currentColor" aria-hidden="true">
  <g stroke-linecap="round" stroke-linejoin="round" stroke-width="1.5" opacity=".4">
    <path d="M9.62 16l1.5 1.5 3.25-3"/>
    <path stroke-miterlimit="10" d="M8.81 2L5.19 5.63M15.19 2l3.62 3.63"/>
  </g>
  <path stroke-width="1.5" d="M2 7.85c0-1.85.99-2 2.22-2h15.56c1.23 0 2.22.15 2.22 2 0 2.15-.99 2-2.22 2H4.22C2.99 9.85 2 10 2 7.85z"/>
  <path stroke-linecap="round" stroke-width="1.5" d="M3.5 10l1.41 8.64C5.23 20.58 6 22 8.86 22h6.03c3.11 0 3.57-1.36 3.93-3.24L20.5 10"/>
</svg>
