<svg xmlns="http://www.w3.org/2000/svg" fill="none" viewBox="0 0 24 24" stroke="currentColor" aria-hidden="true">
  <path stroke-linecap="round" stroke-linejoin="round" stroke-miterlimit="10" stroke-width="1.5" d="M21.9 13.96c.27 1.67-.2 3.46-1.63 4.72-.99.91-2.29 1.41-3.64 1.4H5.54c-4.67-.34-4.68-7.14 0-7.48h.05c-2.19-6.13 3.5-9.73 7.79-8.35M7.26 13.01c-.52-.26-1.09-.4-1.67-.41"/>
  <path stroke-linecap="round" stroke-linejoin="round" stroke-miterlimit="10" stroke-width="1.5" d="M21.97 8.5c0 1.1-.51 2.09-1.32 2.73-.59.48-1.36.77-2.18.77-1.93 0-3.5-1.57-3.5-3.5 0-.96.39-1.83 1.03-2.46v-.01A3.46 3.46 0 0118.47 5c1.93 0 3.5 1.57 3.5 3.5z" opacity=".4"/>
</svg>
