<svg xmlns="http://www.w3.org/2000/svg" fill="none" viewBox="0 0 24 24" stroke="currentColor" aria-hidden="true">
  <g stroke-linecap="round" stroke-linejoin="round" stroke-width="1.5" opacity=".4">
    <path d="M12 2v7l2-2M12 9l-2-2"/>
  </g>
  <path stroke-linecap="round" stroke-linejoin="round" stroke-width="1.5" d="M1.98 13h4.41c.38 0 .72.21.89.55l1.17 2.34A2 2 0 0010.24 17h3.53a2 2 0 001.79-1.11l1.17-2.34a1 1 0 01.89-.55h4.36" opacity=".4"/>
  <path stroke-linecap="round" stroke-linejoin="round" stroke-width="1.5" d="M7 4.13c-3.54.52-5 2.6-5 6.87v4c0 5 2 7 7 7h6c5 0 7-2 7-7v-4c0-4.27-1.46-6.35-5-6.87"/>
</svg>
