<svg xmlns="http://www.w3.org/2000/svg" fill="none" viewBox="0 0 24 24" stroke="currentColor" aria-hidden="true">
  <path stroke-linecap="round" stroke-linejoin="round" stroke-miterlimit="10" stroke-width="1.5" d="M12 19a4 4 0 100-8 4 4 0 000 8z" opacity=".4"/>
  <g stroke-linecap="round" stroke-linejoin="round" stroke-miterlimit="10" stroke-width="1.5" opacity=".4">
    <path d="M13.07 16.11L10.95 14M13.05 14.02l-2.12 2.12"/>
  </g>
  <path stroke-linecap="round" stroke-linejoin="round" stroke-miterlimit="10" stroke-width="1.5" d="M9 22h6c4.02 0 4.74-1.61 4.95-3.57l.75-6C20.97 9.99 20.27 8 16 8H8c-4.27 0-4.97 1.99-4.7 4.43l.75 6C4.26 20.39 4.98 22 9 22z"/>
  <path stroke-linecap="round" stroke-linejoin="round" stroke-miterlimit="10" stroke-width="1.5" d="M7.5 7.67V6.7c0-2.25 1.81-4.46 4.06-4.67a4.5 4.5 0 014.94 4.48v1.38" opacity=".4"/>
</svg>
