<svg xmlns="http://www.w3.org/2000/svg" fill="none" viewBox="0 0 24 24" stroke="currentColor" aria-hidden="true">
  <path stroke-linecap="round" stroke-linejoin="round" stroke-width="1.5" d="M20.42 12.37c.87.35 1.41 1.38 1.21 2.29l-.41 1.86C20.51 19.72 18 22 14.38 22H9.62C6 22 3.49 19.72 2.78 16.52l-.41-1.86c-.2-.91.34-1.94 1.21-2.29L5 11.8l5.51-2.21c.96-.38 2.02-.38 2.98 0L19 11.8l1.42.57zM12 22V10"/>
  <g stroke-linecap="round" stroke-linejoin="round" stroke-width="1.5" opacity=".4">
    <path d="M19 8v3.8l-5.51-2.21c-.96-.38-2.02-.38-2.98 0L5 11.8V8c0-1.65 1.35-3 3-3h8c1.65 0 3 1.35 3 3zM14.5 5h-5V3c0-.55.45-1 1-1h3c.55 0 1 .45 1 1v2z"/>
  </g>
</svg>
