<svg xmlns="http://www.w3.org/2000/svg" fill="none" viewBox="0 0 24 24" stroke="currentColor" aria-hidden="true">
  <path stroke-linecap="round" stroke-linejoin="round" stroke-miterlimit="10" stroke-width="1.5" d="M22 6v2.42C22 10 21 11 19.42 11H16V4.01C16 2.9 16.91 2 18.02 2c1.09.01 2.09.45 2.81 1.17C21.55 3.9 22 4.9 22 6z"/>
  <path stroke-linecap="round" stroke-linejoin="round" stroke-miterlimit="10" stroke-width="1.5" d="M2 7v14c0 .83.94 1.3 1.6.8l1.71-1.28c.4-.3.96-.26 1.32.1l1.66 1.67c.39.39 1.03.39 1.42 0l1.68-1.68c.35-.35.91-.39 1.3-.09l1.71 1.28c.66.49 1.6.02 1.6-.8V4c0-1.1.9-2 2-2H6C3 2 2 3.79 2 6v1z"/>
  <path stroke-linecap="round" stroke-linejoin="round" stroke-width="1.5" d="M6.27 13.73l5.46-5.46" opacity=".4"/>
  <path stroke-linecap="round" stroke-linejoin="round" stroke-width="2" d="M11.924 13.5h.01M6.194 8.5h.009" opacity=".4"/>
</svg>
