<svg xmlns="http://www.w3.org/2000/svg" fill="none" viewBox="0 0 24 24" stroke="currentColor" aria-hidden="true">
  <path stroke-linecap="round" stroke-linejoin="round" stroke-width="1.5" d="M9.02 2.84l-5.39 4.2C2.73 7.74 2 9.23 2 10.36v7.41c0 2.32 1.89 4.22 4.21 4.22h11.58c2.32 0 4.21-1.9 4.21-4.21V10.5c0-1.21-.81-2.76-1.8-3.45l-6.18-4.33c-1.4-.98-3.65-.93-5 .12z"/>
  <g stroke-linecap="round" stroke-linejoin="round" stroke-width="1.5" opacity=".4">
    <path d="M10.5 18h3c1.65 0 3-1.35 3-3v-3c0-1.65-1.35-3-3-3h-3c-1.65 0-3 1.35-3 3v3c0 1.65 1.35 3 3 3zM12 9v9M7.5 13.5h9"/>
  </g>
</svg>
