<svg xmlns="http://www.w3.org/2000/svg" fill="none" viewBox="0 0 24 24" stroke="currentColor" aria-hidden="true">
  <path stroke-linecap="round" stroke-linejoin="round" stroke-miterlimit="10" stroke-width="1.5" d="M17.25 10.18v2.63c0 .17-.01.33-.03.49-.15 1.77-1.2 2.65-3.12 2.65h-.26a.54.54 0 00-.42.21l-.79 1.05c-.35.47-.91.47-1.26 0l-.79-1.05a.631.631 0 00-.42-.21H9.9c-2.1 0-3.15-.52-3.15-3.15v-2.63c0-1.92.89-2.97 2.65-3.12.16-.02.32-.03.49-.03h4.2c2.11.02 3.16 1.07 3.16 3.16z" opacity=".4"/>
  <path stroke-linecap="round" stroke-linejoin="round" stroke-miterlimit="10" stroke-width="1.5" d="M12 22c5.523 0 10-4.477 10-10S17.523 2 12 2 2 6.477 2 12s4.477 10 10 10z"/>
</svg>
