<svg xmlns="http://www.w3.org/2000/svg" fill="none" viewBox="0 0 24 24" stroke="currentColor" aria-hidden="true">
  <path stroke-linecap="round" stroke-linejoin="round" stroke-width="1.5" d="M16.7 18.98H7.3c-.42 0-.89-.33-1.03-.73L2.13 6.67c-.59-1.66.1-2.17 1.52-1.15l3.9 2.79c.65.45 1.39.22 1.67-.51l1.76-4.69c.56-1.5 1.49-1.5 2.05 0l1.76 4.69c.28.73 1.02.96 1.66.51l3.66-2.61c1.56-1.12 2.31-.55 1.67 1.26l-4.04 11.31c-.15.38-.62.71-1.04.71z"/>
  <path stroke-linecap="round" stroke-linejoin="round" stroke-width="1.5" d="M6.5 22h11M9.5 14h5" opacity=".34"/>
</svg>
