<svg xmlns="http://www.w3.org/2000/svg" fill="none" viewBox="0 0 24 24" stroke="currentColor" aria-hidden="true">
  <path stroke-linecap="round" stroke-linejoin="round" stroke-miterlimit="10" stroke-width="1.5" d="M21 7v10c0 3-1.5 5-5 5H8c-3.5 0-5-2-5-5V7c0-3 1.5-5 5-5h8c3.5 0 5 2 5 5z"/>
  <path stroke-linecap="round" stroke-linejoin="round" stroke-miterlimit="10" stroke-width="1.5" d="M15.5 2v7.86c0 .44-.52.66-.84.37l-2.32-2.14a.496.496 0 00-.68 0l-2.32 2.14c-.32.29-.84.07-.84-.37V2h7zM13.25 14h4.25M9 18h8.5" opacity=".4"/>
</svg>
