<svg xmlns="http://www.w3.org/2000/svg" fill="none" viewBox="0 0 24 24" stroke="currentColor" aria-hidden="true">
  <g fill="#292D32" fill-rule="evenodd" clip-rule="evenodd" opacity=".4">
    <path d="M16.25 3a.75.75 0 01.75-.75h4a.75.75 0 01.75.75v4a.75.75 0 01-1.5 0V3.75H17a.75.75 0 01-.75-.75z"/>
    <path d="M21.53 2.47a.75.75 0 010 1.06l-6 6a.75.75 0 11-1.06-1.06l6-6a.75.75 0 011.06 0zM3 16.25a.75.75 0 01.75.75v3.25H7a.75.75 0 010 1.5H3a.75.75 0 01-.75-.75v-4a.75.75 0 01.75-.75z"/>
    <path d="M9.53 14.47a.75.75 0 010 1.06l-6 6a.75.75 0 01-1.06-1.06l6-6a.75.75 0 011.06 0z"/>
  </g>
  <path fill="#292D32" fill-rule="evenodd" d="M1.25 12C1.25 6.066 6.066 1.25 12 1.25c.74 0 1.47.075 2.167.215a.75.75 0 11-.294 1.47A9.577 9.577 0 0012 2.75c-5.106 0-9.25 4.144-9.25 9.25 0 .64.065 1.26.185 1.85a.75.75 0 01-1.47.3A10.8 10.8 0 011.25 12zM21.654 9.265a.75.75 0 01.882.588c.14.696.215 1.416.215 2.147 0 5.934-4.816 10.75-10.75 10.75-.74 0-1.47-.075-2.167-.214a.75.75 0 01.294-1.471c.602.12 1.233.185 1.873.185 5.105 0 9.25-4.144 9.25-9.25 0-.628-.065-1.25-.186-1.853a.75.75 0 01.588-.882z" clip-rule="evenodd"/>
</svg>
