<svg xmlns="http://www.w3.org/2000/svg" fill="none" viewBox="0 0 24 24" stroke="currentColor" aria-hidden="true">
  <path stroke-linecap="round" stroke-linejoin="round" stroke-width="1.5" d="M4.41 16.75C4.17 19.64 6.35 22 9.25 22h4.79c3.26 0 5.5-2.63 4.96-5.85-.57-3.38-3.83-6.15-7.26-6.15-3.72 0-7.02 3.04-7.33 6.75z"/>
  <path stroke-linecap="round" stroke-linejoin="round" stroke-width="1.5" d="M10.47 7.5a2.5 2.5 0 100-5 2.5 2.5 0 000 5zM17.3 8.7a2 2 0 100-4 2 2 0 000 4zM21 12.7a1.5 1.5 0 100-3 1.5 1.5 0 000 3zM3.97 10.7a2 2 0 100-4 2 2 0 000 4z" opacity=".34"/>
</svg>
