<svg xmlns="http://www.w3.org/2000/svg" fill="none" viewBox="0 0 24 24" stroke="currentColor" aria-hidden="true">
  <path stroke-linecap="round" stroke-linejoin="round" stroke-width="1.5" d="M12.2 11.8l-1.41 1.41c-.78.78-.78 2.05 0 2.83.78.78 2.05.78 2.83 0l2.22-2.22a4.008 4.008 0 000-5.66 4.008 4.008 0 00-5.66 0l-2.42 2.42a3.428 3.428 0 000 4.85" opacity=".4"/>
  <path stroke-linecap="round" stroke-linejoin="round" stroke-width="1.5" d="M9 22h6c5 0 7-2 7-7V9c0-5-2-7-7-7H9C4 2 2 4 2 9v6c0 5 2 7 7 7z"/>
</svg>
