<svg xmlns="http://www.w3.org/2000/svg" fill="none" viewBox="0 0 24 24" stroke="currentColor" aria-hidden="true">
  <path stroke-linecap="round" stroke-linejoin="round" stroke-width="1.5" d="M12 9.66v2.79l1.4 1.4" opacity=".4"/>
  <path stroke-linecap="round" stroke-linejoin="round" stroke-width="1.5" d="M5.5 12a6.5 6.5 0 1113 0c0 2.08-.98 3.94-2.5 5.13h-.01c-1.1.86-2.48 1.37-3.99 1.37-1.49 0-2.86-.5-3.96-1.35h-.01A6.486 6.486 0 015.5 12z"/>
  <path stroke-linecap="round" stroke-linejoin="round" stroke-width="1.5" d="M8.03 17.15h.01c1.1.85 2.47 1.35 3.96 1.35 1.51 0 2.89-.51 3.99-1.37H16l-.51 2.47C15 21.5 13.9 22 12.55 22h-1.09c-1.35 0-2.46-.5-2.94-2.41l-.49-2.44zM8.03 6.85h.01C9.14 6 10.51 5.5 12 5.5c1.51 0 2.89.51 3.99 1.37H16l-.51-2.47C15 2.5 13.9 2 12.55 2h-1.09C10.11 2 9 2.5 8.52 4.41l-.49 2.44z" opacity=".4"/>
</svg>
