<svg xmlns="http://www.w3.org/2000/svg" fill="none" viewBox="0 0 24 24" stroke="currentColor" aria-hidden="true">
  <path stroke-linecap="round" stroke-linejoin="round" stroke-width="1.5" d="M22 10V9c0-5-2-7-7-7H9C4 2 2 4 2 9v6c0 5 2 7 7 7h2"/>
  <g stroke-linecap="round" stroke-linejoin="round" stroke-width="1.5" opacity=".4">
    <path d="M15.51 22a2 2 0 100-4 2 2 0 000 4zM17.51 20v-6.99M18.82 12.07l2.21.74c.53.18.97.78.97 1.35v.59c0 .76-.59 1.19-1.31.95l-2.21-.74c-.53-.18-.97-.78-.97-1.35v-.59c0-.77.59-1.19 1.31-.95z"/>
  </g>
</svg>
