<svg xmlns="http://www.w3.org/2000/svg" fill="none" viewBox="0 0 24 24" stroke="currentColor" aria-hidden="true">
  <path stroke-linecap="round" stroke-linejoin="round" stroke-miterlimit="10" stroke-width="1.5" d="M13.2 21.37c-.66.88-1.74.88-2.4 0l-1.5-2c-.17-.22-.53-.4-.8-.4H8c-4 0-6-1-6-6v-5c0-4 2-6 6-6h8c4 0 6 2 6 6v5"/>
  <g stroke-linecap="round" stroke-linejoin="round" stroke-width="1.5" opacity=".4">
    <path d="M18.2 21.4a3.2 3.2 0 100-6.4 3.2 3.2 0 000 6.4zM22 22l-1-1"/>
  </g>
  <path stroke-linecap="round" stroke-linejoin="round" stroke-width="2" d="M15.996 11h.01M11.995 11h.009M7.995 11h.008"/>
</svg>
