<svg xmlns="http://www.w3.org/2000/svg" fill="none" viewBox="0 0 24 24" stroke="currentColor" aria-hidden="true">
  <path stroke-linecap="round" stroke-linejoin="round" stroke-width="1.5" d="M22 15V9c0-5-2-7-7-7H9C4 2 2 4 2 9v6c0 5 2 7 7 7h6c5 0 7-2 7-7z"/>
  <g stroke-linecap="round" stroke-linejoin="round" stroke-width="1.5" opacity=".4">
    <path d="M8.42 17.11a1.57 1.57 0 100-3.14 1.57 1.57 0 000 3.14z"/>
    <path d="M15.75 14.49V8.35c0-1.31-.82-1.49-1.65-1.26l-3.14.86c-.57.16-.96.61-.96 1.26v6.34"/>
    <path d="M14.18 16.06a1.57 1.57 0 100-3.14 1.57 1.57 0 000 3.14zM9.99 11.04l5.76-1.57"/>
  </g>
</svg>
