<svg xmlns="http://www.w3.org/2000/svg" fill="none" viewBox="0 0 24 24" stroke="currentColor" aria-hidden="true">
  <g stroke-linecap="round" stroke-linejoin="round" stroke-width="1.5" opacity=".4">
    <path d="M7.8 10.2v4.2M7.95 9.9a1.95 1.95 0 100-3.9 1.95 1.95 0 000 3.9zM7.8 18a1.8 1.8 0 100-3.6 1.8 1.8 0 000 3.6zM16.2 18a1.8 1.8 0 100-3.6 1.8 1.8 0 000 3.6z"/>
    <path d="M7.879 10.2a2.425 2.425 0 002.36 1.82l2.06-.01c1.57-.01 2.91 1 3.4 2.41"/>
  </g>
  <path stroke-linecap="round" stroke-linejoin="round" stroke-width="1.5" d="M9 22h6c5 0 7-2 7-7V9c0-5-2-7-7-7H9C4 2 2 4 2 9v6c0 5 2 7 7 7z"/>
</svg>
