<svg xmlns="http://www.w3.org/2000/svg" fill="none" viewBox="0 0 24 24" stroke="currentColor" aria-hidden="true">
  <path stroke-linecap="round" stroke-width="1.5" d="M21.47 19V5c0-2-1-3-3-3h-4c-2 0-3 1-3 3v14c0 2 1 3 3 3h4c2 0 3-1 3-3z"/>
  <path stroke-linecap="round" stroke-width="1.5" d="M11.47 6h5M11.47 18h4M11.47 13.95l5 .05M11.47 10h3" opacity=".4"/>
  <path stroke-linecap="round" stroke-width="1.5" d="M5.49 2C3.86 2 2.53 3.33 2.53 4.95v12.96c0 .45.19 1.13.42 1.52l.82 1.36c.94 1.57 2.49 1.57 3.43 0l.82-1.36c.23-.39.42-1.07.42-1.52V4.95C8.44 3.33 7.11 2 5.49 2z"/>
  <path stroke-linecap="round" stroke-width="1.5" d="M8.44 7H2.53" opacity=".4"/>
</svg>
