<svg xmlns="http://www.w3.org/2000/svg" fill="none" viewBox="0 0 24 24" stroke="currentColor" aria-hidden="true">
  <path stroke-linecap="round" stroke-linejoin="round" stroke-width="1.5" d="M14.9 2H9.1c-.68 0-1.64.4-2.12.88l-4.1 4.1C2.4 7.46 2 8.42 2 9.1v5.8c0 .68.4 1.64.88 2.12l4.1 4.1c.48.48 1.44.88 2.12.88h5.8c.68 0 1.64-.4 2.12-.88l4.1-4.1c.48-.48.88-1.44.88-2.12V9.1c0-.68-.4-1.64-.88-2.12l-4.1-4.1C16.54 2.4 15.58 2 14.9 2z"/>
  <path stroke-linecap="round" stroke-linejoin="round" stroke-width="1.5" d="M4.94 19.08L19.08 4.94" opacity=".4"/>
</svg>
