<svg xmlns="http://www.w3.org/2000/svg" fill="none" viewBox="0 0 24 24" stroke="currentColor" aria-hidden="true">
  <path stroke-linecap="round" stroke-linejoin="round" stroke-width="1.5" d="M12 12a5 5 0 100-10 5 5 0 000 10z"/>
  <path stroke-linecap="round" stroke-linejoin="round" stroke-width="1.5" d="M3.41 22c0-3.87 3.85-7 8.59-7 .96 0 1.89.13 2.76.37" opacity=".4"/>
  <path stroke-linecap="round" stroke-linejoin="round" stroke-miterlimit="10" stroke-width="1.5" d="M22 18c0 .75-.21 1.46-.58 2.06-.21.36-.48.68-.79.94-.7.63-1.62 1-2.63 1a3.97 3.97 0 01-3.42-1.94A3.92 3.92 0 0114 18c0-1.26.58-2.39 1.5-3.12A3.999 3.999 0 0122 18z"/>
  <path stroke-linecap="round" stroke-linejoin="round" stroke-width="1.5" d="M16.44 18l.99.99 2.13-1.97"/>
</svg>
