<svg xmlns="http://www.w3.org/2000/svg" fill="none" viewBox="0 0 24 24" stroke="currentColor" aria-hidden="true">
  <g stroke-linecap="round" stroke-linejoin="round" stroke-width="1.5" opacity=".4">
    <path d="M2 12.35h5.8c1.53 0 2.58 1.16 2.58 2.58v3.22c0 1.42-1.05 2.58-2.58 2.58H4.58C3.16 20.73 2 19.57 2 18.15v-5.8M2 12.35C2 6.3 3.13 5.3 6.53 3.28"/>
  </g>
  <path stroke-linecap="round" stroke-linejoin="round" stroke-width="1.5" d="M13.63 12.35h5.8c1.53 0 2.58 1.16 2.58 2.58v3.22c0 1.42-1.05 2.58-2.58 2.58h-3.22c-1.42 0-2.58-1.16-2.58-2.58v-5.8M13.63 12.35c0-6.05 1.13-7.05 4.53-9.07"/>
</svg>
