<svg xmlns="http://www.w3.org/2000/svg" fill="none" viewBox="0 0 24 24" stroke="currentColor" aria-hidden="true">
  <path stroke-linecap="round" stroke-linejoin="round" stroke-width="1.5" d="M18.97 22h-14c-3 0-3-1.35-3-3v-1c0-.55.45-1 1-1h18c.55 0 1 .45 1 1v1c0 1.65 0 3-3 3zM20.72 13v4H3.27v-4a8.001 8.001 0 018-8h1.45c.58 0 1.15.06 1.69.18 3.61.78 6.31 3.98 6.31 7.82z"/>
  <path stroke-linecap="round" stroke-linejoin="round" stroke-width="1.5" d="M14.5 4.5c0 .24-.03.46-.09.68-.54-.12-1.11-.18-1.69-.18h-1.45c-.58 0-1.14.06-1.68.18-.06-.22-.09-.44-.09-.68a2.5 2.5 0 015 0zM15 11H9" opacity=".34"/>
</svg>
