<svg xmlns="http://www.w3.org/2000/svg" fill="none" viewBox="0 0 24 24" stroke="currentColor" aria-hidden="true">
  <path stroke-linecap="round" stroke-linejoin="round" stroke-width="1.5" d="M22 10v5c0 5-2 7-7 7H9c-5 0-7-2-7-7V9c0-5 2-7 7-7h5"/>
  <path stroke-linecap="round" stroke-linejoin="round" stroke-width="1.5" d="M22 10h-4c-3 0-4-1-4-4V2l8 8z"/>
  <path stroke-linecap="round" stroke-linejoin="round" stroke-width="1.5" d="M6.62 15.73c-.33-1.03.06-2.3 1.13-2.65.57-.18 1.27-.03 1.66.52.37-.57 1.1-.7 1.66-.52 1.08.35 1.46 1.62 1.14 2.65-.51 1.63-2.3 2.48-2.8 2.48-.49-.01-2.26-.84-2.79-2.48z" opacity=".4"/>
</svg>
