<svg xmlns="http://www.w3.org/2000/svg" fill="none" viewBox="0 0 24 24" stroke="currentColor" aria-hidden="true">
  <path stroke-linecap="round" stroke-linejoin="round" stroke-width="1.5" d="M9 22h6c5 0 7-2 7-7V9c0-5-2-7-7-7H9C4 2 2 4 2 9v6c0 5 2 7 7 7z"/>
  <path stroke-linecap="round" stroke-linejoin="round" stroke-miterlimit="10" stroke-width="1.5" d="M9.1 12v-1.48c0-1.91 1.35-2.68 3-1.73l1.28.74 1.28.74c1.65.95 1.65 2.51 0 3.46l-1.28.74-1.28.74c-1.65.95-3 .17-3-1.73V12z" opacity=".4"/>
</svg>
