<svg xmlns="http://www.w3.org/2000/svg" fill="none" viewBox="0 0 24 24" stroke="currentColor" aria-hidden="true">
  <path stroke-linecap="round" stroke-linejoin="round" stroke-miterlimit="10" stroke-width="1.5" d="M17 20.5H7c-3 0-5-1.5-5-5v-7c0-3.5 2-5 5-5h10c3 0 5 1.5 5 5v7c0 3.5-2 5-5 5z"/>
  <path stroke-linecap="round" stroke-linejoin="round" stroke-miterlimit="10" stroke-width="1.5" d="M12 15a3 3 0 100-6 3 3 0 000 6z"/>
  <path stroke-linecap="round" stroke-linejoin="round" stroke-miterlimit="10" stroke-width="1.5" d="M8.5 6H7a2.5 2.5 0 00-2.5 2.5V10M15.5 6H17a2.5 2.5 0 012.5 2.5V10M8.5 18H7a2.5 2.5 0 01-2.5-2.5V14M15.5 18H17a2.5 2.5 0 002.5-2.5V14" opacity=".4"/>
</svg>
