<svg xmlns="http://www.w3.org/2000/svg" fill="none" viewBox="0 0 24 24" stroke="currentColor" aria-hidden="true">
  <path stroke-linecap="round" stroke-linejoin="round" stroke-miterlimit="10" stroke-width="1.5" d="M12 16v3" opacity=".4"/>
  <path stroke-linecap="round" stroke-linejoin="round" stroke-miterlimit="10" stroke-width="1.5" d="M12 23a2 2 0 100-4 2 2 0 000 4z"/>
  <path stroke-linecap="round" stroke-linejoin="round" stroke-miterlimit="10" stroke-width="1.5" d="M18 21h-4M10 21H6" opacity=".4"/>
  <path stroke-miterlimit="10" stroke-width="1.5" d="M19 8.3v4.2c0 2.8-.7 3.5-3.5 3.5h-7C5.7 16 5 15.3 5 12.5v-7C5 2.7 5.7 2 8.5 2h1.05c1.05 0 1.28.31 1.68.84l1.05 1.4c.27.35.42.56 1.12.56h2.1c2.8 0 3.5.7 3.5 3.5z"/>
</svg>
