<svg xmlns="http://www.w3.org/2000/svg" fill="none" viewBox="0 0 24 24" stroke="currentColor" aria-hidden="true">
  <path stroke-linecap="round" stroke-linejoin="round" stroke-width="1.5" d="M19.06 18.67l-2.14-4.27-2.14 4.27M15.17 17.91h3.52"/>
  <path stroke-linecap="round" stroke-linejoin="round" stroke-width="1.5" d="M16.92 22a5.08 5.08 0 11.001-10.162A5.08 5.08 0 0116.92 22zM5.02 2h3.92c2.07 0 3.07 1 3.02 3.02v3.92c.05 2.07-.95 3.07-3.02 3.02H5.02C3 12 2 11 2 8.93V5.01C2 3 3 2 5.02 2zM9.01 5.85H4.95M6.969 5.17v.68M7.99 5.84c0 1.75-1.37 3.17-3.05 3.17M9.01 9.01c-.73 0-1.39-.39-1.85-1.01"/>
  <path stroke-linecap="round" stroke-linejoin="round" stroke-width="1.5" d="M2 15c0 3.87 3.13 7 7 7l-1.05-1.75M22 9c0-3.87-3.13-7-7-7l1.05 1.75" opacity=".4"/>
</svg>
