<svg xmlns="http://www.w3.org/2000/svg" fill="none" viewBox="0 0 24 24" stroke="currentColor" aria-hidden="true">
  <path stroke-linecap="round" stroke-linejoin="round" stroke-width="1.5" d="M22 8.5a6.5 6.5 0 01-7.02 6.48 6.509 6.509 0 00-5.96-5.96A6.5 6.5 0 1122 8.5z"/>
  <path stroke-linecap="round" stroke-linejoin="round" stroke-width="1.5" d="M15 15.5a6.5 6.5 0 11-13 0 6.5 6.5 0 0113 0z"/>
  <path stroke-linecap="round" stroke-linejoin="round" stroke-width="1.5" d="M5.59 2H3c-.55 0-1 .45-1 1v2.59c0 .89 1.08 1.34 1.71.71L6.3 3.71C6.92 3.08 6.48 2 5.59 2zM18.41 22H21c.55 0 1-.45 1-1v-2.59c0-.89-1.08-1.34-1.71-.71l-2.59 2.59c-.62.63-.18 1.71.71 1.71z" opacity=".4"/>
</svg>
