<svg xmlns="http://www.w3.org/2000/svg" fill="none" viewBox="0 0 24 24" stroke="currentColor" aria-hidden="true">
  <path stroke-linecap="round" stroke-linejoin="round" stroke-miterlimit="10" stroke-width="1.5" d="M6.72 9.56h-.94A3.79 3.79 0 012 5.78C2 3.7 3.7 2 5.78 2h1.89a2.84 2.84 0 012.83 2.83V17.1c0 1.04-.85 1.89-1.89 1.89s-1.89-.85-1.89-1.89V9.56z"/>
  <path stroke-linecap="round" stroke-linejoin="round" stroke-miterlimit="10" stroke-width="1.5" d="M5.78 6.72a.939.939 0 110-1.88" opacity=".4"/>
  <path stroke-linecap="round" stroke-linejoin="round" stroke-miterlimit="10" stroke-width="1.5" d="M17.28 9.56h.94c2.08 0 3.78-1.7 3.78-3.78S20.3 2 18.22 2h-1.89a2.84 2.84 0 00-2.83 2.83V17.1c0 1.04.85 1.89 1.89 1.89s1.89-.85 1.89-1.89V9.56z"/>
  <path stroke-linecap="round" stroke-linejoin="round" stroke-miterlimit="10" stroke-width="1.5" d="M18.22 6.72a.939.939 0 100-1.88M8.5 22v-3M15.5 22v-3" opacity=".4"/>
</svg>
