<svg xmlns="http://www.w3.org/2000/svg" fill="none" viewBox="0 0 24 24" stroke="currentColor" aria-hidden="true">
  <path stroke-linecap="round" stroke-linejoin="round" stroke-miterlimit="10" stroke-width="1.5" d="M2 13.1l2.5-1.5c1.54-.92 3.46-.92 5 0s3.46.92 5 0 3.46-.92 5 0l2.5 1.5" opacity=".4"/>
  <path stroke-linecap="round" stroke-linejoin="round" stroke-miterlimit="10" stroke-width="1.5" d="M2 3.9l2.5 1.5c1.54.92 3.46.92 5 0s3.46-.92 5 0 3.46.92 5 0L22 3.9M2 20.1l2.5-1.5c1.54-.92 3.46-.92 5 0s3.46.92 5 0 3.46-.92 5 0l2.5 1.5"/>
</svg>
