<svg xmlns="http://www.w3.org/2000/svg" fill="none" viewBox="0 0 24 24" stroke="currentColor" aria-hidden="true">
  <path stroke-linecap="round" stroke-linejoin="round" stroke-width="1.5" d="M9.2 14.78l2.58 2.26c.12.11.31.11.43 0l2.58-2.26c.67-.59.76-1.59.2-2.29s-1.58-.83-2.29-.29l-.7.54-.71-.53c-.72-.54-1.73-.41-2.29.29-.56.69-.47 1.7.2 2.28z" opacity=".4"/>
  <path stroke-miterlimit="10" stroke-width="1.5" d="M22 11v6c0 4-1 5-5 5H7c-4 0-5-1-5-5V7c0-4 1-5 5-5h1.5c1.5 0 1.83.44 2.4 1.2l1.5 2c.38.5.6.8 1.6.8h3c4 0 5 1 5 5z"/>
</svg>
